<svg width="55" height="53" viewBox="0 0 55 53" fill="none" xmlns="http://www.w3.org/2000/svg">
<path d="M27.5 23.1333C31.8814 23.1333 35.4333 19.6262 35.4333 15.3C35.4333 10.9738 31.8814 7.46667 27.5 7.46667C23.1185 7.46667 19.5667 10.9738 19.5667 15.3C19.5667 19.6262 23.1185 23.1333 27.5 23.1333Z" fill="white"/>
<path d="M15.4666 16.0834H16.2666V15.3667C16.2715 13.2827 16.8594 11.2417 17.9639 9.47442C19.0685 7.70718 20.6455 6.2843 22.5166 5.36672C21.9627 4.09099 21.0736 2.98911 19.9437 2.17811C18.8138 1.36711 17.4854 0.877286 16.0995 0.760648C14.7135 0.644011 13.3219 0.904921 12.0724 1.51567C10.8229 2.12641 9.76208 3.06419 9.00272 4.22939C8.24335 5.3946 7.81375 6.74372 7.75956 8.13347C7.70536 9.52322 8.02858 10.9017 8.6949 12.1225C9.36122 13.3433 10.3457 14.3608 11.5439 15.067C12.7421 15.7732 14.1092 16.1417 15.5 16.1334L15.4666 16.0834ZM38.7666 15.3V16.0167H39.5666C40.9389 16.0029 42.282 15.6195 43.4547 14.9067C44.6274 14.1939 45.5863 13.1782 46.2304 11.9664C46.8745 10.7546 47.18 9.39158 47.1147 8.02081C47.0495 6.65003 46.6159 5.3222 45.8596 4.17707C45.1033 3.03194 44.0523 2.11188 42.8172 1.51371C41.5821 0.915551 40.2086 0.661416 38.8412 0.778059C37.4738 0.894701 36.1632 1.37781 35.0473 2.17653C33.9313 2.97525 33.0513 4.06004 32.4999 5.31672C34.3717 6.23071 35.9504 7.64999 37.0578 9.41418C38.1652 11.1784 38.7571 13.2171 38.7666 15.3ZM34.65 23.9167C37.9637 24.5726 41.1678 25.6949 44.1666 27.2501C44.5891 27.4821 44.9717 27.7803 45.2999 28.1334H54.1666V22.4334C54.1682 22.2148 54.1101 21.9999 53.9985 21.8119C53.8869 21.6239 53.726 21.47 53.5333 21.3667C49.2135 19.1072 44.4082 17.9345 39.5333 17.95H38.4333C37.8557 20.2979 36.5273 22.393 34.65 23.9167ZM8.38328 31.3667C8.38024 30.5273 8.60693 29.7031 9.03879 28.9834C9.47065 28.2636 10.0912 27.6757 10.8333 27.2834C13.8321 25.7282 17.0362 24.606 20.35 23.95C18.4817 22.4393 17.1541 20.3631 16.5666 18.0334H15.4666C10.5917 18.0179 5.78637 19.1906 1.46662 21.4501C1.2739 21.5533 1.11304 21.7072 1.00143 21.8952C0.889808 22.0832 0.831668 22.2981 0.833285 22.5167V33.1667H8.38328V31.3667ZM33.2666 40.9834H43.1999V43.3167H33.2666V40.9834Z" fill="white"/>
<path d="M52.1833 31.9334H40.7333V30.2667C40.7333 29.8247 40.5577 29.4007 40.2451 29.0882C39.9325 28.7756 39.5086 28.6 39.0666 28.6C38.6246 28.6 38.2006 28.7756 37.8881 29.0882C37.5755 29.4007 37.3999 29.8247 37.3999 30.2667V31.9334H34.1666V27.2167C31.9738 26.7562 29.7405 26.5162 27.4999 26.5C22.2395 26.4781 17.0543 27.7487 12.3999 30.2C12.1926 30.3076 12.0191 30.4704 11.8985 30.6704C11.7779 30.8704 11.7149 31.0998 11.7166 31.3334V40.6834H23.5666V50.8334C23.5666 51.2754 23.7422 51.6993 24.0547 52.0119C24.3673 52.3244 24.7912 52.5 25.2333 52.5H52.1833C52.6253 52.5 53.0492 52.3244 53.3618 52.0119C53.6743 51.6993 53.8499 51.2754 53.8499 50.8334V33.6C53.8499 33.158 53.6743 32.7341 53.3618 32.4215C53.0492 32.109 52.6253 31.9334 52.1833 31.9334ZM50.5166 49.2H26.8999V35.2667H37.3999V36.7834C37.3999 37.2254 37.5755 37.6493 37.8881 37.9619C38.2006 38.2744 38.6246 38.45 39.0666 38.45C39.5086 38.45 39.9325 38.2744 40.2451 37.9619C40.5577 37.6493 40.7333 37.2254 40.7333 36.7834V35.2667H50.5166V49.2Z" fill="white"/>
</svg>
