<svg width="173" height="180" viewBox="0 0 173 180" fill="none" xmlns="http://www.w3.org/2000/svg">
<path d="M0 3.18607C0 4.94539 1.53667 6.37368 3.43151 6.37368C5.32634 6.37368 6.86301 4.94539 6.86301 3.18607C6.86301 1.42676 5.32634 0 3.43151 0C1.53667 0 0 1.42676 0 3.18607Z" fill="url(#paint0_linear_134_2644)"/>
<path d="M0 32.0039C0 33.7648 1.53667 35.1931 3.43151 35.1931C5.32634 35.1931 6.86301 33.7648 6.86301 32.0039C6.86301 30.2431 5.32634 28.8179 3.43151 28.8179C1.53667 28.8179 0 30.2431 0 32.0039Z" fill="url(#paint1_linear_134_2644)"/>
<path d="M55.3784 3.18607C55.3784 4.94539 56.9151 6.37368 58.8099 6.37368C60.7064 6.37368 62.2414 4.94539 62.2414 3.18607C62.2414 1.42676 60.7064 0 58.8099 0C56.9151 0 55.3784 1.42676 55.3784 3.18607Z" fill="url(#paint2_linear_134_2644)"/>
<path d="M83.0669 3.18607C83.0669 4.94539 84.6052 6.37368 86.5017 6.37368C88.3949 6.37368 89.9316 4.94539 89.9316 3.18607C89.9316 1.42676 88.3949 0 86.5017 0C84.6052 0 83.0669 1.42676 83.0669 3.18607Z" fill="url(#paint3_linear_134_2644)"/>
<path d="M55.3784 32.0039C55.3784 33.7648 56.9151 35.1931 58.8099 35.1931C60.7064 35.1931 62.2414 33.7648 62.2414 32.0039C62.2414 30.2431 60.7064 28.8179 58.8099 28.8179C56.9151 28.8179 55.3784 30.2431 55.3784 32.0039Z" fill="url(#paint4_linear_134_2644)"/>
<path d="M83.0669 32.0039C83.0669 33.7648 84.6052 35.1931 86.5017 35.1931C88.3949 35.1931 89.9316 33.7648 89.9316 32.0039C89.9316 30.2431 88.3949 28.8179 86.5017 28.8179C84.6052 28.8179 83.0669 30.2431 83.0669 32.0039Z" fill="url(#paint5_linear_134_2644)"/>
<path d="M0 60.8251C0 62.5859 1.53667 64.0111 3.43151 64.0111C5.32634 64.0111 6.86301 62.5859 6.86301 60.8251C6.86301 59.0657 5.32634 57.6375 3.43151 57.6375C1.53667 57.6375 0 59.0657 0 60.8251Z" fill="url(#paint6_linear_134_2644)"/>
<path d="M55.3784 60.8251C55.3784 62.5859 56.9151 64.0111 58.8099 64.0111C60.7064 64.0111 62.2414 62.5859 62.2414 60.8251C62.2414 59.0657 60.7064 57.6375 58.8099 57.6375C56.9151 57.6375 55.3784 59.0657 55.3784 60.8251Z" fill="url(#paint7_linear_134_2644)"/>
<path d="M83.0669 60.8251C83.0669 62.5859 84.6052 64.0111 86.5017 64.0111C88.3949 64.0111 89.9316 62.5859 89.9316 60.8251C89.9316 59.0657 88.3949 57.6375 86.5017 57.6375C84.6052 57.6375 83.0669 59.0657 83.0669 60.8251Z" fill="url(#paint8_linear_134_2644)"/>
<path d="M55.3784 89.6429C55.3784 91.4022 56.9151 92.829 58.8099 92.829C60.7064 92.829 62.2414 91.4022 62.2414 89.6429C62.2414 87.8821 60.7064 86.4553 58.8099 86.4553C56.9151 86.4553 55.3784 87.8821 55.3784 89.6429Z" fill="url(#paint9_linear_134_2644)"/>
<path d="M83.0669 89.6429C83.0669 91.4022 84.6052 92.829 86.5017 92.829C88.3949 92.829 89.9316 91.4022 89.9316 89.6429C89.9316 87.8821 88.3949 86.4553 86.5017 86.4553C84.6052 86.4553 83.0669 87.8821 83.0669 89.6429Z" fill="url(#paint10_linear_134_2644)"/>
<path d="M110.757 3.18607C110.757 4.94539 112.29 6.37368 114.189 6.37368C116.083 6.37368 117.62 4.94539 117.62 3.18607C117.62 1.42676 116.083 0 114.189 0C112.29 0 110.757 1.42676 110.757 3.18607Z" fill="url(#paint11_linear_134_2644)"/>
<path d="M138.445 3.18607C138.445 4.94539 139.985 6.37368 141.877 6.37368C143.776 6.37368 145.31 4.94539 145.31 3.18607C145.31 1.42676 143.776 0 141.877 0C139.985 0 138.445 1.42676 138.445 3.18607Z" fill="url(#paint12_linear_134_2644)"/>
<path d="M166.135 3.18607C166.135 4.94539 167.675 6.37368 169.568 6.37368C171.463 6.37368 173 4.94539 173 3.18607C173 1.42676 171.463 0 169.568 0C167.675 0 166.135 1.42676 166.135 3.18607Z" fill="url(#paint13_linear_134_2644)"/>
<path d="M166.135 32.0039C166.135 33.7648 167.675 35.1931 169.568 35.1931C171.463 35.1931 173 33.7648 173 32.0039C173 30.2431 171.463 28.8179 169.568 28.8179C167.675 28.8179 166.135 30.2431 166.135 32.0039Z" fill="url(#paint14_linear_134_2644)"/>
<path d="M166.135 60.8251C166.135 62.5859 167.675 64.0111 169.568 64.0111C171.463 64.0111 173 62.5859 173 60.8251C173 59.0657 171.463 57.6375 169.568 57.6375C167.675 57.6375 166.135 59.0657 166.135 60.8251Z" fill="url(#paint15_linear_134_2644)"/>
<path d="M166.135 89.6429C166.135 91.4022 167.675 92.829 169.568 92.829C171.463 92.829 173 91.4022 173 89.6429C173 87.8821 171.463 86.4553 169.568 86.4553C167.675 86.4553 166.135 87.8821 166.135 89.6429Z" fill="url(#paint16_linear_134_2644)"/>
<path d="M27.6885 118.46C27.6885 120.219 29.2235 121.646 31.12 121.646C33.0148 121.646 34.5531 120.219 34.5531 118.46C34.5531 116.699 33.0148 115.273 31.12 115.273C29.2235 115.273 27.6885 116.699 27.6885 118.46Z" fill="url(#paint17_linear_134_2644)"/>
<path d="M55.3784 118.46C55.3784 120.219 56.9151 121.646 58.8099 121.646C60.7064 121.646 62.2414 120.219 62.2414 118.46C62.2414 116.699 60.7064 115.273 58.8099 115.273C56.9151 115.273 55.3784 116.699 55.3784 118.46Z" fill="url(#paint18_linear_134_2644)"/>
<path d="M83.0669 118.46C83.0669 120.219 84.6052 121.646 86.5017 121.646C88.3949 121.646 89.9316 120.219 89.9316 118.46C89.9316 116.699 88.3949 115.273 86.5017 115.273C84.6052 115.273 83.0669 116.699 83.0669 118.46Z" fill="url(#paint19_linear_134_2644)"/>
<path d="M27.6885 147.276C27.6885 149.037 29.2235 150.46 31.12 150.46C33.0148 150.46 34.5531 149.037 34.5531 147.276C34.5531 145.516 33.0148 144.09 31.12 144.09C29.2235 144.09 27.6885 145.516 27.6885 147.276Z" fill="url(#paint20_linear_134_2644)"/>
<path d="M0 176.092C0 177.851 1.53667 179.28 3.43151 179.28C5.32634 179.28 6.86301 177.851 6.86301 176.092C6.86301 174.333 5.32634 172.905 3.43151 172.905C1.53667 172.905 0 174.333 0 176.092Z" fill="url(#paint21_linear_134_2644)"/>
<path d="M27.6885 176.092C27.6885 177.851 29.2235 179.28 31.12 179.28C33.0148 179.28 34.5531 177.851 34.5531 176.092C34.5531 174.333 33.0148 172.905 31.12 172.905C29.2235 172.905 27.6885 174.333 27.6885 176.092Z" fill="url(#paint22_linear_134_2644)"/>
<path d="M83.0669 147.276C83.0669 149.037 84.6052 150.46 86.5017 150.46C88.3949 150.46 89.9316 149.037 89.9316 147.276C89.9316 145.516 88.3949 144.09 86.5017 144.09C84.6052 144.09 83.0669 145.516 83.0669 147.276Z" fill="url(#paint23_linear_134_2644)"/>
<path d="M83.0669 176.092C83.0669 177.851 84.6052 179.28 86.5017 179.28C88.3949 179.28 89.9316 177.851 89.9316 176.092C89.9316 174.333 88.3949 172.905 86.5017 172.905C84.6052 172.905 83.0669 174.333 83.0669 176.092Z" fill="url(#paint24_linear_134_2644)"/>
<path d="M110.757 118.46C110.757 120.219 112.29 121.646 114.189 121.646C116.083 121.646 117.62 120.219 117.62 118.46C117.62 116.699 116.083 115.273 114.189 115.273C112.29 115.273 110.757 116.699 110.757 118.46Z" fill="url(#paint25_linear_134_2644)"/>
<path d="M138.445 32.0039C138.445 33.7648 139.985 35.1931 141.877 35.1931C143.776 35.1931 145.31 33.7648 145.31 32.0039C145.31 30.2431 143.776 28.8179 141.877 28.8179C139.985 28.8179 138.445 30.2431 138.445 32.0039Z" fill="url(#paint26_linear_134_2644)"/>
<path d="M138.445 60.8251C138.445 62.5859 139.985 64.0111 141.877 64.0111C143.776 64.0111 145.31 62.5859 145.31 60.8251C145.31 59.0657 143.776 57.6375 141.877 57.6375C139.985 57.6375 138.445 59.0657 138.445 60.8251Z" fill="url(#paint27_linear_134_2644)"/>
<path d="M138.445 89.6429C138.445 91.4022 139.985 92.829 141.877 92.829C143.776 92.829 145.31 91.4022 145.31 89.6429C145.31 87.8821 143.776 86.4553 141.877 86.4553C139.985 86.4553 138.445 87.8821 138.445 89.6429Z" fill="url(#paint28_linear_134_2644)"/>
<path d="M0 118.46C0 120.219 1.53667 121.646 3.43151 121.646C5.32634 121.646 6.86301 120.219 6.86301 118.46C6.86301 116.699 5.32634 115.273 3.43151 115.273C1.53667 115.273 0 116.699 0 118.46Z" fill="url(#paint29_linear_134_2644)"/>
<path d="M0 147.276C0 149.037 1.53667 150.46 3.43151 150.46C5.32634 150.46 6.86301 149.037 6.86301 147.276C6.86301 145.516 5.32634 144.09 3.43151 144.09C1.53667 144.09 0 145.516 0 147.276Z" fill="url(#paint30_linear_134_2644)"/>
<path d="M55.3784 147.276C55.3784 149.037 56.9151 150.46 58.8099 150.46C60.7064 150.46 62.2414 149.037 62.2414 147.276C62.2414 145.516 60.7064 144.09 58.8099 144.09C56.9151 144.09 55.3784 145.516 55.3784 147.276Z" fill="url(#paint31_linear_134_2644)"/>
<path d="M55.3784 176.092C55.3784 177.851 56.9151 179.28 58.8099 179.28C60.7064 179.28 62.2414 177.851 62.2414 176.092C62.2414 174.333 60.7064 172.905 58.8099 172.905C56.9151 172.905 55.3784 174.333 55.3784 176.092Z" fill="url(#paint32_linear_134_2644)"/>
<path d="M138.445 118.46C138.445 120.219 139.985 121.646 141.877 121.646C143.776 121.646 145.31 120.219 145.31 118.46C145.31 116.699 143.776 115.273 141.877 115.273C139.985 115.273 138.445 116.699 138.445 118.46Z" fill="url(#paint33_linear_134_2644)"/>
<path d="M0 89.6429C0 91.4022 1.53667 92.829 3.43151 92.829C5.32634 92.829 6.86301 91.4022 6.86301 89.6429C6.86301 87.8821 5.32634 86.4553 3.43151 86.4553C1.53667 86.4553 0 87.8821 0 89.6429Z" fill="url(#paint34_linear_134_2644)"/>
<path d="M110.757 147.276C110.757 149.037 112.29 150.46 114.189 150.46C116.083 150.46 117.62 149.037 117.62 147.276C117.62 145.516 116.083 144.09 114.189 144.09C112.29 144.09 110.757 145.516 110.757 147.276Z" fill="url(#paint35_linear_134_2644)"/>
<path d="M110.757 176.092C110.757 177.851 112.29 179.28 114.189 179.28C116.083 179.28 117.62 177.851 117.62 176.092C117.62 174.333 116.083 172.905 114.189 172.905C112.29 172.905 110.757 174.333 110.757 176.092Z" fill="url(#paint36_linear_134_2644)"/>
<path d="M138.445 147.276C138.445 149.037 139.985 150.46 141.877 150.46C143.776 150.46 145.31 149.037 145.31 147.276C145.31 145.516 143.776 144.09 141.877 144.09C139.985 144.09 138.445 145.516 138.445 147.276Z" fill="url(#paint37_linear_134_2644)"/>
<path d="M138.445 176.092C138.445 177.851 139.985 179.28 141.877 179.28C143.776 179.28 145.31 177.851 145.31 176.092C145.31 174.333 143.776 172.905 141.877 172.905C139.985 172.905 138.445 174.333 138.445 176.092Z" fill="url(#paint38_linear_134_2644)"/>
<path d="M27.6885 3.18607C27.6885 4.94539 29.2235 6.37368 31.12 6.37368C33.0148 6.37368 34.5531 4.94539 34.5531 3.18607C34.5531 1.42676 33.0148 0 31.12 0C29.2235 0 27.6885 1.42676 27.6885 3.18607Z" fill="url(#paint39_linear_134_2644)"/>
<path d="M27.6885 32.0039C27.6885 33.7648 29.2235 35.1931 31.12 35.1931C33.0148 35.1931 34.5531 33.7648 34.5531 32.0039C34.5531 30.2431 33.0148 28.8179 31.12 28.8179C29.2235 28.8179 27.6885 30.2431 27.6885 32.0039Z" fill="url(#paint40_linear_134_2644)"/>
<path d="M27.6885 60.8251C27.6885 62.5859 29.2235 64.0111 31.12 64.0111C33.0148 64.0111 34.5531 62.5859 34.5531 60.8251C34.5531 59.0657 33.0148 57.6375 31.12 57.6375C29.2235 57.6375 27.6885 59.0657 27.6885 60.8251Z" fill="url(#paint41_linear_134_2644)"/>
<path d="M27.6885 89.6429C27.6885 91.4022 29.2235 92.829 31.12 92.829C33.0148 92.829 34.5531 91.4022 34.5531 89.6429C34.5531 87.8821 33.0148 86.4553 31.12 86.4553C29.2235 86.4553 27.6885 87.8821 27.6885 89.6429Z" fill="url(#paint42_linear_134_2644)"/>
<path d="M110.757 32.0039C110.757 33.7648 112.29 35.1931 114.189 35.1931C116.083 35.1931 117.62 33.7648 117.62 32.0039C117.62 30.2431 116.083 28.8179 114.189 28.8179C112.29 28.8179 110.757 30.2431 110.757 32.0039Z" fill="url(#paint43_linear_134_2644)"/>
<path d="M110.757 60.8251C110.757 62.5859 112.29 64.0111 114.189 64.0111C116.083 64.0111 117.62 62.5859 117.62 60.8251C117.62 59.0657 116.083 57.6375 114.189 57.6375C112.29 57.6375 110.757 59.0657 110.757 60.8251Z" fill="url(#paint44_linear_134_2644)"/>
<path d="M110.757 89.6429C110.757 91.4022 112.29 92.829 114.189 92.829C116.083 92.829 117.62 91.4022 117.62 89.6429C117.62 87.8821 116.083 86.4553 114.189 86.4553C112.29 86.4553 110.757 87.8821 110.757 89.6429Z" fill="url(#paint45_linear_134_2644)"/>
<path d="M166.135 118.46C166.135 120.219 167.675 121.646 169.568 121.646C171.463 121.646 173 120.219 173 118.46C173 116.699 171.463 115.273 169.568 115.273C167.675 115.273 166.135 116.699 166.135 118.46Z" fill="url(#paint46_linear_134_2644)"/>
<path d="M166.135 147.276C166.135 149.037 167.675 150.46 169.568 150.46C171.463 150.46 173 149.037 173 147.276C173 145.516 171.463 144.09 169.568 144.09C167.675 144.09 166.135 145.516 166.135 147.276Z" fill="url(#paint47_linear_134_2644)"/>
<path d="M166.135 176.092C166.135 177.851 167.675 179.28 169.568 179.28C171.463 179.28 173 177.851 173 176.092C173 174.333 171.463 172.905 169.568 172.905C167.675 172.905 166.135 174.333 166.135 176.092Z" fill="url(#paint48_linear_134_2644)"/>
<defs>
<linearGradient id="paint0_linear_134_2644" x1="-2.55667e-08" y1="3.18684" x2="6.86301" y2="3.18684" gradientUnits="userSpaceOnUse">
<stop stop-color="#49D363"/>
<stop offset="1" stop-color="#2ED7AE"/>
</linearGradient>
<linearGradient id="paint1_linear_134_2644" x1="-2.55667e-08" y1="32.0055" x2="6.86301" y2="32.0055" gradientUnits="userSpaceOnUse">
<stop stop-color="#49D363"/>
<stop offset="1" stop-color="#2ED7AE"/>
</linearGradient>
<linearGradient id="paint2_linear_134_2644" x1="55.3784" y1="3.18684" x2="62.2414" y2="3.18684" gradientUnits="userSpaceOnUse">
<stop stop-color="#49D363"/>
<stop offset="1" stop-color="#2ED7AE"/>
</linearGradient>
<linearGradient id="paint3_linear_134_2644" x1="83.0669" y1="3.18684" x2="89.9316" y2="3.18684" gradientUnits="userSpaceOnUse">
<stop stop-color="#49D363"/>
<stop offset="1" stop-color="#2ED7AE"/>
</linearGradient>
<linearGradient id="paint4_linear_134_2644" x1="55.3784" y1="32.0055" x2="62.2414" y2="32.0055" gradientUnits="userSpaceOnUse">
<stop stop-color="#49D363"/>
<stop offset="1" stop-color="#2ED7AE"/>
</linearGradient>
<linearGradient id="paint5_linear_134_2644" x1="83.0669" y1="32.0055" x2="89.9316" y2="32.0055" gradientUnits="userSpaceOnUse">
<stop stop-color="#49D363"/>
<stop offset="1" stop-color="#2ED7AE"/>
</linearGradient>
<linearGradient id="paint6_linear_134_2644" x1="-2.55667e-08" y1="60.8243" x2="6.86301" y2="60.8243" gradientUnits="userSpaceOnUse">
<stop stop-color="#49D363"/>
<stop offset="1" stop-color="#2ED7AE"/>
</linearGradient>
<linearGradient id="paint7_linear_134_2644" x1="55.3784" y1="60.8243" x2="62.2414" y2="60.8243" gradientUnits="userSpaceOnUse">
<stop stop-color="#49D363"/>
<stop offset="1" stop-color="#2ED7AE"/>
</linearGradient>
<linearGradient id="paint8_linear_134_2644" x1="83.0669" y1="60.8243" x2="89.9316" y2="60.8243" gradientUnits="userSpaceOnUse">
<stop stop-color="#49D363"/>
<stop offset="1" stop-color="#2ED7AE"/>
</linearGradient>
<linearGradient id="paint9_linear_134_2644" x1="55.3784" y1="89.6422" x2="62.2414" y2="89.6422" gradientUnits="userSpaceOnUse">
<stop stop-color="#49D363"/>
<stop offset="1" stop-color="#2ED7AE"/>
</linearGradient>
<linearGradient id="paint10_linear_134_2644" x1="83.0669" y1="89.6422" x2="89.9316" y2="89.6422" gradientUnits="userSpaceOnUse">
<stop stop-color="#49D363"/>
<stop offset="1" stop-color="#2ED7AE"/>
</linearGradient>
<linearGradient id="paint11_linear_134_2644" x1="110.757" y1="3.18684" x2="117.62" y2="3.18684" gradientUnits="userSpaceOnUse">
<stop stop-color="#49D363"/>
<stop offset="1" stop-color="#2ED7AE"/>
</linearGradient>
<linearGradient id="paint12_linear_134_2644" x1="138.445" y1="3.18684" x2="145.31" y2="3.18684" gradientUnits="userSpaceOnUse">
<stop stop-color="#49D363"/>
<stop offset="1" stop-color="#2ED7AE"/>
</linearGradient>
<linearGradient id="paint13_linear_134_2644" x1="166.135" y1="3.18684" x2="173" y2="3.18684" gradientUnits="userSpaceOnUse">
<stop stop-color="#49D363"/>
<stop offset="1" stop-color="#2ED7AE"/>
</linearGradient>
<linearGradient id="paint14_linear_134_2644" x1="166.135" y1="32.0055" x2="173" y2="32.0055" gradientUnits="userSpaceOnUse">
<stop stop-color="#49D363"/>
<stop offset="1" stop-color="#2ED7AE"/>
</linearGradient>
<linearGradient id="paint15_linear_134_2644" x1="166.135" y1="60.8243" x2="173" y2="60.8243" gradientUnits="userSpaceOnUse">
<stop stop-color="#49D363"/>
<stop offset="1" stop-color="#2ED7AE"/>
</linearGradient>
<linearGradient id="paint16_linear_134_2644" x1="166.135" y1="89.6422" x2="173" y2="89.6422" gradientUnits="userSpaceOnUse">
<stop stop-color="#49D363"/>
<stop offset="1" stop-color="#2ED7AE"/>
</linearGradient>
<linearGradient id="paint17_linear_134_2644" x1="27.6885" y1="118.46" x2="34.5531" y2="118.46" gradientUnits="userSpaceOnUse">
<stop stop-color="#49D363"/>
<stop offset="1" stop-color="#2ED7AE"/>
</linearGradient>
<linearGradient id="paint18_linear_134_2644" x1="55.3784" y1="118.46" x2="62.2414" y2="118.46" gradientUnits="userSpaceOnUse">
<stop stop-color="#49D363"/>
<stop offset="1" stop-color="#2ED7AE"/>
</linearGradient>
<linearGradient id="paint19_linear_134_2644" x1="83.0669" y1="118.46" x2="89.9316" y2="118.46" gradientUnits="userSpaceOnUse">
<stop stop-color="#49D363"/>
<stop offset="1" stop-color="#2ED7AE"/>
</linearGradient>
<linearGradient id="paint20_linear_134_2644" x1="27.6885" y1="147.275" x2="34.5531" y2="147.275" gradientUnits="userSpaceOnUse">
<stop stop-color="#49D363"/>
<stop offset="1" stop-color="#2ED7AE"/>
</linearGradient>
<linearGradient id="paint21_linear_134_2644" x1="-2.55667e-08" y1="176.092" x2="6.86301" y2="176.092" gradientUnits="userSpaceOnUse">
<stop stop-color="#49D363"/>
<stop offset="1" stop-color="#2ED7AE"/>
</linearGradient>
<linearGradient id="paint22_linear_134_2644" x1="27.6885" y1="176.092" x2="34.5531" y2="176.092" gradientUnits="userSpaceOnUse">
<stop stop-color="#49D363"/>
<stop offset="1" stop-color="#2ED7AE"/>
</linearGradient>
<linearGradient id="paint23_linear_134_2644" x1="83.0669" y1="147.275" x2="89.9316" y2="147.275" gradientUnits="userSpaceOnUse">
<stop stop-color="#49D363"/>
<stop offset="1" stop-color="#2ED7AE"/>
</linearGradient>
<linearGradient id="paint24_linear_134_2644" x1="83.0669" y1="176.092" x2="89.9316" y2="176.092" gradientUnits="userSpaceOnUse">
<stop stop-color="#49D363"/>
<stop offset="1" stop-color="#2ED7AE"/>
</linearGradient>
<linearGradient id="paint25_linear_134_2644" x1="110.757" y1="118.46" x2="117.62" y2="118.46" gradientUnits="userSpaceOnUse">
<stop stop-color="#49D363"/>
<stop offset="1" stop-color="#2ED7AE"/>
</linearGradient>
<linearGradient id="paint26_linear_134_2644" x1="138.445" y1="32.0055" x2="145.31" y2="32.0055" gradientUnits="userSpaceOnUse">
<stop stop-color="#49D363"/>
<stop offset="1" stop-color="#2ED7AE"/>
</linearGradient>
<linearGradient id="paint27_linear_134_2644" x1="138.445" y1="60.8243" x2="145.31" y2="60.8243" gradientUnits="userSpaceOnUse">
<stop stop-color="#49D363"/>
<stop offset="1" stop-color="#2ED7AE"/>
</linearGradient>
<linearGradient id="paint28_linear_134_2644" x1="138.445" y1="89.6422" x2="145.31" y2="89.6422" gradientUnits="userSpaceOnUse">
<stop stop-color="#49D363"/>
<stop offset="1" stop-color="#2ED7AE"/>
</linearGradient>
<linearGradient id="paint29_linear_134_2644" x1="-2.55667e-08" y1="118.46" x2="6.86301" y2="118.46" gradientUnits="userSpaceOnUse">
<stop stop-color="#49D363"/>
<stop offset="1" stop-color="#2ED7AE"/>
</linearGradient>
<linearGradient id="paint30_linear_134_2644" x1="-2.55667e-08" y1="147.275" x2="6.86301" y2="147.275" gradientUnits="userSpaceOnUse">
<stop stop-color="#49D363"/>
<stop offset="1" stop-color="#2ED7AE"/>
</linearGradient>
<linearGradient id="paint31_linear_134_2644" x1="55.3784" y1="147.275" x2="62.2414" y2="147.275" gradientUnits="userSpaceOnUse">
<stop stop-color="#49D363"/>
<stop offset="1" stop-color="#2ED7AE"/>
</linearGradient>
<linearGradient id="paint32_linear_134_2644" x1="55.3784" y1="176.092" x2="62.2414" y2="176.092" gradientUnits="userSpaceOnUse">
<stop stop-color="#49D363"/>
<stop offset="1" stop-color="#2ED7AE"/>
</linearGradient>
<linearGradient id="paint33_linear_134_2644" x1="138.445" y1="118.46" x2="145.31" y2="118.46" gradientUnits="userSpaceOnUse">
<stop stop-color="#49D363"/>
<stop offset="1" stop-color="#2ED7AE"/>
</linearGradient>
<linearGradient id="paint34_linear_134_2644" x1="-2.55667e-08" y1="89.6422" x2="6.86301" y2="89.6422" gradientUnits="userSpaceOnUse">
<stop stop-color="#49D363"/>
<stop offset="1" stop-color="#2ED7AE"/>
</linearGradient>
<linearGradient id="paint35_linear_134_2644" x1="110.757" y1="147.275" x2="117.62" y2="147.275" gradientUnits="userSpaceOnUse">
<stop stop-color="#49D363"/>
<stop offset="1" stop-color="#2ED7AE"/>
</linearGradient>
<linearGradient id="paint36_linear_134_2644" x1="110.757" y1="176.092" x2="117.62" y2="176.092" gradientUnits="userSpaceOnUse">
<stop stop-color="#49D363"/>
<stop offset="1" stop-color="#2ED7AE"/>
</linearGradient>
<linearGradient id="paint37_linear_134_2644" x1="138.445" y1="147.275" x2="145.31" y2="147.275" gradientUnits="userSpaceOnUse">
<stop stop-color="#49D363"/>
<stop offset="1" stop-color="#2ED7AE"/>
</linearGradient>
<linearGradient id="paint38_linear_134_2644" x1="138.445" y1="176.092" x2="145.31" y2="176.092" gradientUnits="userSpaceOnUse">
<stop stop-color="#49D363"/>
<stop offset="1" stop-color="#2ED7AE"/>
</linearGradient>
<linearGradient id="paint39_linear_134_2644" x1="27.6885" y1="3.18684" x2="34.5531" y2="3.18684" gradientUnits="userSpaceOnUse">
<stop stop-color="#49D363"/>
<stop offset="1" stop-color="#2ED7AE"/>
</linearGradient>
<linearGradient id="paint40_linear_134_2644" x1="27.6885" y1="32.0055" x2="34.5531" y2="32.0055" gradientUnits="userSpaceOnUse">
<stop stop-color="#49D363"/>
<stop offset="1" stop-color="#2ED7AE"/>
</linearGradient>
<linearGradient id="paint41_linear_134_2644" x1="27.6885" y1="60.8243" x2="34.5531" y2="60.8243" gradientUnits="userSpaceOnUse">
<stop stop-color="#49D363"/>
<stop offset="1" stop-color="#2ED7AE"/>
</linearGradient>
<linearGradient id="paint42_linear_134_2644" x1="27.6885" y1="89.6422" x2="34.5531" y2="89.6422" gradientUnits="userSpaceOnUse">
<stop stop-color="#49D363"/>
<stop offset="1" stop-color="#2ED7AE"/>
</linearGradient>
<linearGradient id="paint43_linear_134_2644" x1="110.757" y1="32.0055" x2="117.62" y2="32.0055" gradientUnits="userSpaceOnUse">
<stop stop-color="#49D363"/>
<stop offset="1" stop-color="#2ED7AE"/>
</linearGradient>
<linearGradient id="paint44_linear_134_2644" x1="110.757" y1="60.8243" x2="117.62" y2="60.8243" gradientUnits="userSpaceOnUse">
<stop stop-color="#49D363"/>
<stop offset="1" stop-color="#2ED7AE"/>
</linearGradient>
<linearGradient id="paint45_linear_134_2644" x1="110.757" y1="89.6422" x2="117.62" y2="89.6422" gradientUnits="userSpaceOnUse">
<stop stop-color="#49D363"/>
<stop offset="1" stop-color="#2ED7AE"/>
</linearGradient>
<linearGradient id="paint46_linear_134_2644" x1="166.135" y1="118.46" x2="173" y2="118.46" gradientUnits="userSpaceOnUse">
<stop stop-color="#49D363"/>
<stop offset="1" stop-color="#2ED7AE"/>
</linearGradient>
<linearGradient id="paint47_linear_134_2644" x1="166.135" y1="147.275" x2="173" y2="147.275" gradientUnits="userSpaceOnUse">
<stop stop-color="#49D363"/>
<stop offset="1" stop-color="#2ED7AE"/>
</linearGradient>
<linearGradient id="paint48_linear_134_2644" x1="166.135" y1="176.092" x2="173" y2="176.092" gradientUnits="userSpaceOnUse">
<stop stop-color="#49D363"/>
<stop offset="1" stop-color="#2ED7AE"/>
</linearGradient>
</defs>
</svg>
