<svg width="60" height="60" viewBox="0 0 60 60" fill="none" xmlns="http://www.w3.org/2000/svg">
<circle cx="30" cy="30" r="29.5" stroke="black"/>
<path d="M13.8461 38.7693V15.6924H20.1994L24.0143 31.4338L27.7861 15.6924H34.1538V38.7693H30.2098V20.6037L26.0364 38.7693H21.9491L17.79 20.6037V38.7693H13.8461Z" fill="black"/>
<path d="M30.4615 38.7693V15.6924H34.8911V24.7752H43.5705V15.6924H48V38.7693H43.5705V28.6791H34.8911V38.7693H30.4615Z" fill="black"/>
<path d="M14.7693 45.2727V42.2762H15.5424L16.0067 44.3202L16.4657 42.2762H17.2406V45.2727H16.7606V42.914L16.2527 45.2727H15.7554L15.2492 42.914V45.2727H14.7693Z" fill="black"/>
<path d="M17.7502 42.8077V42.2762H18.2406V42.8077H17.7502ZM17.7502 45.2727V43.102H18.2406V45.2727H17.7502Z" fill="black"/>
<path d="M20.4309 45.2727H19.9405V44.1649C19.9405 43.9305 19.93 43.7793 19.909 43.7111C19.8881 43.6416 19.8538 43.5878 19.8061 43.5496C19.7595 43.5115 19.7031 43.4924 19.6368 43.4924C19.5518 43.4924 19.4756 43.5197 19.4082 43.5742C19.3407 43.6287 19.2941 43.7009 19.2685 43.7908C19.2441 43.8808 19.2319 44.047 19.2319 44.2896V45.2727H18.7415V43.102H19.197V43.4209C19.3587 43.1756 19.5623 43.0529 19.8078 43.0529C19.916 43.0529 20.0149 43.0761 20.1045 43.1224C20.1941 43.1674 20.2616 43.2253 20.307 43.2962C20.3535 43.367 20.3855 43.4474 20.4029 43.5374C20.4216 43.6273 20.4309 43.7561 20.4309 43.9237V45.2727Z" fill="black"/>
<path d="M21.4187 42.2762V43.3779C21.5769 43.1613 21.766 43.0529 21.9859 43.0529C22.0987 43.0529 22.2005 43.0775 22.2913 43.1265C22.3821 43.1756 22.4501 43.2383 22.4955 43.3146C22.542 43.3909 22.5734 43.4754 22.5897 43.568C22.6072 43.6607 22.6159 43.8045 22.6159 43.9993V45.2727H22.1255V44.1261C22.1255 43.8985 22.1162 43.754 22.0976 43.6927C22.079 43.6314 22.0458 43.583 21.9981 43.5476C21.9516 43.5108 21.8928 43.4924 21.8218 43.4924C21.7404 43.4924 21.6677 43.5156 21.6037 43.5619C21.5397 43.6082 21.4926 43.6784 21.4623 43.7724C21.4332 43.8651 21.4187 44.0027 21.4187 44.1853V45.2727H20.9283V42.2762H21.4187Z" fill="black"/>
<path d="M24.1151 45.2727V42.2762H24.6317V43.4556H25.6439V42.2762H26.1605V45.2727H25.6439V43.9625H24.6317V45.2727H24.1151Z" fill="black"/>
<path d="M27.0593 43.7643L26.6143 43.6702C26.6643 43.4604 26.7504 43.305 26.8726 43.2042C26.9947 43.1034 27.1762 43.0529 27.4171 43.0529C27.6358 43.0529 27.7987 43.0836 27.9058 43.1449C28.0128 43.2049 28.0878 43.2819 28.1309 43.3759C28.1751 43.4686 28.1972 43.6396 28.1972 43.8889L28.192 44.5594C28.192 44.7502 28.1995 44.8912 28.2147 44.9825C28.231 45.0724 28.2606 45.1692 28.3037 45.2727H27.8185C27.8057 45.2346 27.79 45.178 27.7714 45.1031C27.7632 45.069 27.7574 45.0465 27.7539 45.0356C27.6702 45.131 27.5806 45.2026 27.4852 45.2503C27.3897 45.298 27.2879 45.3218 27.1797 45.3218C26.9889 45.3218 26.8382 45.2612 26.7277 45.1399C26.6183 45.0186 26.5637 44.8653 26.5637 44.68C26.5637 44.5573 26.5887 44.4483 26.6387 44.3529C26.6887 44.2562 26.7586 44.1826 26.8481 44.1322C26.9389 44.0804 27.0692 44.0354 27.2391 43.9973C27.4683 43.9469 27.6271 43.8998 27.7155 43.8562V43.799C27.7155 43.6886 27.6923 43.6103 27.6457 43.5639C27.5992 43.5163 27.5113 43.4924 27.3822 43.4924C27.2949 43.4924 27.2269 43.5128 27.178 43.5537C27.1291 43.5932 27.0896 43.6634 27.0593 43.7643ZM27.7155 44.2303C27.6527 44.2548 27.5532 44.2841 27.4171 44.3182C27.281 44.3523 27.192 44.3856 27.1501 44.4183C27.0861 44.4715 27.0541 44.5389 27.0541 44.6207C27.0541 44.7011 27.0797 44.7706 27.1309 44.8292C27.1821 44.8878 27.2472 44.9171 27.3263 44.9171C27.4148 44.9171 27.4991 44.883 27.5794 44.8149C27.6387 44.7631 27.6777 44.6997 27.6963 44.6248C27.7091 44.5757 27.7155 44.4824 27.7155 44.3448V44.2303ZM27.733 42.2251H27.9721C27.9581 42.4104 27.9023 42.5562 27.8045 42.6625C27.708 42.7675 27.5823 42.8199 27.4276 42.8199C27.2728 42.8199 27.1466 42.7675 27.0488 42.6625C26.9523 42.5562 26.897 42.4104 26.883 42.2251H27.1221C27.1303 42.3219 27.1594 42.3955 27.2094 42.4459C27.2594 42.4949 27.3322 42.5195 27.4276 42.5195C27.523 42.5195 27.5957 42.4949 27.6457 42.4459C27.6957 42.3955 27.7248 42.3219 27.733 42.2251ZM27.6684 42.1147H27.3595L26.8778 41.5383H27.4276L27.6684 42.1147Z" fill="black"/>
<path d="M30.3683 45.2727H29.8779V44.1649C29.8779 43.9305 29.8674 43.7793 29.8465 43.7111C29.8255 43.6416 29.7912 43.5878 29.7435 43.5496C29.697 43.5115 29.6405 43.4924 29.5742 43.4924C29.4893 43.4924 29.4131 43.5197 29.3456 43.5742C29.2781 43.6287 29.2316 43.7009 29.206 43.7908C29.1815 43.8808 29.1693 44.047 29.1693 44.2896V45.2727H28.6789V43.102H29.1344V43.4209C29.2961 43.1756 29.4998 43.0529 29.7452 43.0529C29.8535 43.0529 29.9524 43.0761 30.0419 43.1224C30.1315 43.1674 30.199 43.2253 30.2444 43.2962C30.2909 43.367 30.3229 43.4474 30.3404 43.5374C30.359 43.6273 30.3683 43.7561 30.3683 43.9237V45.2727Z" fill="black"/>
<path d="M30.8221 45.4158L31.3823 45.4955C31.3916 45.5719 31.4131 45.6243 31.4469 45.6529C31.4934 45.6938 31.5667 45.7143 31.6668 45.7143C31.7948 45.7143 31.8907 45.6918 31.9547 45.6468C31.9978 45.6168 32.0304 45.5684 32.0525 45.5017C32.0676 45.454 32.0752 45.3661 32.0752 45.238V44.9212C31.9286 45.1556 31.7436 45.2727 31.5202 45.2727C31.2712 45.2727 31.074 45.1494 30.9285 44.9028C30.8145 44.7079 30.7575 44.4654 30.7575 44.1751C30.7575 43.8113 30.832 43.5333 30.9809 43.3412C31.131 43.149 31.3171 43.0529 31.5394 43.0529C31.7686 43.0529 31.9576 43.1708 32.1066 43.4066V43.102H32.5656V45.0499C32.5656 45.3061 32.5475 45.4976 32.5115 45.6243C32.4754 45.751 32.4248 45.8505 32.3596 45.9227C32.2945 45.995 32.2072 46.0515 32.0978 46.0924C31.9896 46.1333 31.8523 46.1537 31.686 46.1537C31.3718 46.1537 31.149 46.0904 31.0175 45.9636C30.8861 45.8383 30.8203 45.6788 30.8203 45.4853C30.8203 45.4662 30.8209 45.4431 30.8221 45.4158ZM31.2601 44.1424C31.2601 44.3727 31.2979 44.5417 31.3736 44.6493C31.4504 44.7556 31.5446 44.8088 31.6563 44.8088C31.7761 44.8088 31.8774 44.7542 31.96 44.6452C32.0426 44.5349 32.0839 44.372 32.0839 44.1567C32.0839 43.9319 32.0443 43.7649 31.9652 43.6559C31.8861 43.5469 31.786 43.4924 31.665 43.4924C31.5475 43.4924 31.4504 43.5462 31.3736 43.6539C31.2979 43.7602 31.2601 43.923 31.2601 44.1424Z" fill="black"/>
<path d="M34.0508 45.2727V42.2762H34.8798C35.1939 42.2762 35.3987 42.2912 35.4941 42.3212C35.6407 42.3662 35.7634 42.4643 35.8623 42.6155C35.9612 42.7654 36.0107 42.9596 36.0107 43.1981C36.0107 43.382 35.9822 43.5367 35.9252 43.6621C35.8682 43.7874 35.7954 43.8862 35.707 43.9584C35.6197 44.0293 35.5307 44.0763 35.44 44.0995C35.3167 44.1281 35.1381 44.1424 34.9042 44.1424H34.5674V45.2727H34.0508ZM34.5674 42.7831V43.6334H34.8501C35.0537 43.6334 35.1898 43.6178 35.2585 43.5864C35.3271 43.5551 35.3807 43.506 35.419 43.4393C35.4586 43.3725 35.4784 43.2948 35.4784 43.2062C35.4784 43.0972 35.451 43.0073 35.3964 42.9364C35.3417 42.8656 35.2724 42.8213 35.1887 42.8036C35.127 42.7899 35.0031 42.7831 34.8169 42.7831H34.5674Z" fill="black"/>
<path d="M36.4313 45.2727V42.2762H36.9217V45.2727H36.4313Z" fill="black"/>
<path d="M37.7926 43.7643L37.3475 43.6702C37.3976 43.4604 37.4837 43.305 37.6058 43.2042C37.728 43.1034 37.9095 43.0529 38.1504 43.0529C38.3691 43.0529 38.532 43.0836 38.639 43.1449C38.7461 43.2049 38.8211 43.2819 38.8642 43.3759C38.9084 43.4686 38.9305 43.6396 38.9305 43.8889L38.9252 44.5594C38.9252 44.7502 38.9328 44.8912 38.9479 44.9825C38.9642 45.0724 38.9939 45.1692 39.0369 45.2727H38.5518C38.539 45.2346 38.5233 45.178 38.5046 45.1031C38.4965 45.069 38.4907 45.0465 38.4872 45.0356C38.4034 45.131 38.3138 45.2026 38.2184 45.2503C38.123 45.298 38.0212 45.3218 37.913 45.3218C37.7222 45.3218 37.5715 45.2612 37.461 45.1399C37.3516 45.0186 37.2969 44.8653 37.2969 44.68C37.2969 44.5573 37.3219 44.4483 37.372 44.3529C37.422 44.2562 37.4918 44.1826 37.5814 44.1322C37.6722 44.0804 37.8025 44.0354 37.9723 43.9973C38.2016 43.9469 38.3604 43.8998 38.4488 43.8562V43.799C38.4488 43.6886 38.4255 43.6103 38.379 43.5639C38.3324 43.5163 38.2446 43.4924 38.1155 43.4924C38.0282 43.4924 37.9601 43.5128 37.9113 43.5537C37.8624 43.5932 37.8228 43.6634 37.7926 43.7643ZM38.4488 44.2303C38.386 44.2548 38.2865 44.2841 38.1504 44.3182C38.0142 44.3523 37.9252 44.3856 37.8833 44.4183C37.8193 44.4715 37.7873 44.5389 37.7873 44.6207C37.7873 44.7011 37.8129 44.7706 37.8641 44.8292C37.9153 44.8878 37.9805 44.9171 38.0596 44.9171C38.148 44.9171 38.2324 44.883 38.3127 44.8149C38.372 44.7631 38.411 44.6997 38.4296 44.6248C38.4424 44.5757 38.4488 44.4824 38.4488 44.3448V44.2303Z" fill="black"/>
<path d="M39.2429 44.6534L39.735 44.5655C39.756 44.6773 39.7985 44.7624 39.8624 44.821C39.9264 44.8782 40.016 44.9069 40.1312 44.9069C40.258 44.9069 40.3534 44.8796 40.4174 44.8251C40.4605 44.787 40.482 44.7358 40.482 44.6718C40.482 44.6282 40.4704 44.5921 40.4471 44.5635C40.4227 44.5362 40.368 44.511 40.283 44.4878C39.8875 44.3856 39.6367 44.2923 39.5308 44.2078C39.3842 44.0906 39.3109 43.9278 39.3109 43.7193C39.3109 43.5312 39.3744 43.3732 39.5012 43.2451C39.628 43.117 39.8246 43.0529 40.0911 43.0529C40.3447 43.0529 40.5332 43.1013 40.6565 43.1981C40.7799 43.2948 40.8648 43.4379 40.9113 43.6273L40.4488 43.7275C40.4291 43.643 40.3913 43.5783 40.3354 43.5333C40.2807 43.4883 40.2022 43.4658 40.0998 43.4658C39.9706 43.4658 39.8782 43.487 39.8223 43.5292C39.7851 43.5592 39.7665 43.598 39.7665 43.6457C39.7665 43.6866 39.7827 43.7213 39.8153 43.75C39.8595 43.7881 40.012 43.8419 40.2726 43.9114C40.5344 43.9809 40.717 44.0661 40.8206 44.1669C40.923 44.2691 40.9742 44.4115 40.9742 44.5941C40.9742 44.7931 40.9032 44.9641 40.7612 45.1072C40.6193 45.2503 40.4093 45.3218 40.1312 45.3218C39.8787 45.3218 39.6786 45.2618 39.5308 45.1419C39.3842 45.022 39.2883 44.8592 39.2429 44.6534Z" fill="black"/>
<path d="M42.2552 43.102V43.5599H41.9201V44.4347C41.9201 44.6118 41.923 44.7154 41.9288 44.7454C41.9358 44.774 41.9503 44.7979 41.9724 44.8169C41.9957 44.836 42.0236 44.8455 42.0562 44.8455C42.1016 44.8455 42.1673 44.8271 42.2534 44.7904L42.2953 45.236C42.1813 45.2932 42.0521 45.3218 41.9079 45.3218C41.8194 45.3218 41.7397 45.3048 41.6688 45.2707C41.5978 45.2353 41.5454 45.1903 41.5117 45.1358C41.4791 45.0799 41.4564 45.005 41.4436 44.911C41.4332 44.8442 41.4279 44.7093 41.4279 44.5062V43.5599H41.2028V43.102H41.4279V42.6707L41.9201 42.3355V43.102H42.2552Z" fill="black"/>
<path d="M42.5955 42.8077V42.2762H43.0859V42.8077H42.5955ZM42.5955 45.2727V43.102H43.0859V45.2727H42.5955Z" fill="black"/>
<path d="M45.2064 43.7438L44.723 43.846C44.7067 43.7329 44.6694 43.6478 44.6113 43.5905C44.5542 43.5333 44.4798 43.5047 44.3879 43.5047C44.2657 43.5047 44.168 43.5544 44.0947 43.6539C44.0225 43.752 43.9865 43.9169 43.9865 44.1485C43.9865 44.4061 44.0231 44.588 44.0964 44.6943C44.1709 44.8006 44.2704 44.8537 44.3948 44.8537C44.4879 44.8537 44.5641 44.8231 44.6235 44.7617C44.6828 44.6991 44.7247 44.5921 44.7491 44.4408L45.2308 44.5369C45.1808 44.7958 45.0848 44.9914 44.9429 45.1235C44.8009 45.2557 44.6107 45.3218 44.3722 45.3218C44.1011 45.3218 43.8847 45.2216 43.7229 45.0213C43.5624 44.821 43.4821 44.5437 43.4821 44.1894C43.4821 43.831 43.5629 43.5524 43.7247 43.3534C43.8864 43.1531 44.1051 43.0529 44.3809 43.0529C44.6066 43.0529 44.7858 43.1102 44.9184 43.2246C45.0522 43.3377 45.1482 43.5108 45.2064 43.7438Z" fill="black"/>
</svg>
