<svg width="1200" height="190" viewBox="0 0 1200 190" fill="none" xmlns="http://www.w3.org/2000/svg">
<rect width="1200" height="190" rx="8" fill="url(#paint0_linear_7_2854)"/>
<circle cx="111.5" cy="95" r="46" fill="white" fill-opacity="0.2"/>
<path d="M111.5 91.1333C115.881 91.1333 119.433 87.6262 119.433 83.3C119.433 78.9738 115.881 75.4667 111.5 75.4667C107.119 75.4667 103.567 78.9738 103.567 83.3C103.567 87.6262 107.119 91.1333 111.5 91.1333Z" fill="white"/>
<path d="M99.4666 84.0834H100.267V83.3667C100.271 81.2827 100.859 79.2417 101.964 77.4744C103.068 75.7072 104.645 74.2843 106.517 73.3667C105.963 72.091 105.074 70.9891 103.944 70.1781C102.814 69.3671 101.485 68.8773 100.099 68.7606C98.7135 68.644 97.3219 68.9049 96.0724 69.5157C94.8229 70.1264 93.7621 71.0642 93.0027 72.2294C92.2433 73.3946 91.8138 74.7437 91.7596 76.1335C91.7054 77.5232 92.0286 78.9017 92.6949 80.1225C93.3612 81.3433 94.3457 82.3608 95.5439 83.067C96.7421 83.7732 98.1092 84.1417 99.5 84.1334L99.4666 84.0834ZM122.767 83.3V84.0167H123.567C124.939 84.0029 126.282 83.6195 127.455 82.9067C128.627 82.1939 129.586 81.1782 130.23 79.9664C130.874 78.7546 131.18 77.3916 131.115 76.0208C131.049 74.65 130.616 73.3222 129.86 72.1771C129.103 71.0319 128.052 70.1119 126.817 69.5137C125.582 68.9156 124.209 68.6614 122.841 68.7781C121.474 68.8947 120.163 69.3778 119.047 70.1765C117.931 70.9752 117.051 72.06 116.5 73.3167C118.372 74.2307 119.95 75.65 121.058 77.4142C122.165 79.1784 122.757 81.2171 122.767 83.3ZM118.65 91.9167C121.964 92.5726 125.168 93.6949 128.167 95.2501C128.589 95.4821 128.972 95.7803 129.3 96.1334H138.167V90.4334C138.168 90.2148 138.11 89.9999 137.998 89.8119C137.887 89.6239 137.726 89.47 137.533 89.3667C133.214 87.1073 128.408 85.9345 123.533 85.9501H122.433C121.856 88.2979 120.527 90.393 118.65 91.9167ZM92.3833 99.3667C92.3802 98.5273 92.6069 97.7031 93.0388 96.9834C93.4706 96.2636 94.0912 95.6757 94.8333 95.2834C97.8321 93.7282 101.036 92.606 104.35 91.95C102.482 90.4393 101.154 88.3631 100.567 86.0334H99.4666C94.5917 86.0179 89.7864 87.1906 85.4666 89.4501C85.2739 89.5533 85.113 89.7072 85.0014 89.8952C84.8898 90.0832 84.8317 90.2981 84.8333 90.5167V101.167H92.3833V99.3667ZM117.267 108.983H127.2V111.317H117.267V108.983Z" fill="white"/>
<path d="M136.183 99.9334H124.733V98.2667C124.733 97.8247 124.558 97.4007 124.245 97.0882C123.933 96.7756 123.509 96.6 123.067 96.6C122.625 96.6 122.201 96.7756 121.888 97.0882C121.576 97.4007 121.4 97.8247 121.4 98.2667V99.9334H118.167V95.2167C115.974 94.7562 113.74 94.5162 111.5 94.5C106.24 94.4781 101.054 95.7487 96.3999 98.2C96.1926 98.3076 96.0191 98.4704 95.8985 98.6704C95.7779 98.8704 95.7149 99.0998 95.7166 99.3334V108.683H107.567V118.833C107.567 119.275 107.742 119.699 108.055 120.012C108.367 120.324 108.791 120.5 109.233 120.5H136.183C136.625 120.5 137.049 120.324 137.362 120.012C137.674 119.699 137.85 119.275 137.85 118.833V101.6C137.85 101.158 137.674 100.734 137.362 100.422C137.049 100.109 136.625 99.9334 136.183 99.9334ZM134.517 117.2H110.9V103.267H121.4V104.783C121.4 105.225 121.576 105.649 121.888 105.962C122.201 106.274 122.625 106.45 123.067 106.45C123.509 106.45 123.933 106.274 124.245 105.962C124.558 105.649 124.733 105.225 124.733 104.783V103.267H134.517V117.2Z" fill="white"/>
<path d="M202.906 84.6055V89H183.453V85.25L192.652 75.3867C193.577 74.3581 194.306 73.4531 194.84 72.6719C195.374 71.8776 195.758 71.168 195.992 70.543C196.24 69.9049 196.363 69.2995 196.363 68.7266C196.363 67.8672 196.22 67.1315 195.934 66.5195C195.647 65.8945 195.224 65.4128 194.664 65.0742C194.117 64.7357 193.44 64.5664 192.633 64.5664C191.773 64.5664 191.031 64.7747 190.406 65.1914C189.794 65.6081 189.326 66.1875 189 66.9297C188.688 67.6719 188.531 68.5117 188.531 69.4492H182.887C182.887 67.7565 183.29 66.207 184.098 64.8008C184.905 63.3815 186.044 62.2552 187.516 61.4219C188.987 60.5755 190.732 60.1523 192.75 60.1523C194.742 60.1523 196.422 60.4779 197.789 61.1289C199.169 61.7669 200.211 62.6914 200.914 63.9023C201.63 65.1003 201.988 66.5326 201.988 68.1992C201.988 69.1367 201.839 70.0547 201.539 70.9531C201.24 71.8385 200.81 72.724 200.25 73.6094C199.703 74.4818 199.039 75.3672 198.258 76.2656C197.477 77.1641 196.611 78.0951 195.66 79.0586L190.719 84.6055H202.906ZM225.562 72.2812V77.2031C225.562 79.3385 225.335 81.181 224.879 82.7305C224.423 84.2669 223.766 85.5299 222.906 86.5195C222.06 87.4961 221.051 88.2188 219.879 88.6875C218.707 89.1562 217.405 89.3906 215.973 89.3906C214.827 89.3906 213.759 89.2474 212.77 88.9609C211.78 88.6615 210.888 88.1992 210.094 87.5742C209.312 86.9492 208.635 86.1615 208.062 85.2109C207.503 84.2474 207.073 83.1016 206.773 81.7734C206.474 80.4453 206.324 78.9219 206.324 77.2031V72.2812C206.324 70.1458 206.552 68.3164 207.008 66.793C207.477 65.2565 208.134 64 208.98 63.0234C209.84 62.0469 210.855 61.3307 212.027 60.875C213.199 60.4062 214.501 60.1719 215.934 60.1719C217.079 60.1719 218.141 60.3216 219.117 60.6211C220.107 60.9076 220.999 61.3568 221.793 61.9688C222.587 62.5807 223.264 63.3685 223.824 64.332C224.384 65.2826 224.814 66.4219 225.113 67.75C225.413 69.0651 225.562 70.5755 225.562 72.2812ZM219.918 77.9453V71.5195C219.918 70.4909 219.859 69.5924 219.742 68.8242C219.638 68.056 219.475 67.4049 219.254 66.8711C219.033 66.3242 218.759 65.8815 218.434 65.543C218.108 65.2044 217.737 64.957 217.32 64.8008C216.904 64.6445 216.441 64.5664 215.934 64.5664C215.296 64.5664 214.729 64.6901 214.234 64.9375C213.753 65.1849 213.342 65.582 213.004 66.1289C212.665 66.6628 212.405 67.3789 212.223 68.2773C212.053 69.1628 211.969 70.2435 211.969 71.5195V77.9453C211.969 78.974 212.021 79.8789 212.125 80.6602C212.242 81.4414 212.411 82.112 212.633 82.6719C212.867 83.2188 213.141 83.668 213.453 84.0195C213.779 84.3581 214.15 84.6055 214.566 84.7617C214.996 84.918 215.465 84.9961 215.973 84.9961C216.598 84.9961 217.151 84.8724 217.633 84.625C218.128 84.3646 218.544 83.9609 218.883 83.4141C219.234 82.8542 219.495 82.125 219.664 81.2266C219.833 80.3281 219.918 79.2344 219.918 77.9453ZM248.531 72.2812V77.2031C248.531 79.3385 248.303 81.181 247.848 82.7305C247.392 84.2669 246.734 85.5299 245.875 86.5195C245.029 87.4961 244.02 88.2188 242.848 88.6875C241.676 89.1562 240.374 89.3906 238.941 89.3906C237.796 89.3906 236.728 89.2474 235.738 88.9609C234.749 88.6615 233.857 88.1992 233.062 87.5742C232.281 86.9492 231.604 86.1615 231.031 85.2109C230.471 84.2474 230.042 83.1016 229.742 81.7734C229.443 80.4453 229.293 78.9219 229.293 77.2031V72.2812C229.293 70.1458 229.521 68.3164 229.977 66.793C230.445 65.2565 231.103 64 231.949 63.0234C232.809 62.0469 233.824 61.3307 234.996 60.875C236.168 60.4062 237.47 60.1719 238.902 60.1719C240.048 60.1719 241.109 60.3216 242.086 60.6211C243.076 60.9076 243.967 61.3568 244.762 61.9688C245.556 62.5807 246.233 63.3685 246.793 64.332C247.353 65.2826 247.783 66.4219 248.082 67.75C248.382 69.0651 248.531 70.5755 248.531 72.2812ZM242.887 77.9453V71.5195C242.887 70.4909 242.828 69.5924 242.711 68.8242C242.607 68.056 242.444 67.4049 242.223 66.8711C242.001 66.3242 241.728 65.8815 241.402 65.543C241.077 65.2044 240.706 64.957 240.289 64.8008C239.872 64.6445 239.41 64.5664 238.902 64.5664C238.264 64.5664 237.698 64.6901 237.203 64.9375C236.721 65.1849 236.311 65.582 235.973 66.1289C235.634 66.6628 235.374 67.3789 235.191 68.2773C235.022 69.1628 234.938 70.2435 234.938 71.5195V77.9453C234.938 78.974 234.99 79.8789 235.094 80.6602C235.211 81.4414 235.38 82.112 235.602 82.6719C235.836 83.2188 236.109 83.668 236.422 84.0195C236.747 84.3581 237.118 84.6055 237.535 84.7617C237.965 84.918 238.434 84.9961 238.941 84.9961C239.566 84.9961 240.12 84.8724 240.602 84.625C241.096 84.3646 241.513 83.9609 241.852 83.4141C242.203 82.8542 242.464 82.125 242.633 81.2266C242.802 80.3281 242.887 79.2344 242.887 77.9453ZM271.5 72.2812V77.2031C271.5 79.3385 271.272 81.181 270.816 82.7305C270.361 84.2669 269.703 85.5299 268.844 86.5195C267.997 87.4961 266.988 88.2188 265.816 88.6875C264.645 89.1562 263.342 89.3906 261.91 89.3906C260.764 89.3906 259.697 89.2474 258.707 88.9609C257.717 88.6615 256.826 88.1992 256.031 87.5742C255.25 86.9492 254.573 86.1615 254 85.2109C253.44 84.2474 253.01 83.1016 252.711 81.7734C252.411 80.4453 252.262 78.9219 252.262 77.2031V72.2812C252.262 70.1458 252.49 68.3164 252.945 66.793C253.414 65.2565 254.072 64 254.918 63.0234C255.777 62.0469 256.793 61.3307 257.965 60.875C259.137 60.4062 260.439 60.1719 261.871 60.1719C263.017 60.1719 264.078 60.3216 265.055 60.6211C266.044 60.9076 266.936 61.3568 267.73 61.9688C268.525 62.5807 269.202 63.3685 269.762 64.332C270.322 65.2826 270.751 66.4219 271.051 67.75C271.35 69.0651 271.5 70.5755 271.5 72.2812ZM265.855 77.9453V71.5195C265.855 70.4909 265.797 69.5924 265.68 68.8242C265.576 68.056 265.413 67.4049 265.191 66.8711C264.97 66.3242 264.697 65.8815 264.371 65.543C264.046 65.2044 263.674 64.957 263.258 64.8008C262.841 64.6445 262.379 64.5664 261.871 64.5664C261.233 64.5664 260.667 64.6901 260.172 64.9375C259.69 65.1849 259.28 65.582 258.941 66.1289C258.603 66.6628 258.342 67.3789 258.16 68.2773C257.991 69.1628 257.906 70.2435 257.906 71.5195V77.9453C257.906 78.974 257.958 79.8789 258.062 80.6602C258.18 81.4414 258.349 82.112 258.57 82.6719C258.805 83.2188 259.078 83.668 259.391 84.0195C259.716 84.3581 260.087 84.6055 260.504 84.7617C260.934 84.918 261.402 84.9961 261.91 84.9961C262.535 84.9961 263.089 84.8724 263.57 84.625C264.065 84.3646 264.482 83.9609 264.82 83.4141C265.172 82.8542 265.432 82.125 265.602 81.2266C265.771 80.3281 265.855 79.2344 265.855 77.9453ZM293.961 73.1602V78.0625H274.469V73.1602H293.961ZM286.891 65.4453V86.1484H281.559V65.4453H286.891Z" fill="white"/>
<path d="M185.699 115.781V130H182.77V115.781H185.699ZM194.215 115.781L188.58 122.803L185.328 126.299L184.801 123.525L186.998 120.518L190.621 115.781H194.215ZM190.885 130L186.695 123.428L188.863 121.611L194.352 130H190.885ZM198.053 115V130H195.24V115H198.053ZM197.652 124.346H196.881C196.887 123.61 196.985 122.933 197.174 122.314C197.363 121.689 197.633 121.149 197.984 120.693C198.336 120.231 198.756 119.873 199.244 119.619C199.739 119.365 200.286 119.238 200.885 119.238C201.406 119.238 201.878 119.313 202.301 119.463C202.73 119.606 203.098 119.84 203.404 120.166C203.717 120.485 203.958 120.905 204.127 121.426C204.296 121.947 204.381 122.578 204.381 123.32V130H201.549V123.301C201.549 122.832 201.48 122.464 201.344 122.197C201.214 121.924 201.021 121.732 200.768 121.621C200.52 121.504 200.214 121.445 199.85 121.445C199.446 121.445 199.101 121.52 198.814 121.67C198.535 121.82 198.31 122.028 198.141 122.295C197.971 122.555 197.848 122.861 197.77 123.213C197.691 123.564 197.652 123.942 197.652 124.346ZM212.223 127.617V122.91C212.223 122.572 212.167 122.282 212.057 122.041C211.946 121.794 211.773 121.602 211.539 121.465C211.311 121.328 211.015 121.26 210.65 121.26C210.338 121.26 210.068 121.315 209.84 121.426C209.612 121.53 209.436 121.683 209.312 121.885C209.189 122.08 209.127 122.311 209.127 122.578H206.314C206.314 122.129 206.419 121.702 206.627 121.299C206.835 120.895 207.138 120.54 207.535 120.234C207.932 119.922 208.404 119.678 208.951 119.502C209.505 119.326 210.123 119.238 210.807 119.238C211.627 119.238 212.356 119.375 212.994 119.648C213.632 119.922 214.133 120.332 214.498 120.879C214.869 121.426 215.055 122.109 215.055 122.93V127.451C215.055 128.031 215.09 128.506 215.162 128.877C215.234 129.242 215.338 129.561 215.475 129.834V130H212.633C212.496 129.714 212.392 129.355 212.32 128.926C212.255 128.49 212.223 128.053 212.223 127.617ZM212.594 123.564L212.613 125.156H211.041C210.67 125.156 210.348 125.199 210.074 125.283C209.801 125.368 209.576 125.488 209.4 125.645C209.225 125.794 209.094 125.97 209.01 126.172C208.932 126.374 208.893 126.595 208.893 126.836C208.893 127.077 208.948 127.295 209.059 127.49C209.169 127.679 209.329 127.829 209.537 127.939C209.745 128.044 209.99 128.096 210.27 128.096C210.693 128.096 211.061 128.011 211.373 127.842C211.686 127.673 211.926 127.464 212.096 127.217C212.271 126.969 212.363 126.735 212.369 126.514L213.111 127.705C213.007 127.972 212.864 128.249 212.682 128.535C212.506 128.822 212.281 129.092 212.008 129.346C211.734 129.593 211.406 129.798 211.021 129.961C210.637 130.117 210.182 130.195 209.654 130.195C208.984 130.195 208.375 130.062 207.828 129.795C207.288 129.521 206.858 129.147 206.539 128.672C206.227 128.19 206.07 127.643 206.07 127.031C206.07 126.478 206.174 125.986 206.383 125.557C206.591 125.127 206.897 124.766 207.301 124.473C207.711 124.173 208.222 123.949 208.834 123.799C209.446 123.643 210.156 123.564 210.963 123.564H212.594ZM209.459 118.008L211.373 115H214.43L211.744 118.008H209.459ZM221.588 127.998C221.933 127.998 222.239 127.933 222.506 127.803C222.773 127.666 222.981 127.477 223.131 127.236C223.287 126.989 223.368 126.699 223.375 126.367H226.021C226.015 127.109 225.816 127.77 225.426 128.35C225.035 128.923 224.511 129.375 223.854 129.707C223.196 130.033 222.46 130.195 221.646 130.195C220.826 130.195 220.11 130.059 219.498 129.785C218.893 129.512 218.388 129.134 217.984 128.652C217.581 128.164 217.278 127.598 217.076 126.953C216.874 126.302 216.773 125.605 216.773 124.863V124.58C216.773 123.831 216.874 123.135 217.076 122.49C217.278 121.839 217.581 121.273 217.984 120.791C218.388 120.303 218.893 119.922 219.498 119.648C220.104 119.375 220.813 119.238 221.627 119.238C222.493 119.238 223.251 119.404 223.902 119.736C224.56 120.068 225.074 120.544 225.445 121.162C225.823 121.774 226.015 122.5 226.021 123.34H223.375C223.368 122.988 223.294 122.669 223.15 122.383C223.014 122.096 222.812 121.868 222.545 121.699C222.285 121.523 221.962 121.436 221.578 121.436C221.168 121.436 220.833 121.523 220.572 121.699C220.312 121.868 220.11 122.103 219.967 122.402C219.824 122.695 219.723 123.031 219.664 123.408C219.612 123.779 219.586 124.17 219.586 124.58V124.863C219.586 125.273 219.612 125.667 219.664 126.045C219.716 126.423 219.814 126.758 219.957 127.051C220.107 127.344 220.312 127.575 220.572 127.744C220.833 127.913 221.171 127.998 221.588 127.998ZM230.396 115V130H227.584V115H230.396ZM229.996 124.346H229.225C229.231 123.61 229.329 122.933 229.518 122.314C229.706 121.689 229.977 121.149 230.328 120.693C230.68 120.231 231.1 119.873 231.588 119.619C232.083 119.365 232.63 119.238 233.229 119.238C233.749 119.238 234.221 119.313 234.645 119.463C235.074 119.606 235.442 119.84 235.748 120.166C236.061 120.485 236.301 120.905 236.471 121.426C236.64 121.947 236.725 122.578 236.725 123.32V130H233.893V123.301C233.893 122.832 233.824 122.464 233.688 122.197C233.557 121.924 233.365 121.732 233.111 121.621C232.864 121.504 232.558 121.445 232.193 121.445C231.79 121.445 231.445 121.52 231.158 121.67C230.878 121.82 230.654 122.028 230.484 122.295C230.315 122.555 230.191 122.861 230.113 123.213C230.035 123.564 229.996 123.942 229.996 124.346ZM246.588 115V130H243.775V115H246.588ZM246.188 124.346H245.416C245.423 123.61 245.52 122.933 245.709 122.314C245.898 121.689 246.168 121.149 246.52 120.693C246.871 120.231 247.291 119.873 247.779 119.619C248.274 119.365 248.821 119.238 249.42 119.238C249.941 119.238 250.413 119.313 250.836 119.463C251.266 119.606 251.633 119.84 251.939 120.166C252.252 120.485 252.493 120.905 252.662 121.426C252.831 121.947 252.916 122.578 252.916 123.32V130H250.084V123.301C250.084 122.832 250.016 122.464 249.879 122.197C249.749 121.924 249.557 121.732 249.303 121.621C249.055 121.504 248.749 121.445 248.385 121.445C247.981 121.445 247.636 121.52 247.35 121.67C247.07 121.82 246.845 122.028 246.676 122.295C246.507 122.555 246.383 122.861 246.305 123.213C246.227 123.564 246.188 123.942 246.188 124.346ZM260.758 127.617V122.91C260.758 122.572 260.702 122.282 260.592 122.041C260.481 121.794 260.309 121.602 260.074 121.465C259.846 121.328 259.55 121.26 259.186 121.26C258.873 121.26 258.603 121.315 258.375 121.426C258.147 121.53 257.971 121.683 257.848 121.885C257.724 122.08 257.662 122.311 257.662 122.578H254.85C254.85 122.129 254.954 121.702 255.162 121.299C255.37 120.895 255.673 120.54 256.07 120.234C256.467 119.922 256.939 119.678 257.486 119.502C258.04 119.326 258.658 119.238 259.342 119.238C260.162 119.238 260.891 119.375 261.529 119.648C262.167 119.922 262.669 120.332 263.033 120.879C263.404 121.426 263.59 122.109 263.59 122.93V127.451C263.59 128.031 263.626 128.506 263.697 128.877C263.769 129.242 263.873 129.561 264.01 129.834V130H261.168C261.031 129.714 260.927 129.355 260.855 128.926C260.79 128.49 260.758 128.053 260.758 127.617ZM261.129 123.564L261.148 125.156H259.576C259.205 125.156 258.883 125.199 258.609 125.283C258.336 125.368 258.111 125.488 257.936 125.645C257.76 125.794 257.63 125.97 257.545 126.172C257.467 126.374 257.428 126.595 257.428 126.836C257.428 127.077 257.483 127.295 257.594 127.49C257.704 127.679 257.864 127.829 258.072 127.939C258.281 128.044 258.525 128.096 258.805 128.096C259.228 128.096 259.596 128.011 259.908 127.842C260.221 127.673 260.462 127.464 260.631 127.217C260.807 126.969 260.898 126.735 260.904 126.514L261.646 127.705C261.542 127.972 261.399 128.249 261.217 128.535C261.041 128.822 260.816 129.092 260.543 129.346C260.27 129.593 259.941 129.798 259.557 129.961C259.173 130.117 258.717 130.195 258.189 130.195C257.519 130.195 256.91 130.062 256.363 129.795C255.823 129.521 255.393 129.147 255.074 128.672C254.762 128.19 254.605 127.643 254.605 127.031C254.605 126.478 254.71 125.986 254.918 125.557C255.126 125.127 255.432 124.766 255.836 124.473C256.246 124.173 256.757 123.949 257.369 123.799C257.981 123.643 258.691 123.564 259.498 123.564H261.129ZM258.795 115L260.719 118.008H258.414L255.738 115H258.795ZM268.512 121.689V130H265.699V119.434H268.336L268.512 121.689ZM268.102 124.346H267.34C267.34 123.564 267.441 122.861 267.643 122.236C267.844 121.605 268.128 121.068 268.492 120.625C268.857 120.176 269.29 119.834 269.791 119.6C270.299 119.359 270.865 119.238 271.49 119.238C271.985 119.238 272.438 119.31 272.848 119.453C273.258 119.596 273.609 119.824 273.902 120.137C274.202 120.449 274.43 120.863 274.586 121.377C274.749 121.891 274.83 122.52 274.83 123.262V130H271.998V123.252C271.998 122.783 271.933 122.419 271.803 122.158C271.673 121.898 271.48 121.715 271.227 121.611C270.979 121.501 270.673 121.445 270.309 121.445C269.931 121.445 269.602 121.52 269.322 121.67C269.049 121.82 268.821 122.028 268.639 122.295C268.463 122.555 268.329 122.861 268.238 123.213C268.147 123.564 268.102 123.942 268.102 124.346ZM283.658 119.434H286.207V129.648C286.207 130.612 285.992 131.429 285.562 132.1C285.139 132.777 284.547 133.288 283.785 133.633C283.023 133.984 282.138 134.16 281.129 134.16C280.686 134.16 280.217 134.102 279.723 133.984C279.234 133.867 278.766 133.685 278.316 133.438C277.874 133.19 277.503 132.878 277.203 132.5L278.443 130.84C278.769 131.217 279.146 131.51 279.576 131.719C280.006 131.934 280.481 132.041 281.002 132.041C281.51 132.041 281.939 131.947 282.291 131.758C282.643 131.576 282.913 131.305 283.102 130.947C283.29 130.596 283.385 130.169 283.385 129.668V121.875L283.658 119.434ZM276.549 124.844V124.639C276.549 123.831 276.646 123.099 276.842 122.441C277.044 121.777 277.327 121.208 277.691 120.732C278.062 120.257 278.512 119.889 279.039 119.629C279.566 119.368 280.162 119.238 280.826 119.238C281.529 119.238 282.118 119.368 282.594 119.629C283.069 119.889 283.46 120.26 283.766 120.742C284.072 121.217 284.309 121.781 284.479 122.432C284.654 123.076 284.791 123.783 284.889 124.551V125C284.791 125.736 284.645 126.419 284.449 127.051C284.254 127.682 283.997 128.236 283.678 128.711C283.359 129.18 282.962 129.544 282.486 129.805C282.018 130.065 281.458 130.195 280.807 130.195C280.156 130.195 279.566 130.062 279.039 129.795C278.518 129.528 278.072 129.154 277.701 128.672C277.33 128.19 277.044 127.624 276.842 126.973C276.646 126.322 276.549 125.612 276.549 124.844ZM279.361 124.639V124.844C279.361 125.28 279.404 125.687 279.488 126.064C279.573 126.442 279.703 126.777 279.879 127.07C280.061 127.357 280.286 127.581 280.553 127.744C280.826 127.9 281.148 127.979 281.52 127.979C282.034 127.979 282.454 127.871 282.779 127.656C283.105 127.435 283.349 127.132 283.512 126.748C283.674 126.364 283.769 125.921 283.795 125.42V124.141C283.782 123.73 283.727 123.363 283.629 123.037C283.531 122.705 283.395 122.422 283.219 122.188C283.043 121.953 282.815 121.771 282.535 121.641C282.255 121.51 281.923 121.445 281.539 121.445C281.168 121.445 280.846 121.53 280.572 121.699C280.305 121.862 280.081 122.087 279.898 122.373C279.723 122.66 279.589 122.998 279.498 123.389C279.407 123.773 279.361 124.189 279.361 124.639Z" fill="white"/>
<line x1="396.5" y1="-2.18557e-08" x2="396.5" y2="190" stroke="#D9D9D9" stroke-dasharray="8 8"/>
<circle cx="519.5" cy="95" r="46" fill="white" fill-opacity="0.2"/>
<path d="M538.675 82.9906L534.213 78.5281C533.225 77.5492 531.891 77 530.5 77H509.237C507.85 77 506.509 77.5531 505.525 78.5281L501.062 82.9906H490V106.963H496C497.65 106.963 498.981 105.631 498.991 103.991H499.844L507.775 111.153C510.672 113.506 514.694 113.562 517.675 111.509C518.847 112.522 520.112 113 521.528 113C523.234 113 524.838 112.306 526.103 110.75C528.175 111.566 530.622 110.994 532.103 109.175L534.559 106.147C535.084 105.5 535.413 104.759 535.581 103.991H541.009C541.019 105.631 542.359 106.963 544 106.963H550V82.9906H538.675ZM494.5 103.963C493.675 103.963 493 103.288 493 102.463C493 101.638 493.675 100.963 494.5 100.963C495.325 100.963 496 101.638 496 102.463C496 103.297 495.325 103.963 494.5 103.963ZM531.062 103.316L528.616 106.334C528.353 106.653 527.884 106.709 527.556 106.447L525.316 104.628L522.503 108.05C521.941 108.734 521.097 108.5 520.816 108.275L517.366 105.322L515.903 107.122C514.6 108.725 512.228 108.969 510.719 107.741L501.597 99.4906H499V87.4813H502.928L508.713 81.7062C508.9 81.6312 509.059 81.5656 509.247 81.4906H514.562L510.934 84.8187C508.178 87.3406 508.019 91.5969 510.522 94.3156C511.909 95.8344 516.259 98.1781 520.037 94.7281L520.806 94.025L530.95 102.256C531.269 102.519 531.316 102.997 531.062 103.316ZM541 99.4906H534.512C534.297 99.2281 534.053 98.9844 533.791 98.7688L524.162 90.95L525.334 89.8812C525.944 89.3187 525.991 88.3719 525.428 87.7625L524.406 86.6656C523.844 86.0563 522.897 86.0188 522.287 86.5719L517.113 91.3156C516.222 92.1312 514.703 92.1969 513.869 91.3156C512.997 90.3875 513.072 88.9625 513.981 88.1375L520.131 82.5031C520.825 81.8656 521.725 81.5187 522.662 81.5187L530.509 81.5C530.706 81.5 530.894 81.575 531.025 81.7156L536.809 87.4906H541V99.4906ZM545.5 103.963C544.675 103.963 544 103.288 544 102.463C544 101.638 544.675 100.963 545.5 100.963C546.325 100.963 547 101.638 547 102.463C547 103.297 546.325 103.963 545.5 103.963Z" fill="white"/>
<path d="M605.164 60.5039V89H599.539V66.9883L592.781 69.1367V64.7031L604.559 60.5039H605.164ZM633.562 72.2812V77.2031C633.562 79.3385 633.335 81.181 632.879 82.7305C632.423 84.2669 631.766 85.5299 630.906 86.5195C630.06 87.4961 629.051 88.2188 627.879 88.6875C626.707 89.1562 625.405 89.3906 623.973 89.3906C622.827 89.3906 621.759 89.2474 620.77 88.9609C619.78 88.6615 618.888 88.1992 618.094 87.5742C617.312 86.9492 616.635 86.1615 616.062 85.2109C615.503 84.2474 615.073 83.1016 614.773 81.7734C614.474 80.4453 614.324 78.9219 614.324 77.2031V72.2812C614.324 70.1458 614.552 68.3164 615.008 66.793C615.477 65.2565 616.134 64 616.98 63.0234C617.84 62.0469 618.855 61.3307 620.027 60.875C621.199 60.4062 622.501 60.1719 623.934 60.1719C625.079 60.1719 626.141 60.3216 627.117 60.6211C628.107 60.9076 628.999 61.3568 629.793 61.9688C630.587 62.5807 631.264 63.3685 631.824 64.332C632.384 65.2826 632.814 66.4219 633.113 67.75C633.413 69.0651 633.562 70.5755 633.562 72.2812ZM627.918 77.9453V71.5195C627.918 70.4909 627.859 69.5924 627.742 68.8242C627.638 68.056 627.475 67.4049 627.254 66.8711C627.033 66.3242 626.759 65.8815 626.434 65.543C626.108 65.2044 625.737 64.957 625.32 64.8008C624.904 64.6445 624.441 64.5664 623.934 64.5664C623.296 64.5664 622.729 64.6901 622.234 64.9375C621.753 65.1849 621.342 65.582 621.004 66.1289C620.665 66.6628 620.405 67.3789 620.223 68.2773C620.053 69.1628 619.969 70.2435 619.969 71.5195V77.9453C619.969 78.974 620.021 79.8789 620.125 80.6602C620.242 81.4414 620.411 82.112 620.633 82.6719C620.867 83.2188 621.141 83.668 621.453 84.0195C621.779 84.3581 622.15 84.6055 622.566 84.7617C622.996 84.918 623.465 84.9961 623.973 84.9961C624.598 84.9961 625.151 84.8724 625.633 84.625C626.128 84.3646 626.544 83.9609 626.883 83.4141C627.234 82.8542 627.495 82.125 627.664 81.2266C627.833 80.3281 627.918 79.2344 627.918 77.9453ZM656.531 72.2812V77.2031C656.531 79.3385 656.303 81.181 655.848 82.7305C655.392 84.2669 654.734 85.5299 653.875 86.5195C653.029 87.4961 652.02 88.2188 650.848 88.6875C649.676 89.1562 648.374 89.3906 646.941 89.3906C645.796 89.3906 644.728 89.2474 643.738 88.9609C642.749 88.6615 641.857 88.1992 641.062 87.5742C640.281 86.9492 639.604 86.1615 639.031 85.2109C638.471 84.2474 638.042 83.1016 637.742 81.7734C637.443 80.4453 637.293 78.9219 637.293 77.2031V72.2812C637.293 70.1458 637.521 68.3164 637.977 66.793C638.445 65.2565 639.103 64 639.949 63.0234C640.809 62.0469 641.824 61.3307 642.996 60.875C644.168 60.4062 645.47 60.1719 646.902 60.1719C648.048 60.1719 649.109 60.3216 650.086 60.6211C651.076 60.9076 651.967 61.3568 652.762 61.9688C653.556 62.5807 654.233 63.3685 654.793 64.332C655.353 65.2826 655.783 66.4219 656.082 67.75C656.382 69.0651 656.531 70.5755 656.531 72.2812ZM650.887 77.9453V71.5195C650.887 70.4909 650.828 69.5924 650.711 68.8242C650.607 68.056 650.444 67.4049 650.223 66.8711C650.001 66.3242 649.728 65.8815 649.402 65.543C649.077 65.2044 648.706 64.957 648.289 64.8008C647.872 64.6445 647.41 64.5664 646.902 64.5664C646.264 64.5664 645.698 64.6901 645.203 64.9375C644.721 65.1849 644.311 65.582 643.973 66.1289C643.634 66.6628 643.374 67.3789 643.191 68.2773C643.022 69.1628 642.938 70.2435 642.938 71.5195V77.9453C642.938 78.974 642.99 79.8789 643.094 80.6602C643.211 81.4414 643.38 82.112 643.602 82.6719C643.836 83.2188 644.109 83.668 644.422 84.0195C644.747 84.3581 645.118 84.6055 645.535 84.7617C645.965 84.918 646.434 84.9961 646.941 84.9961C647.566 84.9961 648.12 84.8724 648.602 84.625C649.096 84.3646 649.513 83.9609 649.852 83.4141C650.203 82.8542 650.464 82.125 650.633 81.2266C650.802 80.3281 650.887 79.2344 650.887 77.9453ZM678.992 73.1602V78.0625H659.5V73.1602H678.992ZM671.922 65.4453V86.1484H666.59V65.4453H671.922Z" fill="white"/>
<path d="M595.428 130H592.332L592.352 127.715H595.428C596.196 127.715 596.844 127.542 597.371 127.197C597.898 126.846 598.296 126.335 598.562 125.664C598.836 124.993 598.973 124.183 598.973 123.232V122.539C598.973 121.81 598.895 121.169 598.738 120.615C598.589 120.062 598.364 119.596 598.064 119.219C597.765 118.841 597.397 118.558 596.961 118.369C596.525 118.174 596.023 118.076 595.457 118.076H592.273V115.781H595.457C596.408 115.781 597.277 115.944 598.064 116.27C598.859 116.589 599.546 117.048 600.125 117.646C600.704 118.245 601.15 118.962 601.463 119.795C601.782 120.622 601.941 121.543 601.941 122.559V123.232C601.941 124.242 601.782 125.163 601.463 125.996C601.15 126.829 600.704 127.546 600.125 128.145C599.552 128.737 598.865 129.196 598.064 129.521C597.27 129.84 596.391 130 595.428 130ZM593.992 115.781V130H591.062V115.781H593.992ZM596.453 121.963V123.701H589.607V121.963H596.453ZM603.445 124.824V124.619C603.445 123.844 603.556 123.132 603.777 122.48C603.999 121.823 604.321 121.253 604.744 120.771C605.167 120.29 605.688 119.915 606.307 119.648C606.925 119.375 607.635 119.238 608.436 119.238C609.236 119.238 609.949 119.375 610.574 119.648C611.199 119.915 611.723 120.29 612.146 120.771C612.576 121.253 612.902 121.823 613.123 122.48C613.344 123.132 613.455 123.844 613.455 124.619V124.824C613.455 125.592 613.344 126.305 613.123 126.963C612.902 127.614 612.576 128.184 612.146 128.672C611.723 129.154 611.202 129.528 610.584 129.795C609.965 130.062 609.256 130.195 608.455 130.195C607.654 130.195 606.941 130.062 606.316 129.795C605.698 129.528 605.174 129.154 604.744 128.672C604.321 128.184 603.999 127.614 603.777 126.963C603.556 126.305 603.445 125.592 603.445 124.824ZM606.258 124.619V124.824C606.258 125.267 606.297 125.68 606.375 126.064C606.453 126.449 606.577 126.787 606.746 127.08C606.922 127.367 607.15 127.591 607.43 127.754C607.71 127.917 608.051 127.998 608.455 127.998C608.846 127.998 609.181 127.917 609.461 127.754C609.741 127.591 609.965 127.367 610.135 127.08C610.304 126.787 610.428 126.449 610.506 126.064C610.59 125.68 610.633 125.267 610.633 124.824V124.619C610.633 124.189 610.59 123.786 610.506 123.408C610.428 123.024 610.301 122.686 610.125 122.393C609.956 122.093 609.731 121.859 609.451 121.689C609.171 121.52 608.833 121.436 608.436 121.436C608.038 121.436 607.7 121.52 607.42 121.689C607.146 121.859 606.922 122.093 606.746 122.393C606.577 122.686 606.453 123.024 606.375 123.408C606.297 123.786 606.258 124.189 606.258 124.619ZM604.852 118.027L607.615 115.762H609.178L611.951 118.027H609.881L608.396 116.768L606.912 118.027H604.852ZM611.238 116.689L612.84 114.062H615.057L612.84 116.689H611.238ZM618.152 119.434V130H615.33V119.434H618.152ZM615.154 116.68C615.154 116.27 615.298 115.931 615.584 115.664C615.87 115.397 616.255 115.264 616.736 115.264C617.212 115.264 617.592 115.397 617.879 115.664C618.172 115.931 618.318 116.27 618.318 116.68C618.318 117.09 618.172 117.428 617.879 117.695C617.592 117.962 617.212 118.096 616.736 118.096C616.255 118.096 615.87 117.962 615.584 117.695C615.298 117.428 615.154 117.09 615.154 116.68ZM630.633 119.434V121.426H624.48V119.434H630.633ZM626.004 116.826H628.816V126.816C628.816 127.122 628.855 127.357 628.934 127.52C629.018 127.682 629.142 127.796 629.305 127.861C629.467 127.92 629.673 127.949 629.92 127.949C630.096 127.949 630.252 127.943 630.389 127.93C630.532 127.91 630.652 127.891 630.75 127.871L630.76 129.941C630.519 130.02 630.258 130.081 629.979 130.127C629.699 130.173 629.389 130.195 629.051 130.195C628.432 130.195 627.892 130.094 627.43 129.893C626.974 129.684 626.622 129.352 626.375 128.896C626.128 128.441 626.004 127.842 626.004 127.1V116.826ZM637.938 127.617V122.91C637.938 122.572 637.882 122.282 637.771 122.041C637.661 121.794 637.488 121.602 637.254 121.465C637.026 121.328 636.73 121.26 636.365 121.26C636.053 121.26 635.783 121.315 635.555 121.426C635.327 121.53 635.151 121.683 635.027 121.885C634.904 122.08 634.842 122.311 634.842 122.578H632.029C632.029 122.129 632.133 121.702 632.342 121.299C632.55 120.895 632.853 120.54 633.25 120.234C633.647 119.922 634.119 119.678 634.666 119.502C635.219 119.326 635.838 119.238 636.521 119.238C637.342 119.238 638.071 119.375 638.709 119.648C639.347 119.922 639.848 120.332 640.213 120.879C640.584 121.426 640.77 122.109 640.77 122.93V127.451C640.77 128.031 640.805 128.506 640.877 128.877C640.949 129.242 641.053 129.561 641.189 129.834V130H638.348C638.211 129.714 638.107 129.355 638.035 128.926C637.97 128.49 637.938 128.053 637.938 127.617ZM638.309 123.564L638.328 125.156H636.756C636.385 125.156 636.062 125.199 635.789 125.283C635.516 125.368 635.291 125.488 635.115 125.645C634.939 125.794 634.809 125.97 634.725 126.172C634.646 126.374 634.607 126.595 634.607 126.836C634.607 127.077 634.663 127.295 634.773 127.49C634.884 127.679 635.044 127.829 635.252 127.939C635.46 128.044 635.704 128.096 635.984 128.096C636.408 128.096 636.775 128.011 637.088 127.842C637.4 127.673 637.641 127.464 637.811 127.217C637.986 126.969 638.077 126.735 638.084 126.514L638.826 127.705C638.722 127.972 638.579 128.249 638.396 128.535C638.221 128.822 637.996 129.092 637.723 129.346C637.449 129.593 637.12 129.798 636.736 129.961C636.352 130.117 635.896 130.195 635.369 130.195C634.699 130.195 634.09 130.062 633.543 129.795C633.003 129.521 632.573 129.147 632.254 128.672C631.941 128.19 631.785 127.643 631.785 127.031C631.785 126.478 631.889 125.986 632.098 125.557C632.306 125.127 632.612 124.766 633.016 124.473C633.426 124.173 633.937 123.949 634.549 123.799C635.161 123.643 635.87 123.564 636.678 123.564H638.309ZM635.174 118.008L637.088 115H640.145L637.459 118.008H635.174ZM647.303 127.998C647.648 127.998 647.954 127.933 648.221 127.803C648.488 127.666 648.696 127.477 648.846 127.236C649.002 126.989 649.083 126.699 649.09 126.367H651.736C651.73 127.109 651.531 127.77 651.141 128.35C650.75 128.923 650.226 129.375 649.568 129.707C648.911 130.033 648.175 130.195 647.361 130.195C646.541 130.195 645.825 130.059 645.213 129.785C644.607 129.512 644.103 129.134 643.699 128.652C643.296 128.164 642.993 127.598 642.791 126.953C642.589 126.302 642.488 125.605 642.488 124.863V124.58C642.488 123.831 642.589 123.135 642.791 122.49C642.993 121.839 643.296 121.273 643.699 120.791C644.103 120.303 644.607 119.922 645.213 119.648C645.818 119.375 646.528 119.238 647.342 119.238C648.208 119.238 648.966 119.404 649.617 119.736C650.275 120.068 650.789 120.544 651.16 121.162C651.538 121.774 651.73 122.5 651.736 123.34H649.09C649.083 122.988 649.008 122.669 648.865 122.383C648.729 122.096 648.527 121.868 648.26 121.699C647.999 121.523 647.677 121.436 647.293 121.436C646.883 121.436 646.548 121.523 646.287 121.699C646.027 121.868 645.825 122.103 645.682 122.402C645.538 122.695 645.438 123.031 645.379 123.408C645.327 123.779 645.301 124.17 645.301 124.58V124.863C645.301 125.273 645.327 125.667 645.379 126.045C645.431 126.423 645.529 126.758 645.672 127.051C645.822 127.344 646.027 127.575 646.287 127.744C646.548 127.913 646.886 127.998 647.303 127.998ZM656.033 127.627L656.023 129.512C656.023 130.234 655.841 130.964 655.477 131.699C655.118 132.435 654.663 133.037 654.109 133.506L652.645 132.754C652.807 132.454 652.967 132.155 653.123 131.855C653.279 131.556 653.41 131.227 653.514 130.869C653.618 130.511 653.67 130.104 653.67 129.648V127.627H656.033ZM669.51 127.695V115H672.342V130H669.793L669.51 127.695ZM662.83 124.844V124.639C662.83 123.831 662.921 123.099 663.104 122.441C663.286 121.777 663.553 121.208 663.904 120.732C664.256 120.257 664.689 119.889 665.203 119.629C665.717 119.368 666.303 119.238 666.961 119.238C667.579 119.238 668.12 119.368 668.582 119.629C669.051 119.889 669.448 120.26 669.773 120.742C670.105 121.217 670.372 121.781 670.574 122.432C670.776 123.076 670.923 123.783 671.014 124.551V125C670.923 125.736 670.776 126.419 670.574 127.051C670.372 127.682 670.105 128.236 669.773 128.711C669.448 129.18 669.051 129.544 668.582 129.805C668.113 130.065 667.566 130.195 666.941 130.195C666.284 130.195 665.698 130.062 665.184 129.795C664.676 129.528 664.246 129.154 663.895 128.672C663.549 128.19 663.286 127.624 663.104 126.973C662.921 126.322 662.83 125.612 662.83 124.844ZM665.643 124.639V124.844C665.643 125.28 665.675 125.687 665.74 126.064C665.812 126.442 665.926 126.777 666.082 127.07C666.245 127.357 666.453 127.581 666.707 127.744C666.967 127.9 667.283 127.979 667.654 127.979C668.136 127.979 668.533 127.871 668.846 127.656C669.158 127.435 669.396 127.132 669.559 126.748C669.728 126.364 669.826 125.921 669.852 125.42V124.141C669.832 123.73 669.773 123.363 669.676 123.037C669.585 122.705 669.448 122.422 669.266 122.188C669.09 121.953 668.868 121.771 668.602 121.641C668.341 121.51 668.032 121.445 667.674 121.445C667.309 121.445 666.997 121.53 666.736 121.699C666.476 121.862 666.264 122.087 666.102 122.373C665.945 122.66 665.828 122.998 665.75 123.389C665.678 123.773 665.643 124.189 665.643 124.639ZM673.855 116.338V118.076H667.02V116.338H673.855ZM681.57 127.617V122.91C681.57 122.572 681.515 122.282 681.404 122.041C681.294 121.794 681.121 121.602 680.887 121.465C680.659 121.328 680.363 121.26 679.998 121.26C679.686 121.26 679.415 121.315 679.188 121.426C678.96 121.53 678.784 121.683 678.66 121.885C678.536 122.08 678.475 122.311 678.475 122.578H675.662C675.662 122.129 675.766 121.702 675.975 121.299C676.183 120.895 676.486 120.54 676.883 120.234C677.28 119.922 677.752 119.678 678.299 119.502C678.852 119.326 679.471 119.238 680.154 119.238C680.975 119.238 681.704 119.375 682.342 119.648C682.98 119.922 683.481 120.332 683.846 120.879C684.217 121.426 684.402 122.109 684.402 122.93V127.451C684.402 128.031 684.438 128.506 684.51 128.877C684.581 129.242 684.686 129.561 684.822 129.834V130H681.98C681.844 129.714 681.74 129.355 681.668 128.926C681.603 128.49 681.57 128.053 681.57 127.617ZM681.941 123.564L681.961 125.156H680.389C680.018 125.156 679.695 125.199 679.422 125.283C679.148 125.368 678.924 125.488 678.748 125.645C678.572 125.794 678.442 125.97 678.357 126.172C678.279 126.374 678.24 126.595 678.24 126.836C678.24 127.077 678.296 127.295 678.406 127.49C678.517 127.679 678.676 127.829 678.885 127.939C679.093 128.044 679.337 128.096 679.617 128.096C680.04 128.096 680.408 128.011 680.721 127.842C681.033 127.673 681.274 127.464 681.443 127.217C681.619 126.969 681.71 126.735 681.717 126.514L682.459 127.705C682.355 127.972 682.212 128.249 682.029 128.535C681.854 128.822 681.629 129.092 681.355 129.346C681.082 129.593 680.753 129.798 680.369 129.961C679.985 130.117 679.529 130.195 679.002 130.195C678.331 130.195 677.723 130.062 677.176 129.795C676.635 129.521 676.206 129.147 675.887 128.672C675.574 128.19 675.418 127.643 675.418 127.031C675.418 126.478 675.522 125.986 675.73 125.557C675.939 125.127 676.245 124.766 676.648 124.473C677.059 124.173 677.57 123.949 678.182 123.799C678.794 123.643 679.503 123.564 680.311 123.564H681.941ZM677.83 132.148C677.83 131.771 677.973 131.455 678.26 131.201C678.546 130.954 678.93 130.83 679.412 130.83C679.887 130.83 680.268 130.954 680.555 131.201C680.848 131.455 680.994 131.771 680.994 132.148C680.994 132.52 680.848 132.832 680.555 133.086C680.268 133.34 679.887 133.467 679.412 133.467C678.93 133.467 678.546 133.34 678.26 133.086C677.973 132.832 677.83 132.52 677.83 132.148ZM689.539 119.434V130H686.717V119.434H689.539ZM686.541 116.68C686.541 116.27 686.684 115.931 686.971 115.664C687.257 115.397 687.641 115.264 688.123 115.264C688.598 115.264 688.979 115.397 689.266 115.664C689.559 115.931 689.705 116.27 689.705 116.68C689.705 117.09 689.559 117.428 689.266 117.695C688.979 117.962 688.598 118.096 688.123 118.096C687.641 118.096 687.257 117.962 686.971 117.695C686.684 117.428 686.541 117.09 686.541 116.68ZM699.812 115V130H696.99V115H699.812ZM705.271 128.809L708.074 119.434H711.092L706.844 131.592C706.753 131.859 706.629 132.145 706.473 132.451C706.323 132.757 706.118 133.047 705.857 133.32C705.604 133.6 705.281 133.828 704.891 134.004C704.507 134.18 704.035 134.268 703.475 134.268C703.208 134.268 702.99 134.251 702.82 134.219C702.651 134.186 702.449 134.141 702.215 134.082V132.021C702.286 132.021 702.361 132.021 702.439 132.021C702.518 132.028 702.592 132.031 702.664 132.031C703.035 132.031 703.338 131.989 703.572 131.904C703.807 131.82 703.995 131.689 704.139 131.514C704.282 131.344 704.396 131.123 704.48 130.85L705.271 128.809ZM704.1 119.434L706.395 127.09L706.795 130.068L704.881 130.273L701.082 119.434H704.1ZM704.793 118.008L706.707 115H709.764L707.078 118.008H704.793Z" fill="white"/>
<line x1="804.5" y1="-2.18557e-08" x2="804.5" y2="190" stroke="#D9D9D9" stroke-dasharray="8 8"/>
<circle cx="923" cy="95" r="46" fill="white" fill-opacity="0.2"/>
<path d="M923 91.1333C927.381 91.1333 930.933 87.6262 930.933 83.3C930.933 78.9738 927.381 75.4667 923 75.4667C918.619 75.4667 915.067 78.9738 915.067 83.3C915.067 87.6262 918.619 91.1333 923 91.1333Z" fill="white"/>
<path d="M910.967 84.0834H911.767V83.3667C911.771 81.2827 912.359 79.2417 913.464 77.4744C914.568 75.7072 916.145 74.2843 918.017 73.3667C917.463 72.091 916.574 70.9891 915.444 70.1781C914.314 69.3671 912.985 68.8773 911.599 68.7606C910.214 68.644 908.822 68.9049 907.572 69.5157C906.323 70.1264 905.262 71.0642 904.503 72.2294C903.743 73.3946 903.314 74.7437 903.26 76.1335C903.205 77.5232 903.529 78.9017 904.195 80.1225C904.861 81.3433 905.846 82.3608 907.044 83.067C908.242 83.7732 909.609 84.1417 911 84.1334L910.967 84.0834ZM934.267 83.3V84.0167H935.067C936.439 84.0029 937.782 83.6195 938.955 82.9067C940.127 82.1939 941.086 81.1782 941.73 79.9664C942.374 78.7546 942.68 77.3916 942.615 76.0208C942.549 74.65 942.116 73.3222 941.36 72.1771C940.603 71.0319 939.552 70.1119 938.317 69.5137C937.082 68.9156 935.709 68.6614 934.341 68.7781C932.974 68.8947 931.663 69.3778 930.547 70.1765C929.431 70.9752 928.551 72.06 928 73.3167C929.872 74.2307 931.45 75.65 932.558 77.4142C933.665 79.1784 934.257 81.2171 934.267 83.3ZM930.15 91.9167C933.464 92.5726 936.668 93.6949 939.667 95.2501C940.089 95.4821 940.472 95.7803 940.8 96.1334H949.667V90.4334C949.668 90.2148 949.61 89.9999 949.498 89.8119C949.387 89.6239 949.226 89.47 949.033 89.3667C944.714 87.1073 939.908 85.9345 935.033 85.9501H933.933C933.356 88.2979 932.027 90.393 930.15 91.9167ZM903.883 99.3667C903.88 98.5273 904.107 97.7031 904.539 96.9834C904.971 96.2636 905.591 95.6757 906.333 95.2834C909.332 93.7282 912.536 92.606 915.85 91.95C913.982 90.4393 912.654 88.3631 912.067 86.0334H910.967C906.092 86.0179 901.286 87.1906 896.967 89.4501C896.774 89.5533 896.613 89.7072 896.501 89.8952C896.39 90.0832 896.332 90.2981 896.333 90.5167V101.167H903.883V99.3667ZM928.767 108.983H938.7V111.317H928.767V108.983Z" fill="white"/>
<path d="M947.683 99.9334H936.233V98.2667C936.233 97.8247 936.058 97.4007 935.745 97.0882C935.433 96.7756 935.009 96.6 934.567 96.6C934.125 96.6 933.701 96.7756 933.388 97.0882C933.076 97.4007 932.9 97.8247 932.9 98.2667V99.9334H929.667V95.2167C927.474 94.7562 925.24 94.5162 923 94.5C917.74 94.4781 912.554 95.7487 907.9 98.2C907.693 98.3076 907.519 98.4704 907.398 98.6704C907.278 98.8704 907.215 99.0998 907.217 99.3334V108.683H919.067V118.833C919.067 119.275 919.242 119.699 919.555 120.012C919.867 120.324 920.291 120.5 920.733 120.5H947.683C948.125 120.5 948.549 120.324 948.862 120.012C949.174 119.699 949.35 119.275 949.35 118.833V101.6C949.35 101.158 949.174 100.734 948.862 100.422C948.549 100.109 948.125 99.9334 947.683 99.9334ZM946.017 117.2H922.4V103.267H932.9V104.783C932.9 105.225 933.076 105.649 933.388 105.962C933.701 106.274 934.125 106.45 934.567 106.45C935.009 106.45 935.433 106.274 935.745 105.962C936.058 105.649 936.233 105.225 936.233 104.783V103.267H946.017V117.2Z" fill="white"/>
<path d="M1008.66 60.5039V89H1003.04V66.9883L996.281 69.1367V64.7031L1008.06 60.5039H1008.66ZM1037.06 72.2812V77.2031C1037.06 79.3385 1036.83 81.181 1036.38 82.7305C1035.92 84.2669 1035.27 85.5299 1034.41 86.5195C1033.56 87.4961 1032.55 88.2188 1031.38 88.6875C1030.21 89.1562 1028.9 89.3906 1027.47 89.3906C1026.33 89.3906 1025.26 89.2474 1024.27 88.9609C1023.28 88.6615 1022.39 88.1992 1021.59 87.5742C1020.81 86.9492 1020.14 86.1615 1019.56 85.2109C1019 84.2474 1018.57 83.1016 1018.27 81.7734C1017.97 80.4453 1017.82 78.9219 1017.82 77.2031V72.2812C1017.82 70.1458 1018.05 68.3164 1018.51 66.793C1018.98 65.2565 1019.63 64 1020.48 63.0234C1021.34 62.0469 1022.36 61.3307 1023.53 60.875C1024.7 60.4062 1026 60.1719 1027.43 60.1719C1028.58 60.1719 1029.64 60.3216 1030.62 60.6211C1031.61 60.9076 1032.5 61.3568 1033.29 61.9688C1034.09 62.5807 1034.76 63.3685 1035.32 64.332C1035.88 65.2826 1036.31 66.4219 1036.61 67.75C1036.91 69.0651 1037.06 70.5755 1037.06 72.2812ZM1031.42 77.9453V71.5195C1031.42 70.4909 1031.36 69.5924 1031.24 68.8242C1031.14 68.056 1030.98 67.4049 1030.75 66.8711C1030.53 66.3242 1030.26 65.8815 1029.93 65.543C1029.61 65.2044 1029.24 64.957 1028.82 64.8008C1028.4 64.6445 1027.94 64.5664 1027.43 64.5664C1026.8 64.5664 1026.23 64.6901 1025.73 64.9375C1025.25 65.1849 1024.84 65.582 1024.5 66.1289C1024.17 66.6628 1023.9 67.3789 1023.72 68.2773C1023.55 69.1628 1023.47 70.2435 1023.47 71.5195V77.9453C1023.47 78.974 1023.52 79.8789 1023.62 80.6602C1023.74 81.4414 1023.91 82.112 1024.13 82.6719C1024.37 83.2188 1024.64 83.668 1024.95 84.0195C1025.28 84.3581 1025.65 84.6055 1026.07 84.7617C1026.5 84.918 1026.96 84.9961 1027.47 84.9961C1028.1 84.9961 1028.65 84.8724 1029.13 84.625C1029.63 84.3646 1030.04 83.9609 1030.38 83.4141C1030.73 82.8542 1030.99 82.125 1031.16 81.2266C1031.33 80.3281 1031.42 79.2344 1031.42 77.9453ZM1060.03 72.2812V77.2031C1060.03 79.3385 1059.8 81.181 1059.35 82.7305C1058.89 84.2669 1058.23 85.5299 1057.38 86.5195C1056.53 87.4961 1055.52 88.2188 1054.35 88.6875C1053.18 89.1562 1051.87 89.3906 1050.44 89.3906C1049.3 89.3906 1048.23 89.2474 1047.24 88.9609C1046.25 88.6615 1045.36 88.1992 1044.56 87.5742C1043.78 86.9492 1043.1 86.1615 1042.53 85.2109C1041.97 84.2474 1041.54 83.1016 1041.24 81.7734C1040.94 80.4453 1040.79 78.9219 1040.79 77.2031V72.2812C1040.79 70.1458 1041.02 68.3164 1041.48 66.793C1041.95 65.2565 1042.6 64 1043.45 63.0234C1044.31 62.0469 1045.32 61.3307 1046.5 60.875C1047.67 60.4062 1048.97 60.1719 1050.4 60.1719C1051.55 60.1719 1052.61 60.3216 1053.59 60.6211C1054.58 60.9076 1055.47 61.3568 1056.26 61.9688C1057.06 62.5807 1057.73 63.3685 1058.29 64.332C1058.85 65.2826 1059.28 66.4219 1059.58 67.75C1059.88 69.0651 1060.03 70.5755 1060.03 72.2812ZM1054.39 77.9453V71.5195C1054.39 70.4909 1054.33 69.5924 1054.21 68.8242C1054.11 68.056 1053.94 67.4049 1053.72 66.8711C1053.5 66.3242 1053.23 65.8815 1052.9 65.543C1052.58 65.2044 1052.21 64.957 1051.79 64.8008C1051.37 64.6445 1050.91 64.5664 1050.4 64.5664C1049.76 64.5664 1049.2 64.6901 1048.7 64.9375C1048.22 65.1849 1047.81 65.582 1047.47 66.1289C1047.13 66.6628 1046.87 67.3789 1046.69 68.2773C1046.52 69.1628 1046.44 70.2435 1046.44 71.5195V77.9453C1046.44 78.974 1046.49 79.8789 1046.59 80.6602C1046.71 81.4414 1046.88 82.112 1047.1 82.6719C1047.34 83.2188 1047.61 83.668 1047.92 84.0195C1048.25 84.3581 1048.62 84.6055 1049.04 84.7617C1049.46 84.918 1049.93 84.9961 1050.44 84.9961C1051.07 84.9961 1051.62 84.8724 1052.1 84.625C1052.6 84.3646 1053.01 83.9609 1053.35 83.4141C1053.7 82.8542 1053.96 82.125 1054.13 81.2266C1054.3 80.3281 1054.39 79.2344 1054.39 77.9453ZM1082.49 73.1602V78.0625H1063V73.1602H1082.49ZM1075.42 65.4453V86.1484H1070.09V65.4453H1075.42Z" fill="white"/>
<path d="M998.928 130H995.832L995.852 127.715H998.928C999.696 127.715 1000.34 127.542 1000.87 127.197C1001.4 126.846 1001.8 126.335 1002.06 125.664C1002.34 124.993 1002.47 124.183 1002.47 123.232V122.539C1002.47 121.81 1002.39 121.169 1002.24 120.615C1002.09 120.062 1001.86 119.596 1001.56 119.219C1001.26 118.841 1000.9 118.558 1000.46 118.369C1000.02 118.174 999.523 118.076 998.957 118.076H995.773V115.781H998.957C999.908 115.781 1000.78 115.944 1001.56 116.27C1002.36 116.589 1003.05 117.048 1003.62 117.646C1004.2 118.245 1004.65 118.962 1004.96 119.795C1005.28 120.622 1005.44 121.543 1005.44 122.559V123.232C1005.44 124.242 1005.28 125.163 1004.96 125.996C1004.65 126.829 1004.2 127.546 1003.62 128.145C1003.05 128.737 1002.37 129.196 1001.56 129.521C1000.77 129.84 999.891 130 998.928 130ZM997.492 115.781V130H994.562V115.781H997.492ZM999.953 121.963V123.701H993.107V121.963H999.953ZM1006.95 124.824V124.619C1006.95 123.844 1007.06 123.132 1007.28 122.48C1007.5 121.823 1007.82 121.253 1008.24 120.771C1008.67 120.29 1009.19 119.915 1009.81 119.648C1010.43 119.375 1011.13 119.238 1011.94 119.238C1012.74 119.238 1013.45 119.375 1014.07 119.648C1014.7 119.915 1015.22 120.29 1015.65 120.771C1016.08 121.253 1016.4 121.823 1016.62 122.48C1016.84 123.132 1016.96 123.844 1016.96 124.619V124.824C1016.96 125.592 1016.84 126.305 1016.62 126.963C1016.4 127.614 1016.08 128.184 1015.65 128.672C1015.22 129.154 1014.7 129.528 1014.08 129.795C1013.47 130.062 1012.76 130.195 1011.96 130.195C1011.15 130.195 1010.44 130.062 1009.82 129.795C1009.2 129.528 1008.67 129.154 1008.24 128.672C1007.82 128.184 1007.5 127.614 1007.28 126.963C1007.06 126.305 1006.95 125.592 1006.95 124.824ZM1009.76 124.619V124.824C1009.76 125.267 1009.8 125.68 1009.88 126.064C1009.95 126.449 1010.08 126.787 1010.25 127.08C1010.42 127.367 1010.65 127.591 1010.93 127.754C1011.21 127.917 1011.55 127.998 1011.96 127.998C1012.35 127.998 1012.68 127.917 1012.96 127.754C1013.24 127.591 1013.47 127.367 1013.63 127.08C1013.8 126.787 1013.93 126.449 1014.01 126.064C1014.09 125.68 1014.13 125.267 1014.13 124.824V124.619C1014.13 124.189 1014.09 123.786 1014.01 123.408C1013.93 123.024 1013.8 122.686 1013.62 122.393C1013.46 122.093 1013.23 121.859 1012.95 121.689C1012.67 121.52 1012.33 121.436 1011.94 121.436C1011.54 121.436 1011.2 121.52 1010.92 121.689C1010.65 121.859 1010.42 122.093 1010.25 122.393C1010.08 122.686 1009.95 123.024 1009.88 123.408C1009.8 123.786 1009.76 124.189 1009.76 124.619ZM1012.74 115L1015.69 117.715V117.832H1013.45L1011.92 116.406L1010.4 117.832H1008.21V117.686L1011.11 115H1012.74ZM1010.35 132.363C1010.35 131.986 1010.5 131.67 1010.78 131.416C1011.07 131.169 1011.45 131.045 1011.94 131.045C1012.41 131.045 1012.79 131.169 1013.08 131.416C1013.37 131.67 1013.52 131.986 1013.52 132.363C1013.52 132.734 1013.37 133.047 1013.08 133.301C1012.79 133.555 1012.41 133.682 1011.94 133.682C1011.45 133.682 1011.07 133.555 1010.78 133.301C1010.5 133.047 1010.35 132.734 1010.35 132.363ZM1021.65 119.434V130H1018.83V119.434H1021.65ZM1018.65 116.68C1018.65 116.27 1018.8 115.931 1019.08 115.664C1019.37 115.397 1019.75 115.264 1020.24 115.264C1020.71 115.264 1021.09 115.397 1021.38 115.664C1021.67 115.931 1021.82 116.27 1021.82 116.68C1021.82 117.09 1021.67 117.428 1021.38 117.695C1021.09 117.962 1020.71 118.096 1020.24 118.096C1019.75 118.096 1019.37 117.962 1019.08 117.695C1018.8 117.428 1018.65 117.09 1018.65 116.68ZM1031.71 121.689V130H1028.9V119.434H1031.54L1031.71 121.689ZM1031.3 124.346H1030.54C1030.54 123.564 1030.64 122.861 1030.84 122.236C1031.04 121.605 1031.33 121.068 1031.69 120.625C1032.06 120.176 1032.49 119.834 1032.99 119.6C1033.5 119.359 1034.06 119.238 1034.69 119.238C1035.18 119.238 1035.64 119.31 1036.05 119.453C1036.46 119.596 1036.81 119.824 1037.1 120.137C1037.4 120.449 1037.63 120.863 1037.79 121.377C1037.95 121.891 1038.03 122.52 1038.03 123.262V130H1035.2V123.252C1035.2 122.783 1035.13 122.419 1035 122.158C1034.87 121.898 1034.68 121.715 1034.43 121.611C1034.18 121.501 1033.87 121.445 1033.51 121.445C1033.13 121.445 1032.8 121.52 1032.52 121.67C1032.25 121.82 1032.02 122.028 1031.84 122.295C1031.66 122.555 1031.53 122.861 1031.44 123.213C1031.35 123.564 1031.3 123.942 1031.3 124.346ZM1046.86 119.434H1049.41V129.648C1049.41 130.612 1049.19 131.429 1048.76 132.1C1048.34 132.777 1047.75 133.288 1046.98 133.633C1046.22 133.984 1045.34 134.16 1044.33 134.16C1043.89 134.16 1043.42 134.102 1042.92 133.984C1042.43 133.867 1041.96 133.685 1041.52 133.438C1041.07 133.19 1040.7 132.878 1040.4 132.5L1041.64 130.84C1041.97 131.217 1042.35 131.51 1042.78 131.719C1043.21 131.934 1043.68 132.041 1044.2 132.041C1044.71 132.041 1045.14 131.947 1045.49 131.758C1045.84 131.576 1046.11 131.305 1046.3 130.947C1046.49 130.596 1046.58 130.169 1046.58 129.668V121.875L1046.86 119.434ZM1039.75 124.844V124.639C1039.75 123.831 1039.85 123.099 1040.04 122.441C1040.24 121.777 1040.53 121.208 1040.89 120.732C1041.26 120.257 1041.71 119.889 1042.24 119.629C1042.77 119.368 1043.36 119.238 1044.03 119.238C1044.73 119.238 1045.32 119.368 1045.79 119.629C1046.27 119.889 1046.66 120.26 1046.96 120.742C1047.27 121.217 1047.51 121.781 1047.68 122.432C1047.85 123.076 1047.99 123.783 1048.09 124.551V125C1047.99 125.736 1047.84 126.419 1047.65 127.051C1047.45 127.682 1047.2 128.236 1046.88 128.711C1046.56 129.18 1046.16 129.544 1045.69 129.805C1045.22 130.065 1044.66 130.195 1044.01 130.195C1043.35 130.195 1042.77 130.062 1042.24 129.795C1041.72 129.528 1041.27 129.154 1040.9 128.672C1040.53 128.19 1040.24 127.624 1040.04 126.973C1039.85 126.322 1039.75 125.612 1039.75 124.844ZM1042.56 124.639V124.844C1042.56 125.28 1042.6 125.687 1042.69 126.064C1042.77 126.442 1042.9 126.777 1043.08 127.07C1043.26 127.357 1043.49 127.581 1043.75 127.744C1044.03 127.9 1044.35 127.979 1044.72 127.979C1045.23 127.979 1045.65 127.871 1045.98 127.656C1046.3 127.435 1046.55 127.132 1046.71 126.748C1046.87 126.364 1046.97 125.921 1046.99 125.42V124.141C1046.98 123.73 1046.93 123.363 1046.83 123.037C1046.73 122.705 1046.59 122.422 1046.42 122.188C1046.24 121.953 1046.01 121.771 1045.73 121.641C1045.45 121.51 1045.12 121.445 1044.74 121.445C1044.37 121.445 1044.04 121.53 1043.77 121.699C1043.5 121.862 1043.28 122.087 1043.1 122.373C1042.92 122.66 1042.79 122.998 1042.7 123.389C1042.61 123.773 1042.56 124.189 1042.56 124.639ZM1057.84 127.471V119.434H1060.66V130H1058.01L1057.84 127.471ZM1058.16 125.303L1058.99 125.283C1058.99 125.986 1058.9 126.641 1058.74 127.246C1058.58 127.845 1058.34 128.366 1058.01 128.809C1057.68 129.245 1057.27 129.587 1056.78 129.834C1056.28 130.075 1055.7 130.195 1055.03 130.195C1054.52 130.195 1054.04 130.124 1053.61 129.98C1053.18 129.831 1052.8 129.6 1052.49 129.287C1052.19 128.968 1051.95 128.561 1051.77 128.066C1051.6 127.565 1051.52 126.963 1051.52 126.26V119.434H1054.33V126.279C1054.33 126.592 1054.36 126.855 1054.44 127.07C1054.51 127.285 1054.62 127.461 1054.76 127.598C1054.89 127.734 1055.05 127.832 1055.24 127.891C1055.43 127.949 1055.63 127.979 1055.86 127.979C1056.44 127.979 1056.9 127.861 1057.23 127.627C1057.57 127.393 1057.8 127.074 1057.94 126.67C1058.08 126.26 1058.16 125.804 1058.16 125.303ZM1058.15 115.049L1059.77 115.156C1059.77 115.632 1059.67 116.064 1059.48 116.455C1059.3 116.839 1059.04 117.148 1058.7 117.383C1058.37 117.611 1057.99 117.725 1057.56 117.725C1057.25 117.725 1056.98 117.682 1056.75 117.598C1056.53 117.513 1056.32 117.415 1056.13 117.305C1055.95 117.188 1055.75 117.087 1055.55 117.002C1055.35 116.917 1055.13 116.875 1054.88 116.875C1054.65 116.875 1054.45 116.956 1054.29 117.119C1054.13 117.282 1054.05 117.516 1054.05 117.822L1052.42 117.734C1052.42 117.266 1052.52 116.836 1052.71 116.445C1052.9 116.055 1053.16 115.742 1053.49 115.508C1053.82 115.267 1054.2 115.146 1054.62 115.146C1054.89 115.146 1055.13 115.192 1055.35 115.283C1055.57 115.368 1055.79 115.465 1055.99 115.576C1056.2 115.687 1056.41 115.785 1056.62 115.869C1056.84 115.954 1057.07 115.996 1057.31 115.996C1057.53 115.996 1057.73 115.915 1057.89 115.752C1058.06 115.583 1058.15 115.348 1058.15 115.049ZM1070.54 121.689V130H1067.73V119.434H1070.36L1070.54 121.689ZM1070.13 124.346H1069.37C1069.37 123.564 1069.47 122.861 1069.67 122.236C1069.87 121.605 1070.15 121.068 1070.52 120.625C1070.88 120.176 1071.32 119.834 1071.82 119.6C1072.33 119.359 1072.89 119.238 1073.52 119.238C1074.01 119.238 1074.46 119.31 1074.88 119.453C1075.29 119.596 1075.64 119.824 1075.93 120.137C1076.23 120.449 1076.46 120.863 1076.61 121.377C1076.78 121.891 1076.86 122.52 1076.86 123.262V130H1074.03V123.252C1074.03 122.783 1073.96 122.419 1073.83 122.158C1073.7 121.898 1073.51 121.715 1073.25 121.611C1073.01 121.501 1072.7 121.445 1072.34 121.445C1071.96 121.445 1071.63 121.52 1071.35 121.67C1071.08 121.82 1070.85 122.028 1070.67 122.295C1070.49 122.555 1070.36 122.861 1070.27 123.213C1070.17 123.564 1070.13 123.942 1070.13 124.346ZM1081.74 115V130H1078.93V115H1081.74ZM1081.34 124.346H1080.57C1080.57 123.61 1080.67 122.933 1080.86 122.314C1081.05 121.689 1081.32 121.149 1081.67 120.693C1082.02 120.231 1082.44 119.873 1082.93 119.619C1083.43 119.365 1083.97 119.238 1084.57 119.238C1085.09 119.238 1085.57 119.313 1085.99 119.463C1086.42 119.606 1086.79 119.84 1087.09 120.166C1087.4 120.485 1087.65 120.905 1087.81 121.426C1087.98 121.947 1088.07 122.578 1088.07 123.32V130H1085.24V123.301C1085.24 122.832 1085.17 122.464 1085.03 122.197C1084.9 121.924 1084.71 121.732 1084.46 121.621C1084.21 121.504 1083.9 121.445 1083.54 121.445C1083.13 121.445 1082.79 121.52 1082.5 121.67C1082.22 121.82 1082 122.028 1081.83 122.295C1081.66 122.555 1081.54 122.861 1081.46 123.213C1081.38 123.564 1081.34 123.942 1081.34 124.346ZM1095.91 127.617V122.91C1095.91 122.572 1095.85 122.282 1095.74 122.041C1095.63 121.794 1095.46 121.602 1095.23 121.465C1095 121.328 1094.7 121.26 1094.34 121.26C1094.03 121.26 1093.76 121.315 1093.53 121.426C1093.3 121.53 1093.12 121.683 1093 121.885C1092.88 122.08 1092.81 122.311 1092.81 122.578H1090C1090 122.129 1090.11 121.702 1090.31 121.299C1090.52 120.895 1090.83 120.54 1091.22 120.234C1091.62 119.922 1092.09 119.678 1092.64 119.502C1093.19 119.326 1093.81 119.238 1094.49 119.238C1095.31 119.238 1096.04 119.375 1096.68 119.648C1097.32 119.922 1097.82 120.332 1098.19 120.879C1098.56 121.426 1098.74 122.109 1098.74 122.93V127.451C1098.74 128.031 1098.78 128.506 1098.85 128.877C1098.92 129.242 1099.03 129.561 1099.16 129.834V130H1096.32C1096.18 129.714 1096.08 129.355 1096.01 128.926C1095.94 128.49 1095.91 128.053 1095.91 127.617ZM1096.28 123.564L1096.3 125.156H1094.73C1094.36 125.156 1094.04 125.199 1093.76 125.283C1093.49 125.368 1093.26 125.488 1093.09 125.645C1092.91 125.794 1092.78 125.97 1092.7 126.172C1092.62 126.374 1092.58 126.595 1092.58 126.836C1092.58 127.077 1092.64 127.295 1092.75 127.49C1092.86 127.679 1093.02 127.829 1093.22 127.939C1093.43 128.044 1093.68 128.096 1093.96 128.096C1094.38 128.096 1094.75 128.011 1095.06 127.842C1095.37 127.673 1095.61 127.464 1095.78 127.217C1095.96 126.969 1096.05 126.735 1096.06 126.514L1096.8 127.705C1096.69 127.972 1096.55 128.249 1096.37 128.535C1096.19 128.822 1095.97 129.092 1095.7 129.346C1095.42 129.593 1095.09 129.798 1094.71 129.961C1094.32 130.117 1093.87 130.195 1093.34 130.195C1092.67 130.195 1092.06 130.062 1091.52 129.795C1090.98 129.521 1090.55 129.147 1090.23 128.672C1089.91 128.19 1089.76 127.643 1089.76 127.031C1089.76 126.478 1089.86 125.986 1090.07 125.557C1090.28 125.127 1090.58 124.766 1090.99 124.473C1091.4 124.173 1091.91 123.949 1092.52 123.799C1093.13 123.643 1093.84 123.564 1094.65 123.564H1096.28ZM1095.3 115L1098.25 117.715V117.832H1096.02L1094.48 116.406L1092.97 117.832H1090.77V117.686L1093.67 115H1095.3ZM1103.66 121.689V130H1100.85V119.434H1103.49L1103.66 121.689ZM1103.25 124.346H1102.49C1102.49 123.564 1102.59 122.861 1102.79 122.236C1103 121.605 1103.28 121.068 1103.64 120.625C1104.01 120.176 1104.44 119.834 1104.94 119.6C1105.45 119.359 1106.02 119.238 1106.64 119.238C1107.14 119.238 1107.59 119.31 1108 119.453C1108.41 119.596 1108.76 119.824 1109.05 120.137C1109.35 120.449 1109.58 120.863 1109.74 121.377C1109.9 121.891 1109.98 122.52 1109.98 123.262V130H1107.15V123.252C1107.15 122.783 1107.09 122.419 1106.96 122.158C1106.82 121.898 1106.63 121.715 1106.38 121.611C1106.13 121.501 1105.83 121.445 1105.46 121.445C1105.08 121.445 1104.75 121.52 1104.47 121.67C1104.2 121.82 1103.97 122.028 1103.79 122.295C1103.62 122.555 1103.48 122.861 1103.39 123.213C1103.3 123.564 1103.25 123.942 1103.25 124.346ZM1122.81 127.08C1122.81 126.878 1122.76 126.696 1122.64 126.533C1122.52 126.37 1122.3 126.221 1121.98 126.084C1121.67 125.941 1121.22 125.811 1120.63 125.693C1120.09 125.576 1119.6 125.43 1119.13 125.254C1118.68 125.072 1118.28 124.854 1117.94 124.6C1117.61 124.346 1117.35 124.046 1117.16 123.701C1116.97 123.35 1116.88 122.949 1116.88 122.5C1116.88 122.057 1116.97 121.641 1117.16 121.25C1117.36 120.859 1117.63 120.514 1117.99 120.215C1118.35 119.909 1118.8 119.671 1119.32 119.502C1119.85 119.326 1120.44 119.238 1121.1 119.238C1122.01 119.238 1122.8 119.385 1123.46 119.678C1124.12 119.971 1124.63 120.374 1124.98 120.889C1125.34 121.396 1125.52 121.976 1125.52 122.627H1122.71C1122.71 122.354 1122.65 122.109 1122.53 121.895C1122.42 121.673 1122.24 121.501 1122 121.377C1121.77 121.247 1121.46 121.182 1121.09 121.182C1120.77 121.182 1120.5 121.237 1120.28 121.348C1120.05 121.452 1119.87 121.595 1119.75 121.777C1119.63 121.953 1119.57 122.148 1119.57 122.363C1119.57 122.526 1119.6 122.673 1119.67 122.803C1119.74 122.926 1119.86 123.04 1120.01 123.145C1120.17 123.249 1120.37 123.346 1120.62 123.438C1120.87 123.522 1121.18 123.6 1121.55 123.672C1122.32 123.828 1123 124.033 1123.6 124.287C1124.19 124.535 1124.67 124.873 1125.02 125.303C1125.37 125.726 1125.55 126.283 1125.55 126.973C1125.55 127.441 1125.44 127.871 1125.24 128.262C1125.03 128.652 1124.73 128.994 1124.34 129.287C1123.95 129.574 1123.48 129.798 1122.93 129.961C1122.39 130.117 1121.78 130.195 1121.11 130.195C1120.12 130.195 1119.29 130.02 1118.61 129.668C1117.93 129.316 1117.41 128.87 1117.06 128.33C1116.72 127.783 1116.54 127.223 1116.54 126.65H1119.21C1119.22 127.035 1119.32 127.344 1119.5 127.578C1119.69 127.812 1119.93 127.982 1120.22 128.086C1120.51 128.19 1120.83 128.242 1121.16 128.242C1121.53 128.242 1121.83 128.193 1122.07 128.096C1122.31 127.992 1122.5 127.855 1122.62 127.686C1122.75 127.51 1122.81 127.308 1122.81 127.08ZM1137.63 118.506H1139.3C1139.3 119.307 1139.18 119.977 1138.95 120.518C1138.71 121.058 1138.32 121.468 1137.77 121.748C1137.22 122.021 1136.46 122.158 1135.5 122.158L1135.51 120.85C1136.14 120.85 1136.61 120.765 1136.91 120.596C1137.21 120.426 1137.41 120.169 1137.49 119.824C1137.58 119.473 1137.63 119.033 1137.63 118.506ZM1133.62 127.471V119.434H1136.44V130H1133.79L1133.62 127.471ZM1133.94 125.303L1134.77 125.283C1134.77 125.986 1134.69 126.641 1134.52 127.246C1134.36 127.845 1134.12 128.366 1133.79 128.809C1133.47 129.245 1133.06 129.587 1132.56 129.834C1132.07 130.075 1131.48 130.195 1130.81 130.195C1130.3 130.195 1129.82 130.124 1129.39 129.98C1128.96 129.831 1128.59 129.6 1128.27 129.287C1127.97 128.968 1127.73 128.561 1127.55 128.066C1127.38 127.565 1127.3 126.963 1127.3 126.26V119.434H1130.11V126.279C1130.11 126.592 1130.15 126.855 1130.22 127.07C1130.29 127.285 1130.4 127.461 1130.54 127.598C1130.68 127.734 1130.84 127.832 1131.02 127.891C1131.21 127.949 1131.41 127.979 1131.64 127.979C1132.22 127.979 1132.68 127.861 1133.01 127.627C1133.35 127.393 1133.59 127.074 1133.72 126.67C1133.87 126.26 1133.94 125.804 1133.94 125.303ZM1130.29 132.295C1130.29 131.917 1130.43 131.602 1130.71 131.348C1131 131.1 1131.39 130.977 1131.87 130.977C1132.34 130.977 1132.72 131.1 1133.01 131.348C1133.3 131.602 1133.45 131.917 1133.45 132.295C1133.45 132.666 1133.3 132.979 1133.01 133.232C1132.72 133.486 1132.34 133.613 1131.87 133.613C1131.39 133.613 1131 133.486 1130.71 133.232C1130.43 132.979 1130.29 132.666 1130.29 132.295Z" fill="white"/>
<defs>
<linearGradient id="paint0_linear_7_2854" x1="-4.47035e-06" y1="95" x2="1200" y2="95" gradientUnits="userSpaceOnUse">
<stop stop-color="#49D363"/>
<stop offset="1" stop-color="#2ED7AE"/>
</linearGradient>
</defs>
</svg>
