<svg width="181" height="23" viewBox="0 0 181 23" fill="none" xmlns="http://www.w3.org/2000/svg">
<path d="M0.786687 2.37228C0.536936 2.25447 0.429976 1.95651 0.547786 1.70675C0.665596 1.457 0.963562 1.35004 1.21331 1.46786L0.786687 2.37228ZM181 1.92007L177.677 6.6412L175.25 1.40259L181 1.92007ZM1.21331 1.46786C2.08662 1.8798 2.96321 2.28592 3.84303 2.68617L3.42895 3.59641C2.54493 3.19425 1.66416 2.78619 0.786687 2.37228L1.21331 1.46786ZM9.15175 5.01312C10.9298 5.76333 12.7203 6.48984 14.5228 7.19224L14.1597 8.124C12.3486 7.41824 10.5495 6.68826 8.76301 5.93447L9.15175 5.01312ZM19.9522 9.22175C21.7686 9.8722 23.5966 10.4984 25.4357 11.1L25.1248 12.0504C23.2769 11.446 21.4402 10.8168 19.6151 10.1632L19.9522 9.22175ZM30.9692 12.8255C32.8185 13.3741 34.6783 13.8981 36.5484 14.3969L36.2907 15.3631C34.4117 14.8619 32.5429 14.3355 30.6848 13.7842L30.9692 12.8255ZM42.1691 15.8131C44.0454 16.2583 45.9314 16.6785 47.8268 17.0731L47.6229 18.0521C45.7185 17.6556 43.8235 17.2334 41.9382 16.7861L42.1691 15.8131ZM53.5172 18.1761C55.4148 18.5168 57.3212 18.8321 59.236 19.1216L59.0865 20.1104C57.1626 19.8195 55.2471 19.5027 53.3405 19.1604L53.5172 18.1761ZM64.9787 19.9092C66.8916 20.1448 68.8125 20.3547 70.741 20.5387L70.646 21.5342C68.7084 21.3493 66.7785 21.1384 64.8565 20.9017L64.9787 19.9092ZM76.5184 21.0102C78.4408 21.1407 80.3704 21.2454 82.3066 21.3239L82.2661 22.3231C80.3207 22.2442 78.3822 22.139 76.4507 22.0079L76.5184 21.0102ZM88.1014 21.4805C89.0661 21.4935 90.0323 21.5 91 21.5V22.5C90.0278 22.5 89.0571 22.4934 88.088 22.4804L88.1014 21.4805ZM91 21.5C91.9677 21.5 92.9339 21.4935 93.8985 21.4805L93.912 22.4804C92.9429 22.4934 91.9722 22.5 91 22.5V21.5ZM99.6934 21.3239C101.63 21.2454 103.559 21.1407 105.482 21.0102L105.549 22.0079C103.618 22.139 101.679 22.2442 99.7339 22.3231L99.6934 21.3239ZM111.259 20.5387C113.187 20.3547 115.108 20.1448 117.021 19.9092L117.144 20.9017C115.222 21.1384 113.292 21.3493 111.354 21.5342L111.259 20.5387ZM122.764 19.1216C124.679 18.8321 126.585 18.5168 128.483 18.1761L128.659 19.1604C126.753 19.5027 124.837 19.8195 122.913 20.1104L122.764 19.1216ZM134.173 17.0731C136.069 16.6785 137.955 16.2583 139.831 15.8131L140.062 16.7861C138.177 17.2334 136.281 17.6556 134.377 18.0521L134.173 17.0731ZM145.452 14.3969C147.322 13.8981 149.182 13.3741 151.031 12.8255L151.315 13.7842C149.457 14.3355 147.588 14.8619 145.709 15.3631L145.452 14.3969ZM156.564 11.1C158.403 10.4984 160.231 9.8722 162.048 9.22175L162.385 10.1632C160.56 10.8168 158.723 11.446 156.875 12.0504L156.564 11.1ZM167.477 7.19224C169.28 6.48984 171.07 5.76333 172.848 5.01312L173.237 5.93447C171.45 6.68826 169.651 7.41824 167.84 8.124L167.477 7.19224ZM0.573374 2.8245C0.0738719 2.58888 -0.140047 1.99294 0.0955721 1.49344C0.331191 0.99394 0.927125 0.780022 1.42663 1.01564L0.573374 2.8245ZM181 1.92007L174.353 11.3623L169.499 0.885111L181 1.92007ZM1.42663 1.01564C2.29785 1.4266 3.17235 1.83176 4.05008 2.23105L3.22191 4.05153C2.33579 3.64842 1.45292 3.23939 0.573374 2.8245L1.42663 1.01564ZM9.34612 4.55245C11.1199 5.30087 12.9061 6.02564 14.7044 6.72637L13.9782 8.58988C12.1627 7.88244 10.3594 7.15073 8.56864 6.39514L9.34612 4.55245ZM20.1208 8.75102C21.9329 9.39991 23.7565 10.0246 25.5912 10.6248L24.9694 12.5257C23.1171 11.9198 21.276 11.2891 19.4465 10.6339L20.1208 8.75102ZM31.1114 12.3461C32.9563 12.8935 34.8117 13.4161 36.6773 13.9138L36.1618 15.8462C34.2783 15.3438 32.4051 14.8161 30.5426 14.2635L31.1114 12.3461ZM42.2845 15.3266C44.1563 15.7708 46.0379 16.1899 47.9287 16.5836L47.521 18.5416C45.6121 18.1441 43.7125 17.721 41.8228 17.2726L42.2845 15.3266ZM53.6056 17.684C55.4986 18.0239 57.4005 18.3384 59.3108 18.6272L59.0118 20.6048C57.0833 20.3132 55.1633 19.9957 53.2522 19.6525L53.6056 17.684ZM65.0398 19.4129C66.9482 19.648 68.8645 19.8574 70.7884 20.0409L70.5985 22.0319C68.6564 21.8466 66.7219 21.6352 64.7954 21.3979L65.0398 19.4129ZM76.5522 20.5113C78.4702 20.6415 80.3952 20.746 82.3269 20.8243L82.2458 22.8227C80.2959 22.7436 78.3528 22.6381 76.4168 22.5067L76.5522 20.5113ZM88.1082 20.9805C89.0706 20.9935 90.0345 21 91 21V23C90.0255 23 89.0526 22.9934 88.0812 22.9803L88.1082 20.9805ZM91 21C91.9655 21 92.9294 20.9935 93.8918 20.9805L93.9188 22.9803C92.9474 22.9934 91.9745 23 91 23V21ZM99.6731 20.8243C101.605 20.746 103.53 20.6415 105.448 20.5113L105.583 22.5067C103.647 22.6381 101.704 22.7436 99.7542 22.8227L99.6731 20.8243ZM111.212 20.0409C113.135 19.8574 115.052 19.648 116.96 19.4129L117.205 21.3979C115.278 21.6352 113.344 21.8466 111.401 22.0319L111.212 20.0409ZM122.689 18.6272C124.6 18.3384 126.501 18.0239 128.394 17.684L128.748 19.6525C126.837 19.9957 124.917 20.3132 122.988 20.6048L122.689 18.6272ZM134.071 16.5836C135.962 16.1899 137.844 15.7708 139.715 15.3266L140.177 17.2726C138.287 17.721 136.388 18.1441 134.479 18.5416L134.071 16.5836ZM145.323 13.9138C147.188 13.4161 149.044 12.8935 150.889 12.3461L151.457 14.2635C149.595 14.8161 147.722 15.3438 145.838 15.8462L145.323 13.9138ZM156.409 10.6248C158.244 10.0246 160.067 9.39991 161.879 8.75102L162.553 10.6339C160.724 11.2891 158.883 11.9198 157.031 12.5257L156.409 10.6248ZM167.296 6.72636C169.094 6.02564 170.88 5.30087 172.654 4.55245L173.431 6.39514C171.641 7.15072 169.837 7.88244 168.022 8.58988L167.296 6.72636Z" fill="white"/>
</svg>
