<svg width="181" height="23" viewBox="0 0 181 23" fill="none" xmlns="http://www.w3.org/2000/svg">
<path d="M0.786687 20.6277C0.536936 20.7455 0.429976 21.0435 0.547786 21.2932C0.665596 21.543 0.963562 21.65 1.21331 21.5321L0.786687 20.6277ZM181 21.0799L177.677 16.3588L175.25 21.5974L181 21.0799ZM1.21331 21.5321C2.08662 21.1202 2.96321 20.7141 3.84303 20.3138L3.42895 19.4036C2.54493 19.8057 1.66416 20.2138 0.786687 20.6277L1.21331 21.5321ZM9.15175 17.9869C10.9298 17.2367 12.7203 16.5102 14.5228 15.8078L14.1597 14.876C12.3486 15.5818 10.5495 16.3117 8.76301 17.0655L9.15175 17.9869ZM19.9522 13.7782C21.7686 13.1278 23.5966 12.5016 25.4357 11.9L25.1248 10.9496C23.2769 11.554 21.4402 12.1832 19.6151 12.8368L19.9522 13.7782ZM30.9692 10.1745C32.8185 9.62587 34.6783 9.10194 36.5484 8.60308L36.2907 7.63687C34.4117 8.13811 32.5429 8.66455 30.6848 9.21581L30.9692 10.1745ZM42.1691 7.18689C44.0454 6.74167 45.9314 6.32155 47.8268 5.92689L47.6229 4.94789C45.7185 5.34443 43.8235 5.76656 41.9382 6.2139L42.1691 7.18689ZM53.5172 4.82386C55.4148 4.48317 57.3212 4.16789 59.236 3.87838L59.0865 2.88962C57.1626 3.18051 55.2471 3.49729 53.3405 3.8396L53.5172 4.82386ZM64.9787 3.09081C66.8916 2.85523 68.8125 2.64528 70.741 2.46132L70.646 1.46584C68.7084 1.65066 66.7785 1.86161 64.8565 2.09831L64.9787 3.09081ZM76.5184 1.98983C78.4408 1.85934 80.3704 1.75464 82.3066 1.67607L82.2661 0.67689C80.3207 0.755831 78.3822 0.861024 76.4507 0.992125L76.5184 1.98983ZM88.1014 1.51953C89.0661 1.50652 90.0323 1.5 91 1.5V0.5C90.0278 0.5 89.0571 0.506554 88.088 0.519619L88.1014 1.51953ZM91 1.5C91.9677 1.5 92.9339 1.50652 93.8985 1.51953L93.912 0.519619C92.9429 0.506554 91.9722 0.5 91 0.5V1.5ZM99.6934 1.67607C101.63 1.75464 103.559 1.85934 105.482 1.98983L105.549 0.992124C103.618 0.861024 101.679 0.755831 99.7339 0.676889L99.6934 1.67607ZM111.259 2.46132C113.187 2.64527 115.108 2.85522 117.021 3.09081L117.144 2.09831C115.222 1.86161 113.292 1.65066 111.354 1.46583L111.259 2.46132ZM122.764 3.87838C124.679 4.16789 126.585 4.48317 128.483 4.82386L128.659 3.8396C126.753 3.49729 124.837 3.1805 122.913 2.88961L122.764 3.87838ZM134.173 5.92689C136.069 6.32155 137.955 6.74167 139.831 7.18689L140.062 6.2139C138.177 5.76656 136.281 5.34443 134.377 4.94788L134.173 5.92689ZM145.452 8.60308C147.322 9.10194 149.182 9.62587 151.031 10.1745L151.315 9.21581C149.457 8.66455 147.588 8.13811 145.709 7.63687L145.452 8.60308ZM156.564 11.9C158.403 12.5016 160.231 13.1278 162.048 13.7783L162.385 12.8368C160.56 12.1832 158.723 11.554 156.875 10.9496L156.564 11.9ZM167.477 15.8078C169.28 16.5102 171.07 17.2367 172.848 17.9869L173.237 17.0655C171.45 16.3117 169.651 15.5818 167.84 14.876L167.477 15.8078ZM0.573374 20.1755C0.0738719 20.4111 -0.140047 21.0071 0.0955721 21.5066C0.331191 22.0061 0.927125 22.22 1.42663 21.9844L0.573374 20.1755ZM181 21.0799L174.353 11.6377L169.499 22.1149L181 21.0799ZM1.42663 21.9844C2.29785 21.5734 3.17235 21.1682 4.05008 20.7689L3.22191 18.9485C2.33579 19.3516 1.45292 19.7606 0.573374 20.1755L1.42663 21.9844ZM9.34612 18.4476C11.1199 17.6991 12.9061 16.9744 14.7044 16.2736L13.9782 14.4101C12.1627 15.1176 10.3594 15.8493 8.56864 16.6049L9.34612 18.4476ZM20.1208 14.249C21.9329 13.6001 23.7565 12.9754 25.5912 12.3752L24.9694 10.4743C23.1171 11.0802 21.276 11.7109 19.4465 12.3661L20.1208 14.249ZM31.1114 10.6539C32.9563 10.1065 34.8117 9.58385 36.6773 9.08619L36.1618 7.15376C34.2783 7.65619 32.4051 8.18389 30.5426 8.73646L31.1114 10.6539ZM42.2845 7.67338C44.1563 7.22923 46.0379 6.81011 47.9287 6.41639L47.521 4.45838C45.6121 4.85587 43.7125 5.27901 41.8228 5.72741L42.2845 7.67338ZM53.6056 5.31599C55.4986 4.97612 57.4005 4.66158 59.3108 4.37276L59.0118 2.39523C57.0833 2.68681 55.1633 3.00434 53.2522 3.34747L53.6056 5.31599ZM65.0398 3.58706C66.9482 3.35204 68.8645 3.14258 70.7884 2.95906L70.5985 0.968095C68.6564 1.15336 66.7219 1.3648 64.7954 1.60206L65.0398 3.58706ZM76.5522 2.48868C78.4702 2.3585 80.3952 2.25405 82.3269 2.17566L82.2458 0.177301C80.2959 0.256427 78.3528 0.361865 76.4168 0.493272L76.5522 2.48868ZM88.1082 2.01948C89.0706 2.00651 90.0345 2 91 2V0C90.0255 0 89.0526 0.00656885 88.0812 0.0196649L88.1082 2.01948ZM91 2C91.9655 2 92.9294 2.00651 93.8918 2.01948L93.9188 0.0196646C92.9474 0.00656879 91.9745 0 91 0V2ZM99.6731 2.17566C101.605 2.25405 103.53 2.3585 105.448 2.48868L105.583 0.493272C103.647 0.361865 101.704 0.256426 99.7542 0.177301L99.6731 2.17566ZM111.212 2.95906C113.135 3.14258 115.052 3.35203 116.96 3.58706L117.205 1.60206C115.278 1.3648 113.344 1.15336 111.401 0.968094L111.212 2.95906ZM122.689 4.37276C124.6 4.66158 126.501 4.97611 128.394 5.31599L128.748 3.34746C126.837 3.00434 124.917 2.68681 122.988 2.39523L122.689 4.37276ZM134.071 6.41639C135.962 6.81011 137.844 7.22923 139.715 7.67338L140.177 5.72741C138.287 5.279 136.388 4.85587 134.479 4.45838L134.071 6.41639ZM145.323 9.08619C147.188 9.58385 149.044 10.1065 150.889 10.6539L151.457 8.73646C149.595 8.18389 147.722 7.65619 145.838 7.15376L145.323 9.08619ZM156.409 12.3752C158.244 12.9754 160.067 13.6001 161.879 14.249L162.553 12.3661C160.724 11.7109 158.883 11.0802 157.031 10.4743L156.409 12.3752ZM167.296 16.2736C169.094 16.9744 170.88 17.6991 172.654 18.4476L173.431 16.6049C171.641 15.8493 169.837 15.1176 168.022 14.4101L167.296 16.2736Z" fill="white"/>
</svg>
