<svg width="1200" height="612" viewBox="0 0 1200 612" fill="none" xmlns="http://www.w3.org/2000/svg">
<path fill-rule="evenodd" clip-rule="evenodd" d="M1198.57 550.142C1193.8 549.699 1194.67 550.037 1192.72 545.44C1190.9 541.249 1191.44 541.022 1190.43 537.479C1189.8 535.223 1188.78 534.928 1186.37 534.311C1183.81 544.702 1191.61 543.136 1183.45 554.212C1179.58 559.478 1180.43 559.953 1181.54 566.01C1182.56 571.503 1185.18 567.771 1188.83 564.687C1192.14 561.887 1200.32 554.665 1199.99 550.616L1198.57 550.142ZM727.156 252.286C731.885 259.719 738.902 262.097 741.421 271.849C743.377 279.456 725.222 277.132 726.366 268.607C728.031 256.087 722.391 260.932 718.743 252.423C716.618 247.441 715.996 241.996 723.45 240.13C731.3 238.179 725.322 248.427 727.156 252.286ZM678.325 319.342C674.513 317.265 670.955 314.814 673.659 310.644C675.657 307.597 677.597 312.405 679.115 314.345C685.61 322.426 687.55 322.922 692.337 332.553C693.149 334.208 697.645 337.398 699.728 339.949C702.601 343.507 702.854 343.666 706.243 346.744C708.389 348.7 708.305 352.981 708.953 355.78C709.517 358.263 704.994 355.216 703.165 354.457C697.645 352.237 700.603 351.32 696.834 349.702C695.189 349.016 696.855 349.069 695.542 346.992C692.585 342.221 693.75 344.825 689.98 341.109C685.462 336.638 689.564 332.99 682.632 327.566C677.323 323.391 684.946 323.765 678.325 319.342ZM596.571 251.227C600.694 255.945 599.444 254.606 606.087 255.47C608.96 255.839 611.416 257.284 611.896 259.804C612.376 262.302 614.521 260.631 615.291 263.025C616.018 265.281 617.31 262.814 617.895 265.861C618.396 268.449 621.707 270.632 619.603 270.368C616.003 270.315 616.583 273.468 618.523 273.8C623.146 274.575 620.874 274.628 624.98 276.162C630.727 278.328 628.375 278.576 632.145 274.891C633.436 273.71 637.353 273.568 636.141 271.385C634.828 269.045 628.813 273.025 630.099 267.179C630.162 266.931 631.596 266.952 632.471 266.525C637.01 264.306 641.175 258.849 639.488 269.113C638.803 273.304 638.945 274.29 643.484 276.262C645.398 277.089 643.964 281.528 657.08 281.402C662.304 281.386 666.073 282.509 670.907 281.207C682.11 278.197 675.156 282.72 677.465 285.751C678.525 287.158 676.342 287.158 676.632 289.204C676.838 290.738 675.114 289.009 674.777 292.056C674.692 292.92 672.236 297.744 671.635 297.992C670.011 298.677 664.824 296.669 661.471 296.953L659.953 297.164C651.397 298.835 649.061 296.9 641.254 296.02C635.197 295.793 640.216 298.361 630.51 293.748C615.412 286.526 622.097 304.281 615.892 301.339C615.644 298.013 608.564 298.698 604.357 295.493C600.024 292.182 595.09 291.971 589.407 290.669C587.53 290.248 586.576 292.572 585.137 290.443C583.471 287.923 590.24 285.545 587.467 278.961C585.343 273.853 576.66 277.411 571.452 277.727C557.814 278.328 562.727 276.056 548.504 280.669C546.464 281.27 531.909 285.139 530.469 282.467C529.637 280.88 539.632 280.126 542.463 278.734C544.371 277.796 545.652 276.568 547.128 275.234C547.17 275.197 547.212 275.155 547.249 275.113C552.173 269.867 544.993 269.098 552.895 264.343C557.956 261.295 557.519 261.664 560.392 256.772C563.038 252.16 565.263 260.014 574.905 252.65C581.046 247.963 579.549 252.455 582.712 254.147C585.796 255.787 580.319 256.894 592.312 261.77C595.496 263.072 592.997 262.424 596.06 262.687C596.434 262.724 595.601 263.13 596.872 263.831C598.975 264.991 598.079 264.327 598.037 267.3C597.931 274.712 591.289 269.129 590.646 275.049C590.208 279.029 596.229 277.495 598.87 277.285C602.766 276.984 606.951 276.652 606.24 272.566C605.992 271.122 608.259 268.307 607.468 265.344C607.636 265.223 609.323 264.991 609.508 264.959C612.734 264.274 604.01 260.858 603.846 260.784C598.933 258.248 596.682 254.78 592.77 251.469C588.3 247.689 589.866 243.741 596.571 251.227ZM636.03 183.817C631.259 184.239 624.954 181.862 622.471 185.615C620.368 188.804 619.682 186.775 618.575 192.447C617.785 196.411 614.679 200.55 615.765 203.576C615.85 203.823 617.305 204.983 614.432 205.194C609.165 205.579 609.745 202.5 600.894 206.444C596.666 208.273 591.421 210.545 587.066 208.136C585.627 206.939 589.064 204.562 590.377 204.171C592.77 203.486 598.77 200.966 600.103 199.469C603.562 195.594 599.081 192.864 603.498 188.604C612.95 179.516 597.794 182.104 602.855 170.132C603.482 168.688 608.896 161.413 610.288 161.307C610.578 161.819 612.165 161.977 612.497 159.599C614.184 147.464 622.265 152.135 619.577 158.065C618.059 161.392 611.495 163.152 612.059 171.872C612.392 177.033 617.015 184.339 624.01 182.526C626.261 181.925 639.398 175.889 638.587 181.682C638.381 183.148 637.506 183.306 636.03 183.817ZM687.861 299.652C687.798 299.652 687.988 299.652 687.861 299.652V299.652ZM646.984 257.057C646.278 254.184 649.172 254.152 648.424 249.592C648.255 248.538 650.3 246.034 651.402 245.312C653.795 243.588 657.443 239.85 660.775 242.602C661.566 243.256 659.816 242.375 661.835 243.551C663.395 244.484 659.689 247.863 666.353 247.441C670.517 247.178 667.955 248.269 672.12 246.93C676.411 245.554 680.449 248.833 684.345 250.647C700.856 258.375 693.302 262.197 679.1 258.623C665.978 255.328 668.894 255.259 656.131 259.978C651.481 261.707 648.524 261.353 646.984 257.057ZM671.076 241.332C672.911 241.105 681.572 235.274 680.048 239.255C678.34 243.693 668.572 245.965 669.094 242.407C669.226 241.49 670.201 241.4 671.076 241.332ZM680.718 237.842C680.154 237.615 680.365 238.39 680.718 237.842V237.842ZM658.387 130.199C652.298 127.79 640.274 129.324 635.993 124.901C631.712 120.478 637.58 119.482 624.975 120.088C623.198 120.172 615.222 118.896 614.057 120.731C613.014 122.376 613.789 122.049 611.706 122.861C606.097 125.054 601.985 126.519 596.919 130.241C593.334 132.877 589.143 132.324 589.86 137.574C590.72 143.89 588.706 141.881 586.233 146.446C585.132 148.481 584.156 150.057 583.197 152.087C581.573 155.519 579.28 157.422 576.407 160.306C570.603 166.126 559.922 169.167 561.989 177.344C563.049 181.529 562.469 185.573 563.802 188.346C566.449 193.849 571.937 192.141 575.89 189.231C582.575 184.313 580.651 191.071 582.037 193.233C583.94 196.206 583.914 193.328 585.348 196.68C586.028 198.272 587.667 200.734 582.032 200.239C578.763 199.949 584.104 197.081 580.008 192.79C577.746 190.418 569.401 194.102 570.977 199.812C571.525 201.799 569.375 202.311 570.803 204.525C570.176 208.405 560.112 208.405 555.194 213.376C554.034 214.546 550.46 220.166 547.165 217.398C544.281 214.978 551.667 213.244 544.018 209.58C541.124 208.188 543.032 206.675 540.876 203.876C538.525 200.824 535.446 197.076 534.276 192.347C533.69 189.98 530.896 183.675 526.336 184.36C523.063 184.851 519.779 186.459 519.52 189.648C519.088 194.956 522.066 195.868 514.929 199.216C513.463 199.901 511.581 201.752 509.778 203.117C505.729 206.18 508.682 207.345 507.49 211.641C505.044 220.445 518.012 217.514 521.207 214.177C523.922 211.341 522.156 211.362 524.523 208.484C526.178 206.465 528.071 200.36 531.951 204.973C532.905 206.106 530.886 204.751 530.475 206.254C529.905 208.326 526.136 208.078 526.995 211.214C527.818 214.203 522.762 214.91 526.637 216.085C530.675 217.308 523.637 221.837 523.537 222.079C522.604 224.262 526.742 223.835 527.755 223.598C530.543 222.944 532.056 223.16 535.072 222.686C537.317 222.332 533.569 223.629 533.432 223.671C529.615 224.847 527.169 226.297 526.832 229.718C526.279 235.295 534.787 233.466 538.319 239.508C538.424 239.687 538.488 239.882 538.519 240.077C539.104 243.952 538.129 248.006 533.074 248.796C532.836 248.833 532.589 248.823 532.357 248.775C524.375 247.099 512.15 244.727 511.697 253.414C511.454 258.043 512.562 258.359 511.755 262.223C511.386 263.989 512.229 265.492 510.695 266.441C510.047 266.841 509.678 267.537 509.857 268.233C510.216 269.63 511.317 271.486 511.476 272.382C513.136 277.954 516.02 274.923 520.285 277.664C523.716 279.868 523.289 284.544 519.889 286.663C513.505 290.643 512.098 292.683 510.094 298.73C507.153 307.623 500.526 306.49 498.787 311.656C496.71 317.845 495.033 316.833 491.733 321.967C489.276 325.789 481.105 329.659 485.729 335.558C486.767 336.881 484.774 349.301 484.147 350.703C481.669 356.265 483.414 355.569 483.151 359.581C482.993 362.011 484.311 361.727 484.442 363.134C484.585 364.652 494.306 365.111 497.369 368.543C498.444 369.75 498.528 372.465 500.089 373.73C500.126 373.762 500.79 375.196 501.106 375.47C503.763 377.795 506.91 378.675 509.567 381.353C510.606 382.402 515.635 385.323 516.832 385.713C521.07 387.094 523.822 385.27 527.328 385.201C532.652 385.096 535.151 385.407 539.937 383.773C540.006 383.752 540.075 383.73 540.148 383.715C548.109 382.001 557.397 379.471 565.59 381.116C571.784 386.393 565.537 388.37 577.303 386.809C580.166 386.43 582.87 388.159 584.547 390.099C587.525 393.541 583.65 394.163 586.038 397.073C590.319 402.292 589.771 407.675 594.136 413.679C595.38 415.392 597.699 417.264 598.516 420.221C599.181 422.646 601.4 425.778 602.534 429.146C603.15 430.986 605.876 437.528 605.37 439.558C603.936 445.32 600.214 446.49 599.587 452.584C598.516 462.98 607.167 467.572 610.051 478.173C611.321 482.854 610.599 496.118 618.538 498.374C622.213 499.418 620.41 500.409 621.812 503.44C622.93 505.855 624.042 508.221 625.233 511.611C627.347 517.616 632.055 516.414 638.349 515.001C649.852 512.428 654.396 514.453 664.307 506.877C669.663 502.786 677.286 494.99 678.657 488.785C680.323 481.241 679.073 483.381 685.784 478.69C689.427 476.138 691.731 471.146 687.708 467.724C684.087 464.651 689.659 460.049 692.284 458.762C696.591 456.649 696.391 455.035 700.851 453.09C707.857 450.033 707.361 443.707 706.881 438.203C706.365 432.262 702.938 431.049 702.116 425.73C701.937 424.565 701.852 423.126 701.562 421.818C699.396 414.491 702.332 411.96 706.818 406.731C712.406 400.215 715.727 397.574 723.034 392.961C726.866 390.542 730.462 387.558 733.857 384.189C736.798 381.274 737.188 382.977 739.165 378.037C740.504 374.695 748.691 366.329 744.716 362.712C737.557 356.196 718.031 373.155 715.068 362.575C716.544 358.105 726.598 358.469 730.599 357.151C735.006 355.696 736.377 354.272 740.942 354.014C749.139 351.737 752.634 345.669 761.607 342.227C767.49 339.97 771.865 336.781 774.638 331.114C778.381 323.454 768.117 326.348 763.974 323.712C759.039 320.576 762.614 315.23 755.666 320.734C752.655 323.122 751.137 325.083 746.403 323.976C743.24 323.238 741.274 321.614 741.727 318.667C742.228 316.743 741.801 315.91 739.814 317.323C736.941 319.358 735.549 312.331 733.108 310.992C730.667 309.658 729.935 309.568 729.391 306.843C727.657 298.187 735.074 304.254 737.821 306.558C747.784 314.924 750.357 313.654 761.907 317.634C768.012 319.737 774.095 319.537 779.33 322.384C787.443 326.791 790.222 321.704 798.488 328.357C803.343 332.263 802.879 328.151 806.274 335.637C810.955 345.969 811.366 339.353 818.341 342.812C820.729 343.998 819.211 349.264 820.223 352.443C822.426 359.365 832.796 383.003 839.18 386.366C846.908 390.436 848.347 381.664 851.289 379.123C855.021 366.829 851.848 363.461 862.718 352.675C866.993 348.437 872.049 339.733 878.507 336.823C881.917 335.284 885.376 335.637 889.039 334.509C893.046 333.27 894.496 337.181 896.457 339.512C902.524 344.789 900.21 343.291 904.164 350.187C908.45 357.678 912.04 347.303 918.303 355.922C920.053 358.332 921.165 360.625 922.683 363.039C924.755 366.334 924.518 369.318 924.112 372.934C923.174 381.364 928.398 378.49 932.768 384.874C935.451 388.797 930.87 388.67 936.058 392.26C938.182 393.731 942.89 400.347 946.828 398.08C948.209 397.284 946.664 393.499 945.225 392.044C940.644 387.41 947.845 387.853 937.007 382.202C931.392 379.318 933.59 378.127 930.08 373.398C926.178 368.142 928.287 368.379 929.816 363.076C930.427 360.957 931.071 363.097 932.958 363.651C939.437 365.548 941.851 365.649 946.153 370.815C947.924 374.31 944.687 375.66 951.071 373.366C954.43 371.627 954.772 369.059 957.94 366.777C960.924 364.626 965.795 362.106 964.509 358.252C963.913 356.476 962.263 356.471 962.574 355.016C958.768 350.456 958.019 349.032 952.479 344.62C947.898 340.967 947.745 337.777 951.788 332.505C952.115 332.078 953.338 332.268 954.693 332.021C960.044 331.04 961.356 335.41 965.948 332.727C980.187 322.98 986.745 328.668 997.088 312.062C1001.03 305.736 1003.67 301.076 1000.68 293.5C999.792 291.239 999.033 289.984 998.865 287.396C998.786 286.141 995.069 282.108 994.536 281.476C992.027 278.471 991.31 278.618 988.221 276.689C984.879 274.601 990.804 269.804 993.619 268.338C998.886 265.597 994.842 263.562 991.431 263.119C987.182 262.566 985.142 264.116 981.906 263.852C978.669 263.589 977.24 262.012 978.901 259.419C980.566 256.825 982.243 250.705 986.919 255.122C993.166 261.027 996.213 250.251 1000.81 257.437C1002.66 260.325 1002.9 262.898 1007.88 261.527C1011.81 260.447 1010.34 266.172 1010.71 268.676C1011.02 270.737 1012.13 275.16 1016.15 273.71C1018.16 272.983 1017.8 271.934 1020.13 270.663C1025.17 267.927 1022.68 268.86 1023.48 266.277C1023.77 265.334 1020.91 262.555 1020.77 261.717C1020.55 260.32 1017.19 259.93 1015.92 256.93C1015.15 255.101 1011.37 252.845 1012.43 250.831C1013.48 248.817 1014.77 248.875 1014.83 246.218C1014.83 246.182 1016.09 241.094 1016.12 240.994C1018.02 235.327 1022.43 237.151 1025.76 232.786C1030.34 226.787 1031.19 226.508 1033.25 218.489C1034.69 212.87 1037.63 201.219 1032.48 195.531C1030.06 192.858 1028.25 191.54 1029.98 188.267C1033.79 192.463 1035.13 191.135 1037.65 197.729C1038.14 199.016 1038.24 200.587 1038.1 202.036C1037.7 206.248 1039.21 213.334 1044.52 214.683C1046.58 215.205 1044.61 212.617 1048.24 213.46C1053.72 214.731 1048.56 210.012 1046.54 208.779C1042.77 206.465 1042.22 203.523 1042.15 199.59C1047.13 196.749 1044.6 196.559 1040.96 192.484C1037.33 188.404 1034.42 184.64 1032.26 179.416C1031.6 177.829 1029.91 176.026 1028.58 174.191C1027.41 172.594 1025.06 172.394 1026.85 175.599C1028.02 177.697 1025.13 178.72 1021.46 176.453C1013.71 171.677 1015.16 176.664 1008.65 177.223C1007.47 177.323 1004.88 175.114 1008.2 173.891C1009.59 173.374 1008.09 172.236 1005.65 173.664C1003.65 174.834 1004.33 170.954 1004.67 170.137C1006.81 165.193 1008.37 160.364 1010.49 155.524C1013.64 148.344 1015.48 150.137 1023.34 146.341C1025.29 145.397 1022.59 144.781 1029.76 144.174C1032.66 143.927 1035.7 138.955 1043.88 142.735C1045 143.257 1045.07 145.714 1049.54 142.414C1052.38 140.315 1051.8 144.854 1054.34 141.322C1056.09 138.903 1049.35 140.626 1051 135.771C1051.94 133.014 1052.82 130.378 1053.21 127.231C1053.46 125.223 1056.59 122.397 1059.11 122.049C1065.77 121.142 1067.25 126.909 1071.63 125.618C1071.66 125.613 1073.99 122.914 1074.23 122.434C1074.72 121.469 1075.64 118.127 1077.38 119.487C1077.56 119.629 1077.51 122.94 1077.39 123.457C1076.17 128.523 1076.73 134.696 1075.47 139.287C1074.72 141.992 1070.78 145.835 1071.98 147.633C1075.87 153.452 1071.63 153.247 1074.33 160.195C1077.57 168.519 1085.65 176.827 1091.3 185.578C1093.59 189.121 1096.75 183.385 1095.1 179.389C1093.26 174.929 1097.66 175.794 1096.48 172.489C1095.75 170.459 1095.63 167.491 1097.93 165.783C1102.85 162.13 1097.06 161.06 1096.17 156.568C1095.41 152.704 1101.08 155.113 1099.11 152.135C1098.82 151.708 1098.5 151.549 1097.94 151.581C1096.38 148.771 1094.7 148.903 1094.32 145.313C1093.84 140.732 1088.86 146.889 1087.93 138.755C1087.59 135.803 1089.14 137.253 1089.2 135.233C1089.25 133.657 1087.62 134.332 1087.14 133.172C1086.12 130.679 1086.41 129.756 1088.58 127.827C1089.03 127.431 1090.37 127.795 1090.68 126.14C1090.81 125.46 1092.74 123.625 1093.4 126.435C1093.62 127.384 1095.13 126.182 1095.06 125.333C1097.14 121.132 1100.26 121.263 1104.66 122.871C1108.52 124.279 1109.07 124.543 1110.6 120.062C1112.32 115.043 1110.66 103.313 1119.16 101.015C1121.13 100.482 1125.54 101.252 1123.67 97.7307C1121.7 94.0036 1116.4 92.5011 1114.02 88.7688C1112.52 87.124 1108.66 85.7481 1110.18 83.6025C1107.96 78.4363 1110.12 76.2011 1106.28 71.5725C1104.85 69.854 1105.23 66.3641 1108.07 69.1212C1113.27 74.1662 1114.04 66.654 1116.38 67.1601C1121.07 68.1828 1119.98 69.4902 1124.95 68.652C1125.21 68.6098 1129.9 69.0896 1129.96 67.371C1130 66.1269 1127.37 64.9671 1126.04 62.7899C1123.89 59.2631 1122.26 58.3669 1124.88 54.7506C1126.27 52.8369 1123.58 52.9107 1124.73 52.5259C1127.1 51.7246 1124.2 48.53 1119.87 48.3244C1115.3 48.1082 1117.15 44.3811 1111.03 49.2416C1105.76 53.4115 1105.61 46.8641 1100.61 49.579C1099.02 50.4436 1096.13 48.6196 1094.05 48.2927C1088.86 47.4756 1083.14 47.0433 1077.74 46.2684C1070.05 45.1666 1065.84 44.708 1057.58 46.9326C1050.4 48.8621 1044.03 45.4935 1054.52 55.0036C1063.5 63.1431 1049.16 57.2704 1045.93 53.7437C1045.09 52.8369 1042.05 50.7915 1042.11 53.8175C1041.53 57.0543 1037.59 58.388 1034.65 58.8414C1031.59 59.3158 1032.88 59.2262 1030.12 60.2542C1022.88 62.9533 1024.41 67.6188 1015.62 60.6496C1010.58 56.6431 1004.61 56.4217 998.274 59.3106C993.445 61.5194 988.348 59.5847 983.766 58.7307C973.213 56.7696 979.038 52.489 968.421 52.5628C960.255 52.6155 953.876 49.9059 945.99 54.1812C943.111 55.7416 947.466 57.4918 947.455 60.328C947.445 63.1589 942.479 62.6739 938.878 63.0219C936.88 63.2169 929.542 63.7441 927.902 63.9391C921.444 64.7088 930.807 71.9995 922.109 71.9468C919.178 71.931 910.406 66.4748 912.846 63.8706C914.212 62.4156 914.106 63.1378 912.145 60.9712C909.473 58.0243 907.585 52.9845 901.544 53.6066C895.503 54.2287 892.756 51.4188 891.37 57.5446C890.394 61.8568 883.847 61.725 878.949 61.8568C873.646 61.9991 878.675 56.3637 867.062 60.5811C860.752 62.8742 858.353 63.8811 851.869 64.9038C845.985 65.8317 849.771 67.0863 848.447 69.8592C847.952 70.903 843.745 76.8653 842.928 72.6954C842.179 68.884 854.014 57.3232 847.578 52.2465C844.768 50.0324 844.03 49.442 840.735 47.3965C838.927 46.2737 832.19 42.9631 829.886 43.5851C826.86 44.4022 825.484 47.1646 823.238 45.7887C819.527 43.5219 818.699 46.0523 814.761 44.7712C811.857 43.8223 813.354 38.8986 807.629 41.1232C801.904 43.3426 806.543 50.9128 806.706 54.8982C806.785 56.8751 806.648 54.5661 804.898 56.1476C804.65 56.369 802.273 62.21 799.563 61.1135C796.126 59.727 796.816 58.8467 792.968 61.7619C789.874 64.1078 790.443 64.9829 785.994 67.6978C783.906 68.9736 774.454 74.7566 777.111 78.9002C778.091 80.4342 779.161 79.2586 780.764 80.4975C781.08 80.74 786.083 82.1265 783.811 83.6394C783.716 83.7027 781.318 84.1666 780.3 84.5514C777.533 85.6005 773.584 86.8604 771.091 88.5579C769.762 95.1792 779.483 94.1459 781.107 98.727C782.093 101.51 774.87 98.6848 773.879 98.6848C769.762 98.6954 769.388 94.9208 766.9 95.5851C763.779 96.4233 763.225 99.4703 760.711 97.7412C760.094 97.3142 760.057 100.145 759.345 101.426C757.743 104.299 757.711 105.765 760.284 108.416C761.828 110.014 758.296 107.156 757.5 105.775C754.943 101.337 755.007 94.9419 746.746 96.0964C742.228 96.729 743.894 102.465 743.414 104.948C742.507 109.645 743.188 113.113 744.79 116.746C745.676 118.749 752.65 122.634 748.238 122.724C743.831 122.819 737.336 118.048 730.746 118.111C727.562 118.143 726.181 115.523 722.965 115.043C720.604 114.69 721.452 116.946 723.582 118.106C725.417 119.102 729.66 120.847 728.764 123.636C728.337 124.959 724.399 124.479 723.229 124.669C717.999 125.528 716.676 125.365 710.835 125.212C708.22 125.143 702.806 127.785 700.276 129.587C698.647 130.747 692.01 136.567 691.736 136.641C687.903 137.68 691.093 132.93 690.022 131.596C686.016 126.614 681.008 128.549 681.72 135.323C681.946 137.495 684.076 142.725 678.14 142.134C674.661 141.786 675.499 138.908 672.347 136.804C668.883 134.501 663.031 132.034 658.387 130.199ZM306.491 342.959C312.279 345.179 312.548 339.121 306.929 341.077C305.7 341.515 305.326 342.2 306.491 342.959ZM581.911 261.812C582.306 262.466 578.995 265.776 581.763 268.823C584.072 271.375 584.905 267.906 584.199 265.339L583.429 263.188C582.369 260.705 584.826 257.589 582.533 256.498C580.972 255.755 577.245 258.217 581.911 261.812ZM717.994 483.028C723.013 485.812 729.697 483.819 731.758 478.769C733.735 473.924 732.07 463.27 738.633 462.094C742.671 461.372 738.965 461.23 739.861 457.091C740.446 454.329 747.294 442.9 739.882 442.336C734.969 441.983 731.326 450.507 726.534 452.9C722.538 454.925 719.265 454.888 718.954 460.154C718.727 463.57 724.22 461.103 718.643 469.063C715.453 473.623 713.951 478.4 717.994 483.028ZM266.305 341.568C265.098 344.087 272.051 343.065 268.867 341.183C267.887 340.598 267.011 340.829 266.305 341.568ZM254.08 328.483C255.988 329.348 261.466 331.952 263.648 330.228C264.302 329.711 264.402 328.815 263.97 328.135C261.782 324.677 254.887 325.072 250.727 325.12C242.398 325.241 240.563 331.319 248.002 327.076C250.142 325.842 251.913 327.424 254.08 328.483ZM286.606 154.391C281.672 160.58 293.702 160.379 294.614 154.665C295.299 150.253 290.175 151.038 286.606 154.391ZM270.738 330.718C268.013 329.996 265.846 328.43 264.681 331.456C263.142 335.384 276.095 338.415 278.509 334.909C280.112 332.606 272.383 330.982 270.738 330.718ZM863.003 382.001C858.068 369.782 852.57 379.587 856.566 385.138C858.611 387.953 863.962 386.915 863.003 382.001ZM320.92 122.202C322.522 124.052 327.478 120.336 323.566 119.682C321.711 119.366 320.15 120.388 320.92 122.202ZM300.392 338.747C295.621 336.649 290.982 335.663 285.568 335.858C283.111 335.964 287.46 339.1 285.673 340.471C285.03 340.982 276.511 338.515 279.031 341.23C279.948 342.179 283.902 341.599 286.506 342.2C290.444 343.117 292.605 342.005 296.791 341.673C298.726 341.515 304.351 340.967 300.392 338.747ZM287.028 189.337C281.603 194.134 294.54 193.575 291.651 189.316C290.666 187.803 288.325 188.662 287.028 189.337ZM105.334 189.769C108.792 186.669 105.645 178.198 102.313 184.118C101.085 186.332 100.589 191.477 105.334 189.769ZM493.531 163.511C498.655 161.307 496.694 164.354 498.903 160.922C500.3 158.719 511.022 158.16 508.212 152.662C506.815 149.915 502.862 147.643 499.008 148.56C493.821 149.794 488.491 153.916 483.367 151.344C481.221 150.268 478.264 152.525 479.408 154.375C481.448 157.701 480.989 157.896 482.323 160.854C483.905 164.375 487.489 164.586 491.317 164.18C492.139 164.112 492.824 163.827 493.531 163.511ZM1002.01 329.221C1005.42 330.033 1004.94 325.505 1005.01 323.412C1005.3 310.96 995.907 320.064 1000.82 328.025L1002.01 329.221ZM267.106 361.737C265.983 361.447 264.861 360.973 263.696 360.793C263.39 360.746 263.073 360.783 262.784 360.883C259.009 362.175 256.684 364.178 252.414 365.369C251.159 365.717 248.529 366.339 247.09 365.063C246.932 364.926 246.821 364.747 246.737 364.563C242.266 354.905 252.003 349.291 235.46 348.273C235.344 348.268 235.218 348.268 235.102 348.278C232.83 348.479 230.526 348.864 228.264 348.816C227.352 348.795 226.551 348.194 226.435 347.372C226.145 345.242 228.091 342.016 228.734 341.288C231.327 338.368 230.753 336.28 232.519 333.533C234.142 331.014 233.505 329.464 229.904 329.358C224.3 329.2 222.213 330.718 219.334 334.814C218.828 335.531 218.775 336.338 217.647 337.514C216.962 338.231 209.634 340.176 208.822 340.134C197.509 339.591 195.907 335.563 193.682 327.861C192.733 324.577 193.693 323.196 193.134 320.27C193.029 319.711 193.229 319.316 193.535 318.857C194.23 317.813 195.364 317.07 195.696 315.879C195.96 314.919 195.533 313.965 195.554 313.005C195.554 312.9 195.606 312.81 195.664 312.742C198.701 309.052 199.181 307.581 204.911 306.005C210.504 304.465 214.305 304.66 221.517 305.014C229.725 305.414 231.976 299.995 243.784 302.32C252.398 304.012 252.641 306.057 254.807 313.517C255.609 316.279 257.67 320.734 262.003 316.727C266.442 312.626 255.261 302.81 264.386 293.653C264.502 293.537 264.634 293.432 264.776 293.347C266.874 292.087 268.814 291.977 271.034 290.701C273.327 289.388 275.077 288.197 277.718 286.615C281.772 284.185 282.278 284.828 283.87 280.063C285.236 275.972 288.383 275.571 291.567 272.445C296.343 267.759 301.103 263.33 307.661 260.199C307.825 260.12 307.978 260.02 308.115 259.909C313.244 255.481 312.232 252.249 319.349 248.78C325.959 245.559 323.392 246.06 326.914 248.744C330.288 251.316 333.245 246.656 335.955 245.633C338.664 244.605 339.761 244.758 342.897 242.992C343.003 242.934 352.36 239.982 347.257 237.378C344.474 235.954 342.924 240.778 337.151 236.692C331.632 232.781 338.907 230.672 334.747 227.435C333.635 226.571 327.789 224.631 331.495 222.823C333.187 221.995 336.777 222.237 337.642 224.093C337.979 224.81 339.223 226.803 339.929 226.291C343.182 223.924 342.913 223.455 346.999 223.534C347.094 223.534 347.199 223.534 347.294 223.524C351.216 223.165 353.731 221.494 357.337 220.134C359.772 219.217 359.335 222.591 358.876 224.167C357.352 229.365 353.014 224.71 351.954 230.941C351.195 235.406 358.254 233.609 360.621 235.981C363.336 238.701 367.184 238.422 370.542 238.743C375.208 239.186 374.037 234.141 373.542 232.512C371.069 224.367 365.845 227.609 367.775 218.389C367.785 218.336 367.801 218.278 367.817 218.226C369.878 211.525 368.903 210.318 365.255 204.556C365.123 204.345 364.949 204.15 364.733 204.008C363.805 203.428 363.062 202.105 362.25 201.62C356.693 198.341 354.701 197.36 355.549 191.482C355.897 189.068 354.912 186.828 354.643 184.919C354.174 181.556 352.877 180.154 352.123 176.838C352.06 176.564 352.102 175.994 352.118 175.335C352.165 173.459 349.392 172.81 348.438 174.476C348.169 174.94 347.9 175.372 347.631 175.688C344.969 178.825 342.265 182.995 337.241 180.533C330.456 177.201 336.766 172.267 335.053 168.24C333.598 164.813 331.637 166.078 329.919 163.026C329.128 161.618 327.288 159.009 325.248 157.723C325.037 157.591 324.8 157.506 324.547 157.459C322.48 157.074 315.606 156.705 315.548 156.721C309.217 158.002 310.355 162.72 309.391 166.062C308.378 169.563 307.335 170.817 305.331 173.506C305.273 173.58 305.205 173.659 305.136 173.727C301.393 177.439 302.922 178.029 304.625 182.215C304.678 182.347 304.72 182.494 304.741 182.631C305.737 189.295 305.574 192.321 297.055 193.918C291.172 195.025 290.855 199.617 290.56 203.665C290.386 206.064 290.312 206.986 289.785 209.185C289.406 210.766 288.952 212.184 287.429 212.975C286.68 213.365 285.71 213.249 285.125 212.669C284.234 211.784 284.334 211.03 283.464 209.327C281.43 205.347 285.821 208.283 284.213 205.869C282.299 203.001 283.333 204.24 283.712 199.611C284.123 194.609 277.481 192.948 271.719 190.534C268.683 189.263 264.66 185.663 261.666 184.007C255.366 180.523 256.231 179.674 253.59 174.502C253.516 174.36 253.458 174.202 253.426 174.049C251.834 166.642 255.609 164.813 261.16 159.847C261.213 159.8 261.271 159.742 261.318 159.689C263.97 156.652 267.011 156.557 269.921 153.11C273.032 149.43 270.76 147.638 278.298 146.731C286.527 145.74 283.554 144.86 288.794 141.876C290.281 141.027 290.439 141.776 289.479 143.231C287.56 146.146 284.355 152.989 293.106 150.042C294.814 149.467 297.44 147.712 300.292 149.783C301.504 150.664 304.973 152.904 307.045 151.302C310.292 148.782 305.716 144.306 303.919 140.289C303.397 139.119 303.803 137.78 304.925 137.036C309.032 134.316 312.701 133.067 313.782 128.106C314.557 124.537 316.76 122.212 318.215 119.566C319.902 116.498 321.088 115.802 323.904 114.11C326.265 112.686 326.676 109.545 327.694 113.757C328.901 118.791 332.148 119.213 326.481 124.015C323.861 125.797 326.397 127.642 328.121 127.674C331.084 127.727 331.374 127.616 334.094 127.347C336.492 127.11 339.755 126.709 338.264 130.389C337.035 133.425 332.691 135.74 330.535 139.282C329.486 141.006 325.401 142.477 322.712 142.05C318.178 142.171 314.362 146.267 320.187 147.263C329.328 148.829 329.771 145.297 334.711 153.141C335.533 154.449 335.76 155.124 337.431 156.515C339.355 158.113 346.271 162.994 349.318 161.376C352.771 159.547 347.932 155.709 353.414 158.313C356.736 159.889 359.619 157.016 359.888 154.09C360.03 152.53 359.319 150.869 358.744 149.33C358.66 149.103 358.528 148.898 358.354 148.724C356.488 146.858 351.996 142.725 355.718 141.328C356.815 140.916 357.706 142.735 358.66 143.726C358.971 144.048 359.393 144.274 359.862 144.322C361.169 144.454 361.675 145.313 363.056 144.158C365.682 141.965 370.69 138.639 371.175 135.407C371.517 133.12 367.875 132.967 366.82 132.044C364.221 129.777 362.034 128.233 359.472 126.219C359.419 126.182 359.366 126.14 359.313 126.103C353.167 121.949 357.094 121.485 358.755 116.667C359.788 113.672 359.129 113.546 358.032 110.625C357.621 109.539 355.818 107.726 354.363 106.671C352.408 105.253 351.954 104.779 349.904 102.496C348.28 100.693 345.054 100.477 343.182 96.9505C341.574 93.9192 341.558 91.4995 340.836 87.8041C340.567 86.4229 339.497 85.1471 336.529 84.4302C333.229 83.6289 326.819 82.9699 322.949 83.2862C319.433 83.5762 321.125 82.4744 316.876 81.4991C314.362 80.9245 311.425 78.3256 307.914 82.854C306.344 84.8783 305.331 85.242 301.968 88.463C296.849 93.3604 290.876 101.711 299.648 108.29C303.318 111.042 307.456 111.832 303.101 116.54C301.183 118.612 300.313 118.707 297.524 121.385C294.092 124.674 292.21 124.458 294.055 118.881C296.422 111.722 291.456 116.303 289.047 110.625C287.935 108.005 289.785 106.065 288.968 102.728C288.156 99.3913 288.061 92.8069 290.481 89.6123C294.614 84.1508 300.56 87.0871 303.581 80.3973C307.503 71.7043 292.917 76.0956 289.458 80.2234C288.873 80.9193 286.796 84.4776 286.538 81.6204C286.127 77.0445 291.367 72.6005 283.169 72.9484C280.734 73.0539 277.386 72.8641 276.569 74.6617C275.567 76.8653 275.014 75.5263 275.019 78.1516C275.024 84.8783 269.015 76.0798 268.472 83.5445C268.256 86.4862 271.803 88.6317 272.441 91.5944C272.831 93.4026 273.221 94.7996 274.919 96.4391C276.775 98.2315 274.197 102.934 272.705 103.756C269.779 105.364 268.941 105.274 266.563 106.888C265.351 107.71 263.801 107.478 262.678 108.859C261.455 110.367 258.303 108.738 259.842 111.738C260.912 113.815 262.457 115.602 258.856 117.136C256.985 117.932 251.971 117.094 250.537 115.981C249.631 115.28 248.887 114.632 248.197 114.015C246.362 112.381 247.501 109.571 250.058 109.376C250.464 109.344 250.938 109.297 251.481 109.223C259.768 108.121 252.151 104.721 255.909 103.819C262.262 102.291 262.262 102.185 258.788 96.7185C258.371 96.0648 253.147 91.431 256.273 89.8917C256.848 89.6123 257.101 89.8758 258.013 88.4999C259.905 85.6427 262.277 81.6362 264.977 78.5154C268.06 74.9517 271.766 72.59 264.734 70.3969C261.56 69.4059 258.308 71.9363 256.331 73.1909C254.713 74.2189 254.006 75.21 253.363 76.2643C252.567 77.5665 250.827 78.0251 249.325 77.4346C248.344 77.0445 247.49 77.1922 244.997 77.2185C242.888 77.2396 241.576 74.3296 240.073 72.7059C235.829 68.1038 237.353 67.7611 235.966 61.9622C235.329 59.2842 232.324 58.6885 228.691 56.7169C216.967 50.3434 214.669 57.7976 207.636 65.315C204.621 68.536 199.333 70.7132 203.261 75.1415C209.344 82.0052 212.312 71.0348 216.772 74.2716C218.559 75.5685 216.208 76.976 216.424 79.2956C216.714 82.4059 211.158 81.8892 212.592 84.4513C214.179 87.298 220.051 88.0466 214.927 89.8811C211.79 91.004 209.503 92.0109 211.221 95.332C211.495 95.8592 212.307 95.68 213.282 96.2704C218.417 99.3702 218.138 97.989 217.969 103.867C217.885 106.714 222.961 107.077 225.724 106.898C226.288 106.861 227.005 107.146 227.548 107.098C227.758 107.083 227.959 107.062 228.154 107.046C231.132 106.798 232.603 110.261 230.22 111.906C229.962 112.085 229.698 112.259 229.435 112.439C228.939 112.766 227.516 111.332 226.583 110.214C225.998 109.508 225.08 109.091 224.105 109.112C219.166 109.234 216.372 109.634 215.333 104.299C214.147 98.1893 211.079 100.203 205.849 97.0453C202.391 94.9578 201.326 90.3292 196.218 90.0445C190.43 89.723 195.685 88.5896 191.7 87.8884C189.275 87.4614 186.571 92.7753 185.785 87.8831C185.163 83.9874 189.797 83.0279 181.958 83.7818C178.373 84.1244 174.773 83.2546 170.65 83.65C169.053 83.8029 165.157 84.3353 163.265 83.5867C161.92 83.0596 160.724 83.5551 159.427 83.4707C156.749 83.2915 155.004 84.272 152.162 84.019C149.706 83.8028 148.066 79.5697 146.327 77.7404C146.1 77.5032 145.805 77.3292 145.478 77.2291C144.176 76.8232 145.32 77.034 142.773 76.3592C139.99 75.6212 134.413 73.9395 131.244 71.5251C129.895 70.4918 126.104 67.798 125.145 66.3905C122.915 63.1273 122.383 63.9444 118.793 62.8901C118.455 62.7899 118.418 62.6106 118.302 62.3418C117.19 58.2668 113.505 55.6151 111.707 51.8037C110.885 50.5279 109.551 50.8706 108.16 51.0815C102.498 51.9407 96.9414 51.2976 91.3218 52.4521C87.2995 53.2798 83.3615 54.9825 79.4763 56.2161C74.6738 57.7396 71.6742 58.8941 66.2707 58.0981C63.4082 57.6763 60.2293 60.0908 60.5614 62.8215C61.0517 66.8755 60.1503 70.6816 60.5825 74.6934C60.8145 76.8653 62.4962 78.7684 62.6016 80.9561C62.6121 81.2092 62.5489 81.4675 62.4276 81.6942C61.0359 84.2457 58.1048 84.5673 55.7747 83.1175C51.025 80.1548 47.7196 78.5153 41.5939 79.7805C41.5201 79.7964 36.8757 80.06 36.5067 81.1143C36.143 82.1739 37.3818 82.3268 36.997 83.7712C35.9901 87.5458 31.9572 90.3239 37.9248 92.8227C39.8595 93.6293 41.9155 93.4079 43.9556 94.0774C44.7569 94.341 45.3948 94.4042 46.3331 94.8365C47.0396 95.1633 47.8356 94.3673 49.0639 94.341C50.0233 94.3146 51.2885 90.9196 52.4852 93.8507C53.4447 96.2124 49.5489 102.607 45.9641 103.081C42.3794 103.556 40.4394 104.109 36.7176 103.846C35.8425 103.783 32.7058 104.167 32.3473 105.364C31.4406 108.406 29.411 109.281 27.0071 111.237C23.0692 114.442 22.7898 116.134 22.5104 120.763C22.0781 127.959 30.4759 125.18 27.1284 131.454C26.5221 132.592 23.6174 135.629 26.4167 136.525C28.9155 137.321 35.6632 137.353 35.9637 140.057C36.5805 145.587 30.8818 146.657 26.1795 150.263C26.1004 150.326 20.5493 152.772 19.4633 154.106C18.525 155.255 16.7906 154.913 14.4658 154.649C13.0793 154.491 9.91103 156.51 7.93942 157.227C5.96781 157.944 2.8206 158.424 0.680297 159.51C-0.020838 159.863 -0.458388 161.102 0.796275 161.418C1.90333 161.697 2.76261 161.355 3.65353 160.901C4.37048 160.532 5.1296 160.232 5.91508 159.995C9.3944 158.93 12.8263 157.57 16.4268 157.67C19.7902 157.765 20.5019 156.146 24.3397 155.603C25.9581 155.377 32.2946 152.736 33.66 151.286C36.0323 148.755 37.4925 147.912 40.2391 148.144C41.267 148.233 42.0051 149.056 41.9471 149.994C41.8259 151.892 43.0752 152.345 46.6336 151.491C47.7038 151.233 53.5712 149.826 52.4747 147.474C52.3429 147.195 52.2954 146.894 52.3376 146.594C52.5379 145.107 52.2111 142.635 50.8773 145.128C50.1446 146.504 49.2009 147.327 47.3506 146.657C45.5002 145.988 48.8477 143.789 49.7808 142.392C50.482 141.349 51.9633 140.547 52.6697 138.623C53.6081 136.056 55.3372 136.188 58.5213 136.124C59.9816 136.093 60.2293 133.699 60.3453 136.04C60.4349 137.79 61.3838 137.79 58.7954 139.161C58.0627 139.551 59.8761 140.352 62.649 139.667C65.8068 138.882 67.4252 139.815 72.9552 137.448C79.1652 134.785 83.4406 139.857 89.7877 142.962C92.3023 144.19 96.0241 145.408 98.0326 148.144C100.711 151.787 101.349 156.463 105.988 159.246C107.727 160.29 108.344 160.274 108.212 162.652C108.112 164.502 107.369 165.92 108.655 168.345C110.442 171.714 110.653 174.692 115.382 177.07C116.173 177.465 119.193 178.44 118.102 180.212C115.967 183.686 118.793 186.69 119.278 190.634C119.515 192.568 119.13 196.069 120.037 198.299C120.754 200.065 116.394 200.191 116.115 201.53C115.16 206.101 120.796 211.062 121.365 214.941C122.383 221.921 119.562 227.288 116.737 233.155C112.92 241.089 108.086 247.937 107.69 256.556C107.68 256.757 107.706 256.957 107.769 257.147C109.093 261.359 111.096 264.216 111.249 269.05C111.27 269.683 111.871 274.411 112.145 274.849C116.742 282.187 122.008 284.096 125.83 292.214C126.737 294.138 127.997 298.013 129.721 300.195C130.269 300.891 131.334 302.056 131.798 302.984C132.262 303.912 132.372 305.093 131.645 305.973C131.018 306.732 129.916 307.191 130.232 308.214C130.374 308.672 130.896 308.699 131.318 308.936C134.613 310.797 136.358 313.111 137.57 316.258C137.881 317.07 137.955 317.861 138.372 318.583C139.368 320.307 140.981 321.477 142.278 323.022C142.974 323.855 143.401 325.383 144.924 324.619C146.284 323.939 145.293 322.521 144.471 321.851C142.684 320.396 141.967 318.588 141.366 316.727C139.605 311.297 137.47 306.505 134.471 301.503C133.385 299.689 131.887 297.86 131.945 295.714C131.977 294.597 132.647 293.532 134.059 293.363C136.252 293.105 137.66 294.591 138.235 296.247C138.809 297.902 138.145 299.679 138.593 301.292C139.705 305.282 142.879 307.423 145.963 310.391C147.26 311.64 148.024 313.137 148.404 314.798C148.525 315.32 148.451 315.852 148.788 316.342C148.999 316.648 149.252 316.822 149.616 317.091C156.743 322.342 161.499 326.011 161.103 334.419C160.982 336.944 161.894 338.647 164.05 339.865C169.986 343.228 174.13 345.384 181.225 347.293C185.168 348.352 190.018 350.656 194.995 350.825C198.917 350.956 204.178 350.419 207.663 352.575C214.927 357.072 223.736 357.889 231.011 361.579C233.13 362.654 233.626 361.458 235.118 363.176C237.479 365.902 234.243 365.707 240.184 366.919C244.211 367.736 244.939 369.012 249.863 368.885C251.27 368.849 250.922 371.948 254.792 370.868C256.052 370.514 256.479 369.761 256.742 368.78C256.805 368.548 256.932 368.337 257.095 368.147C257.391 367.81 257.644 367.425 258.055 367.214C259.557 366.45 260.917 366.466 262.478 366.777C262.958 366.872 263.39 367.125 263.653 367.499C265.883 370.651 266.347 374.115 266.627 377.742C266.811 380.13 266.453 381.132 264.001 382.75C261.55 384.368 255.777 391.633 255.097 393.051C252.878 397.685 254.396 399.387 252.862 403.115C249.425 411.47 252.81 410.511 258.34 416.752C260.728 419.446 260.838 421.529 263.047 424.913C268.082 432.647 269.906 438.129 280.043 442.979C284.687 445.204 289.601 448.14 294.419 450.164C294.936 450.381 295.32 450.797 295.473 451.298C296.67 455.294 298.747 455.241 300.102 460.65C301.694 467.002 303.797 477.361 302.743 484.731C301.32 494.647 302.648 504.832 300.371 514.379C299.453 518.227 298.241 521.643 296.612 524.717C294.772 528.18 297.234 531.464 295.969 535.413C295.015 538.376 296.47 541.475 295.168 544.148C294.129 546.283 292.226 547.548 293.997 549.994C294.798 551.102 296.427 548.323 296.58 545.703C296.728 543.278 300.444 542.582 298.067 548.972C297.587 550.258 293.829 555.472 295.658 557.232C297.761 559.257 291.324 561.102 291.108 561.297C288.146 563.985 289.126 565.34 291.187 567.602C293.723 570.385 293.254 572.842 292.822 576.095C292.79 576.316 292.605 576.406 292.5 576.595C292.041 577.418 292.041 578.272 292.748 578.973C293.454 579.679 294.63 579.505 295.194 580.375C295.463 580.786 295.11 581.546 295.141 581.999C295.189 582.653 295.32 583.211 295.558 583.807C296.016 584.977 296.717 586.053 296.96 587.271C297.102 587.982 296.934 588.741 297.092 589.443C297.245 590.144 297.724 590.808 298.547 590.903C299.369 591.003 299.954 590.455 300.719 590.507C301.272 590.55 301.815 590.929 301.841 591.361C301.915 592.621 300.476 593.164 300.613 594.435C300.645 594.73 301.051 594.983 301.309 595.241C302.247 596.174 302.985 597.245 303.428 598.42C303.803 599.422 303.903 600.545 304.778 601.304C305.653 602.063 306.322 601.889 307.393 601.536C308.315 601.23 308.726 600.872 309.828 601.478C310.271 601.726 311.721 602.88 311.599 603.528C311.52 603.924 311.61 604.093 311.536 604.388C311.225 605.606 309.654 604.773 308.842 604.783C306.676 604.815 306.628 606.022 307.456 607.419C307.825 608.046 308.668 608.584 309.391 609.011C310.513 609.675 311.831 610.266 313.081 610.73C313.777 610.988 314.604 611.225 315.3 611.13C316.876 610.919 317.878 609.707 319.396 609.533C320.914 609.354 322.317 609.918 323.772 609.997C324.457 610.034 325.2 610.039 325.67 609.649C326.898 608.626 325.865 607.693 324.852 606.997C323.334 605.948 321.837 604.883 320.519 603.76C319.396 602.801 318.743 601.905 318.089 600.756C317.857 600.35 317.409 599.733 317.119 599.359C316.681 598.794 316.381 598.125 315.996 597.556C315.522 596.849 315.11 596.227 314.799 595.458C314.762 595.357 314.704 595.31 314.773 595.147C314.841 594.983 315.163 595.02 315.353 594.899C316.897 593.918 314.957 592.416 313.924 591.709C313.814 591.636 313.703 591.715 313.666 591.636C311.404 587.065 313.339 584.282 316.813 580.586C328.384 568.271 320.408 574.966 317.393 566.611C315.268 560.728 323.819 560.38 324.884 554.987C325.2 553.374 326.376 548.687 329.655 548.94C332.185 549.135 331.263 547.401 329.897 546.947C326.492 545.825 325.306 542.488 329.365 541.686C337.077 540.157 335.269 542.155 339.128 535.666C342.987 529.177 352.181 532.846 356.767 526.272C360.589 520.789 352.787 516.224 361.818 515.328C365.745 515.528 368.434 514.126 370.785 511.616C373.753 508.453 374.217 505.022 377.09 501.89C383.41 495.011 385.883 486.776 388.603 478.547C390.975 471.367 395.62 471.894 401.534 468.357C405.493 465.99 407.723 466.027 410.95 463.059C414.529 459.764 414.218 461.599 416.965 455.826C418.994 451.556 421.309 444.007 420.892 438.298C420.423 431.851 423.897 426.732 427.671 421.571C430.191 418.118 428.035 418.065 429.654 414.09C431.378 409.857 432.859 405.608 426.844 402.709C423.096 400.9 420.692 399.709 417.086 397.98C408.804 394.01 399.088 394.727 390.3 391.58C388.424 390.911 386.136 390.041 384.096 389.788C381.318 389.44 380.848 390.231 378.049 388.744C376.304 387.821 375.049 387.147 373.7 384.806C371.47 380.947 369.214 377.784 364.432 374.806C362.26 373.451 359.208 372.533 355.845 370.957C351.648 368.986 345.386 371.347 340.731 367.926C336.919 365.121 335.876 364.816 332.349 362.839C332.159 362.733 331.985 362.591 331.843 362.438C326.155 356.16 322.981 355.432 314.125 355.58C309.079 355.664 306.491 354.863 302.574 354.288C297.64 353.561 292.869 356.998 291.356 352.601C290.096 348.953 285.758 351.22 283.29 352.654C278.382 355.511 274.35 358.569 269.689 361.505C269.442 361.663 269.152 361.758 268.857 361.8C268.266 361.795 267.723 361.895 267.106 361.737C267.122 361.769 267.117 361.758 267.106 361.737ZM612.729 193.939C610.958 189.079 606.044 198.536 610.773 197.497C612.602 197.113 612.935 195.299 612.729 193.939ZM637.696 286.431C644.233 286.415 641.006 281.729 635.819 282.488C632.303 283.015 631.575 285.814 637.696 286.431ZM1010.69 370.625C1013.88 370.905 1018.3 366.239 1013 364.531C1012.04 364.23 1008.05 361.025 1007.9 365.343C1007.79 368.105 1010.67 365.997 1009.63 368.195C1009.09 369.323 1009.84 369.903 1010.69 370.625ZM965.858 337.551C966.148 331.209 953.428 338.468 959.696 340.951C962.943 342.237 965.089 339.859 965.858 337.551ZM1023.21 361.22C1021.23 359.776 1020.32 362.839 1017.82 359.233C1017.17 358.316 1011.96 351.821 1010.45 354.214C1009.66 355.464 1012.8 355.321 1013.4 356.908C1015.52 362.733 1025.37 366.608 1023.21 361.22ZM912.05 384.801C908.155 383.477 907.759 385.681 910.653 388.059C911.655 388.849 913.379 394.906 918.962 395.771C920.854 396.072 920.19 398.765 922.088 401.37C925.003 405.387 926.442 405.84 929.125 410.774C930.707 413.679 933.933 415.598 936.769 417.854C938.288 419.067 946.221 421.518 947.286 421.376C950.992 420.849 946.849 414.949 949.848 412.061C950.971 410.985 950.202 409.314 949.743 408.08C947.45 407.801 946.975 412.182 941.725 402.693C937.123 394.379 929.711 396.087 927.191 393.272C925.066 390.911 924.275 387.9 919.505 387.653C919.278 387.637 918.882 388.285 917.86 386.598C916.9 385.027 914.217 385.344 912.05 384.801ZM407.091 27.2112C407.507 26.858 407.94 26.4152 408.388 25.9882C409.416 25.0024 411.118 26.3519 410.148 27.3905C409.078 28.5344 407.702 29.3146 406.052 28.5344C405.177 28.1074 406.616 27.5064 407.091 27.2112ZM502.456 36.5949C502.45 36.5738 503.642 34.9501 502.561 33.9537C499.635 31.2494 496.773 37.9971 490.905 36.8532C486.709 36.0361 494.58 34.9026 493.425 33.0786C492.845 32.1561 495.929 31.4655 497.237 31.5815C500.437 31.8714 506.863 32.6938 506.083 28.5344C505.766 26.8369 503.626 27.8649 502.092 26.605C501.649 26.2412 498.07 24.6439 498.223 23.4894C498.46 22.609 498.644 21.7603 497.226 21.5284C494.627 21.1013 495.676 20.2948 495.233 18.8872C494.105 15.3078 494.559 16.5782 489.835 14.4801C483.757 11.7863 480.23 10.9797 473.04 12.7984C469.887 13.5945 470.731 11.9971 467.605 13.4047C464.779 14.6804 461.031 10.6159 456.339 12.6666C453.925 13.721 454.631 14.6857 455.506 15.8507C455.954 16.4464 455.522 17.2636 454.731 17.3268C449.365 17.7696 450.097 19.3828 448.832 22.9253C447.451 26.7948 448.843 27.5012 446.286 23.1046C445.247 21.3175 445.258 22.2506 444.256 19.1403C443.112 15.5819 439.638 14.2429 439.243 18.3759C438.768 23.2891 434.736 26.6208 434.962 23.9006C435.31 19.7834 437.05 17.8909 433.312 15.2814C432.632 14.8069 433.507 15.5766 432.121 14.8333C426.839 12.0077 426.496 18.4128 420.054 16.0194C415.852 14.459 418.878 10.695 411.82 7.86939C406.959 5.92414 400.269 3.14069 394.697 1.85967C394.476 1.80695 394.281 1.69624 394.122 1.54336C391.223 -1.28226 388.092 0.620831 383.532 0.699906C381.054 0.74208 373.768 -0.227915 373.331 3.8102C373.157 5.40225 369.767 5.09122 368.871 4.71166C365.882 3.45172 365.935 4.15286 363.341 4.83291C358.285 6.15083 355.576 4.93307 351.865 5.22829C348.87 5.46551 350.141 6.46712 348.19 6.8625C348.074 6.88359 347.958 6.9205 347.853 6.97322C346.445 7.66908 345.354 8.92902 347.584 9.46146C349.898 10.015 347.326 12.6087 347.178 14.0531C347.067 15.1496 348.391 20.9274 344.996 19.2721C339.07 16.3832 348.064 8.23314 340.752 6.37224C338.907 5.90306 337.821 9.14516 335.654 10.5843C329.929 14.3799 322.116 20.0207 324.789 26.9424C326.618 31.6711 321.605 29.7996 322.064 35.5089C322.601 42.1776 334.399 42.0405 329.507 47.5705C321.763 56.3321 318.532 56.3637 306.987 51.403C300.908 48.7935 302.421 54.2497 304.931 56.7643C310.081 61.9253 307.904 61.414 305.674 67.5818C302.833 75.4367 311.689 76.1694 319.507 77.2027C321.737 77.4979 330.583 80.3393 332.681 78.1569C335.449 75.2785 339.698 78.3256 339.17 72.4845C338.137 61.0819 318.152 68.5308 318.305 63.3592C318.331 62.5527 324.415 61.6301 325.127 61.8357C327.931 62.6528 331.484 63.4278 333.651 64.0656C340.604 66.1111 341.226 69.8856 346.25 66.2639C348.354 64.8037 345.275 66.9492 348.601 64.6561C351.933 62.3629 348.575 57.5762 354.258 56.1528C356.092 55.6942 357.7 55.0669 360.832 54.3183C369.382 52.2834 368.66 44.6395 377.759 41.0652C384.238 38.519 388.872 36.8637 393.421 32.2562C395.767 29.884 400.322 29.9578 395.825 32.6305C393.664 33.9168 390.427 35.9781 390.49 38.0551C390.554 40.0847 391.951 40.1691 393.5 40.2587C394.17 40.3008 394.687 40.8175 394.665 41.429C394.613 42.884 393.848 44.6553 392.631 45.2826C386.189 48.5721 374.148 46.0681 369.651 51.0656C365.376 55.8154 376.515 59.5267 372.013 61.3086C368.07 62.869 367.247 64.8248 368.086 68.3621C368.723 71.0559 370.173 72.8588 372.804 74.2611C373.104 74.4193 373.442 74.5352 373.784 74.5932C379.731 75.5316 386.816 72.1366 391.487 76.781C395.625 80.8929 396.026 91.1938 396.405 95.7749C396.827 100.825 395.277 102.77 394.202 106.524C393.611 108.58 394.845 108.058 393.511 109.755C393.168 110.188 394.634 112.033 396.927 111.237C398.018 110.857 401.693 112.512 401.171 114.416C400.285 120.431 398.73 115.222 394.518 115.749C392.752 115.971 394.576 118.153 391.945 118.422C387.607 118.87 387.796 123.346 390.047 126.045C392.298 128.744 392.478 129.182 389.109 131.939C384.676 135.56 383.563 140.837 384.175 145.555C385.282 154.111 388.635 154.206 390.643 161.771C391.466 164.866 391.176 173.812 396.616 174.655C399.336 175.077 399.109 175.467 401.434 176.59C404.719 178.171 405.304 177.829 407.08 180.765C408.646 183.348 411.493 182.489 413.854 181.566C418.383 179.79 419.775 169.853 423.138 166.616C425.879 163.98 427.049 163.885 428.989 161.265C431.43 157.96 437.682 154.886 439.169 151.644C440.318 149.14 441.984 151.017 443.998 150.379C453.397 147.437 455.169 141.549 467.325 139.013C475.744 137.258 473.087 137.01 479.028 133.684C485.143 130.262 489.229 126.72 490.246 120.373C490.289 120.098 490.289 119.809 490.241 119.529C489.255 113.841 486.656 113.061 491.253 107.42C494.638 103.266 496.499 103.677 499.867 97.8994C501.67 94.8154 505.186 93.0599 501.407 90.0867C496.541 86.2595 498.876 84.0612 497.015 80.8665C495.766 78.7209 505.766 83.2599 503.357 77.9618C502.097 75.1889 499.978 75.0729 500.279 70.8714C500.347 69.912 502.461 65.2728 502.967 63.5912C503.99 60.1962 505.223 57.8503 507.796 55.1143C510.295 52.4574 507.063 53.1901 511.196 50.0166C512.62 48.9253 512.952 48.7514 514.871 47.3807C516.647 46.1155 523.205 42.536 522.794 39.663C522.24 35.7777 516.415 34.4967 512.361 36.2153C511.006 36.7899 502.899 42.6942 502.577 38.4716C502.519 37.6123 502.598 37.5701 502.456 36.5949ZM672.141 286.679C673.559 283.437 664.413 284.723 667.164 287.522C668.788 289.177 670.992 288.049 672.141 286.679ZM964.63 396.741C959.923 396.883 960.007 399.472 961.341 402.677C963.112 406.973 963.65 402.767 964.504 408.086C965.859 411.976 969.501 412.05 974.04 412.857C976.955 413.384 977.082 413.052 980.498 414.001C986.85 415.761 986.244 411.96 990.013 407.627C995.116 401.797 998.532 400.51 993.572 393.362C989.217 385.913 996.318 388.449 996.487 384.716C996.571 383.182 990.946 379.45 989.492 379.803C988.785 379.977 978.996 387.711 978.015 388.575C976.576 389.861 975.432 390.795 973.85 391.954C971.789 393.383 971.288 392.661 969.101 395.37C967.962 396.81 966.628 396.636 964.63 396.741ZM1025.66 380.805C1027.03 379.128 1029.19 375.607 1025.51 374.716C1023.29 374.168 1022.2 377.858 1017.72 376.983C1008.39 375.211 1007.1 387.51 1012.41 379.977C1013.68 378.179 1017.86 379.281 1018.5 382.102C1018.92 384.005 1018.55 385.528 1021.78 385.707C1023.24 385.786 1024.45 382.291 1025.66 380.805ZM1003.09 356.344C1009.23 357.488 1006.09 351.273 1006.2 349.475C1006.35 346.66 1009.36 342.659 1005.43 339.844C1002.89 338.03 1000.39 339.475 999.534 342.29C997.931 347.699 996.703 349.828 1001.14 354.9C1001.86 355.743 1002.05 355.864 1003.09 356.344ZM957.134 429.441C966.544 431.36 967.588 429.705 975.168 430.464C977.293 430.675 981.394 432.842 981.21 429.916C981.083 428.102 971.9 424.597 970.819 424.402C966.465 423.627 964.799 425.493 961.177 424.929C959.511 423.553 960.097 421.476 954.704 421.476C949.247 421.476 945.668 424.486 952.663 427.781L957.134 429.441ZM693.465 123.478C687.703 127.12 698.31 131.812 698.921 125.845C699.274 122.682 696.359 122.36 693.465 123.478ZM1010.1 420.58C1017.54 414.855 1011.73 418.012 1010.27 412.071C1009.12 407.29 1020.13 405.819 1008.39 406.467C1006.31 406.589 1001.21 406.968 1003.31 403.694C1006.14 399.229 1017.13 405.408 1022.26 401.259C1024.55 398.75 1021.18 398.966 1018.78 399.087C1014.87 399.298 1013.76 399.946 1009.2 399.709C1007.68 399.635 1007.14 399.651 1005.63 399.825C1002.06 400.452 1001.81 403.726 1000.35 406.367C993.788 418.26 1001.27 413.679 999.74 418.877C999.039 421.265 1000.1 422.383 1002.54 419.525C1005.4 416.157 1006.62 416.325 1008.8 419.889C1009.04 420.332 1009.43 420.98 1010.1 420.58ZM1033.25 284.385C1035.16 283.384 1037.14 279.314 1039.87 279.999C1040.33 280.105 1041.72 279.488 1043.55 279.667C1045.47 279.841 1047.68 277.306 1050.43 276.251C1053.89 274.896 1055.23 274.949 1056.78 271.834C1058.45 268.523 1062.42 276.167 1060.63 265.16C1060.32 263.225 1060.49 261.443 1058.95 260.072C1058.26 259.471 1060.51 258.275 1060.7 255.439C1061.44 243.941 1046.64 236.914 1050.95 254.4C1052.7 261.427 1050.32 257.885 1050.51 261.09C1050.66 263.589 1045.08 261.158 1042.41 264.311C1039.45 267.795 1040.76 268.291 1035.24 270.068C1032.31 271.001 1028.85 273.552 1027.27 275.93C1026.48 277.126 1026.79 279.625 1025.96 282.003C1025.04 284.607 1026.22 282.619 1026.83 285.999C1027.06 287.285 1027.77 290.506 1030.2 289.662C1033.12 288.682 1030.16 285.408 1033.25 284.385ZM992.702 428.508C986.539 428.456 988.432 432.873 994.594 430.569C998.237 429.215 994.452 428.629 992.702 428.508ZM1027.33 430.095C1029.12 428.192 1016.5 431.313 1015.28 432.209C1012.92 433.954 1011.48 438.83 1019.79 433.511C1024.18 430.712 1024.44 431.766 1026.92 430.359L1027.33 430.095ZM1001.12 428.403C996.682 430.712 1005.43 433.195 1010.55 430.533C1015.79 427.802 1003.65 427.891 1001.12 428.403ZM1034.35 410.173C1024.62 412.182 1042.57 415.756 1040.28 411.565C1039.45 410.052 1035.97 410.068 1034.35 410.173ZM283.712 39.0409C281.192 41.9825 288.003 43.991 286.733 39.4258C286.274 37.7599 284.94 38.0393 283.712 39.0409ZM316.85 39.7421C316.94 39.6314 317.013 39.4995 317.056 39.3678C319.386 31.6711 306.533 27.2007 308.515 42.2303C309.433 49.0993 316.159 48.6565 313.244 44.1334C312.327 42.7047 314.056 42.9736 315.991 40.8069L316.85 39.7421ZM283.275 62.8162C285.441 68.9789 287.065 66.2323 292.21 65.1938C293.749 64.8775 294.688 72.6585 299.77 70.5287C299.896 70.476 301.088 69.2424 302.005 68.2883C303.07 67.1759 303.012 65.5048 301.873 64.4505C301.457 64.0656 301.04 63.6914 300.792 63.2907C298.188 59.0997 294.002 62.5843 297.687 55.1196C300.06 50.3118 293.233 49.7477 290.001 51.1395C284.15 53.6751 285.378 49.5369 282.257 48.9201C280.423 48.5511 279.236 53.4801 280.069 55.5782C281.171 58.4302 282.194 59.2262 283.275 62.8162ZM299.891 60.8605C299.891 60.8815 299.912 60.8815 299.891 60.8605V60.8605ZM14.5238 127.568C18.0663 126.725 16.0842 123.151 11.6929 124.716C10.0639 125.296 10.7123 128.011 14.5238 127.568ZM859.523 61.3507C864.104 61.4403 861.136 56.2425 857.889 59.0786C856.202 60.5389 857.857 61.493 859.523 61.3507ZM743.04 90.4716C740.61 95.1159 752.165 95.369 747.932 89.9391C746.314 87.9095 744.421 88.8742 743.04 90.4716ZM717.678 80.1285C720.841 75.9006 721.595 75.5158 725.944 72.2368C732.818 67.0758 724.13 64.1711 721.948 65.3361C717.825 67.5555 723.197 70.3021 714.077 72.2737C707.308 73.7339 702.522 79.459 700.54 84.7939C699.396 88.9691 701.225 91.6419 697.688 94.0405C696.211 95.0421 698.768 96.7712 699.127 99.6759C700.439 110.841 695.421 104.8 695.068 110.103C694.735 115.159 707.208 119.086 712.332 118.011C716.708 117.094 716.434 116.234 712.664 113.625C703.587 107.357 709.417 109.713 709.291 100.788C708.995 81.6257 708.352 92.4906 717.678 80.1285ZM596.276 77.5928C597.067 75.4947 597.794 68.8945 598.775 68.1354C600.003 67.1865 601.669 68.3462 601.795 70.0543C601.985 72.8904 601.295 75.3734 606.983 75.268C614.648 75.1467 609.107 66.8175 603.857 63.9813C602.544 63.2591 598.295 61.2189 601.358 59.6849C603.941 58.4144 611.896 61.6038 612.871 56.0737C613.478 52.5681 617.621 49.7846 608.269 48.3613C605.791 47.9922 598.838 49.3102 598.458 48.5563C597.979 47.6391 597.894 46.532 595.67 46.7798C591.315 47.2542 592.586 53.3483 580.261 53.3641C571.325 53.3799 576.265 59.6321 576.054 62.8742C575.637 69.5851 574.762 66.9598 580.677 69.564C586.613 72.1682 580.804 75.0044 584.778 76.3276C589.338 77.8406 587.546 77.4715 590.403 80.8349C591.922 82.6115 594.046 82.9857 593.983 80.429C593.967 79.3852 595.401 78.5944 596.276 77.5928ZM1061.17 228.774C1054.76 228.036 1056.44 225.184 1052.26 223.65C1047.15 221.8 1052.03 229.565 1051.28 232.138C1050.55 234.71 1045.4 232.649 1046.24 237.81C1046.59 240.014 1049.86 242.829 1051.61 239.149C1053.9 234.304 1056.04 240.24 1061.17 235.891C1063.5 233.904 1067.52 233.039 1065.39 230.24C1064.4 228.917 1062.84 228.933 1061.17 228.774ZM1032.79 397.231C1036.2 393.531 1032.22 390.979 1029.98 395.629C1029.69 396.456 1029.67 401.438 1031.29 398.797C1031.81 397.954 1031.91 397.832 1032.79 397.231ZM304.388 37.2644C309.449 29.7786 308.468 31.6816 303.117 24.2855C300.429 20.6058 297.266 21.7498 297.308 26.6261C297.35 32.0876 293.934 28.5292 293.291 30.622C292.727 32.5251 296.559 32.8783 298.204 35.3402C300.455 38.7457 300.371 43.0579 304.388 37.2644ZM902.825 34.2068C907.343 32.2563 897.395 24.8864 898.618 31.3601C899.013 33.4318 900.495 34.3069 902.825 34.2068ZM922.71 26.4152C919.921 26.7526 920.938 28.6451 916.152 28.06C915.962 28.0442 911.281 24.6703 910.59 29.1723C910.363 30.7696 913.632 36.326 915.503 36.9059C918.065 37.6966 916.837 36.7741 919.752 38.4716C924.144 41.0389 924.602 36.9691 928.166 35.2769C931.666 33.6322 940.412 29.8998 933.791 26.6893C930.686 25.1869 927.918 26.7526 923.859 26.4785L922.71 26.4152ZM282.173 22.9464C269.884 21.5389 277.133 27.7173 272.03 28.371C269.384 28.7031 265.91 25.324 265.013 29.146C264.702 30.485 267.286 35.609 270.638 35.3982C271.245 35.3455 281.904 32.562 282.363 32.3669C287.666 30.1159 290.623 23.7583 282.173 22.9464ZM18.4354 100.166C15.9787 94.4622 9.0412 95.448 11.3133 98.3369C12.0408 99.27 17.6024 105.169 18.662 101.663C18.8096 101.173 18.583 100.641 18.4354 100.166ZM937.977 46.279C941.224 48.4825 949.221 46.8957 943.891 43.5482C941.14 41.8455 936.311 42.5835 937.977 46.279ZM700.476 34.8499C703.455 38.7932 706.66 31.0279 702.205 30.9752C699.543 30.9383 699.833 33.4424 700.476 34.8499ZM267.718 46.4055C265.989 48.2716 262.805 54.9983 259.953 53.8913C259.325 53.6646 258.392 47.2542 257.723 45.8256C254.618 38.9935 258.266 40.1374 261.682 35.3296C264.202 31.8081 258.35 31.7554 255.308 31.2283C251.455 30.5429 248.476 34.7867 240.88 35.3507C238.528 35.5247 230.115 37.3223 232.593 40.4221C233.425 41.4606 239.694 47.0275 240.737 46.9906C241.96 46.9274 242.219 46.0892 242.893 46.3686C243.732 46.7112 243.758 47.8077 242.999 48.2822C240.548 49.8057 236.678 51.3556 239.198 52.8211C243.052 55.0774 243.863 54.2656 245.255 59.0892C245.94 61.5036 246.879 61.2716 250.443 61.3982C254.918 61.5563 258.772 61.2558 263.353 61.6459C270.496 62.2469 269.352 62.2996 274.265 58.5304C279.637 54.4079 271.202 55.3779 271.519 50.1484C271.656 47.7076 272.072 43.6905 267.718 46.4055ZM797.396 24.9391C797.375 24.9022 797.433 24.9391 797.396 24.9391V24.9391ZM805.246 34.676C806.369 33.6216 809.389 29.884 807.639 28.6557C807.223 28.3552 806.348 28.8824 804.576 27.8807C802.621 26.7737 798.788 28.3025 797.475 25.5401C796.474 23.3893 793.58 23.9375 794.413 28.2498C794.766 30.079 795.931 39.2043 798.994 38.6244C799.642 38.4979 804.223 35.2927 805.246 34.676ZM775.176 19.8309C774.095 19.6042 774.549 20.1472 773.51 18.281C768.428 9.22949 759.704 10.3366 762.392 18.5077C763.204 20.9748 766.077 24.0746 764.327 25.1289C762.83 26.0462 764.264 29.2145 767.764 29.9367C771.76 30.7485 771.739 30.9752 775.45 32.1034C777.659 32.7729 788.925 33.2631 790.069 32.1034C791.529 30.622 787.175 23.6528 784.365 22.4878C784.012 22.3455 776.953 20.2684 776.473 20.4266C775.819 20.6585 776.61 20.8536 775.176 19.8309ZM1046.3 535.434C1048.97 537.263 1055.21 532.545 1049.8 532.403C1047.89 532.355 1044.82 533.288 1046.3 535.434ZM668.693 42.4412C665.029 45.0296 662.989 40.4854 659.7 43.796C657.971 45.5198 659.383 49.9639 663.922 44.7133C666.69 41.5239 662.446 50.0113 666.885 50.1167C671.382 50.2222 675.462 39.8159 670.881 40.4854C669.964 40.6066 669.131 41.9298 668.693 42.4412ZM1067.69 565.794C1066.81 569.436 1068.44 573.311 1073.18 570.828C1076.21 569.015 1081.99 563.87 1080.62 560.527C1080.03 559.12 1076.23 559.489 1073.74 558.645C1065.29 555.725 1068.35 561.624 1067.69 565.794ZM1115.19 414.934C1113.52 416.141 1107.78 415.746 1109.23 418.619C1110.97 422.056 1121.42 419.62 1123.13 414.496C1123.46 413.505 1124.99 414.243 1125.83 413.753C1126.3 413.484 1126.95 413.194 1126.04 411.713C1123.9 408.17 1117.14 413.315 1115.19 414.934ZM1043.56 406.061C1043.73 408.998 1049.07 408.634 1047.2 410.985C1042.72 416.626 1056.6 417.185 1060.24 417.823C1065.72 418.756 1071.18 419.689 1070.72 425.256C1070.52 427.696 1066.29 426.879 1069.18 429.552C1071.97 432.104 1076.01 428.946 1077.1 430.053C1079.76 432.699 1087.3 433.585 1088.81 430.928C1090.35 428.234 1090.79 426.742 1095 425.846C1098.47 425.098 1094.95 427.591 1097.97 428.023C1102.65 428.666 1099.22 430.274 1103.45 431.228C1103.98 431.355 1106.14 435.952 1112.51 435.256C1118.27 434.629 1110.19 431.508 1108.71 430.143C1107.71 429.225 1103.6 424.913 1103.7 423.927C1103.97 421.486 1107.26 421.344 1100.91 419.383C1095.36 417.675 1099.98 415.624 1093.95 415.134C1091.81 414.976 1091.43 412.888 1086.35 412.066C1078.31 410.774 1088.08 409.224 1075.39 408.876C1073.02 408.813 1072.35 408.871 1070.36 407.754C1064.55 404.485 1061.06 419.14 1054.78 410.69C1051.92 406.799 1055.93 401.312 1047.99 402.398C1045.2 402.767 1044.94 404.38 1043.56 406.061ZM1170.04 567.101C1165.14 567.786 1161.31 571.571 1159.94 575.552C1159.46 576.943 1161.1 575.762 1157.56 577.312C1153.19 579.231 1129.7 592.263 1140.88 596.138C1149.69 599.185 1154.4 588.531 1160.46 584.34C1165.39 580.923 1164.5 583.143 1168.31 577.666C1170.56 574.302 1179.18 569.584 1170.04 567.101ZM947.387 21.6443C932.225 18.8187 936.226 28.313 947.16 26.3414C950.929 25.6719 954.071 22.8779 947.387 21.6443ZM695.315 38.4979C693.797 49.0993 689.026 34.6232 686.817 32.6147C684.15 30.2003 682.547 37.1589 682.632 38.8511C682.716 40.5961 681.925 39.5206 681.572 42.2145C680.655 49.2944 682.574 47.4967 689.422 46.5636C694.045 45.9099 694.171 44.3811 698.02 43.7485C700.271 43.3795 699.227 42.2514 700.476 42.0932C700.893 42.0405 699.854 37.2854 699.396 36.7214C697.208 34.1119 695.732 36.1731 695.315 38.4979ZM1036.4 446.126C1032.42 452.821 1033.24 449.316 1025.73 448.904C1016.2 448.383 1018.19 454.909 1013.43 457.455C1006.85 460.982 1009.51 460.486 1006.73 465.278C1004.25 469.554 1000.1 469.28 995.406 469.891C989.613 470.65 985.037 470.587 979.096 471.304C973.945 471.921 972.775 478.347 972.68 481.615C972.559 485.98 969.633 487.372 971.578 491.289C974.346 496.55 972.026 503.946 971.019 508.675C969.997 513.493 966.839 514.99 966.338 517.689C965.458 522.429 971.736 522.898 975.216 522.518C981.109 521.88 984.721 520.167 991.068 520.083C1001.08 519.951 1000.47 518.438 1010.26 515.539C1019.01 512.94 1037.4 509.624 1042.41 519.471C1044.56 523.694 1042.29 526.161 1048.07 523.457C1058.21 518.712 1045.91 529.619 1051.66 527.959C1053.51 527.426 1053.49 527.136 1055.16 529.888C1060.5 538.676 1052.31 537.943 1065.59 546.41C1069.41 548.033 1071.22 546.368 1074.36 544.591C1071.9 549.9 1076.72 548.381 1080.55 547.169C1084.02 545.44 1084.94 545.424 1089.17 544.322C1094.56 542.915 1094.13 539.061 1097.07 534.575C1105.1 522.323 1120.7 516.925 1119.99 500.493C1119.75 495.053 1121.64 494.199 1117.57 488.516C1117.09 487.852 1111.73 481.336 1111.38 481.162C1108.14 479.522 1107.31 480.988 1106.1 478.257C1103.51 472.464 1096.2 470.756 1094.85 466.28C1093.9 463.122 1094.52 461.894 1093.83 458.768C1093.33 456.506 1093.55 451.872 1091.15 450.359C1087.62 448.151 1088.56 447.597 1087.41 444.387C1086.6 442.13 1086.31 441.593 1085.87 438.894C1085.55 436.853 1083.81 438.619 1083.26 440.132C1082.28 442.826 1081.7 441.74 1081.1 445.531C1080.66 448.325 1079.85 463.723 1072.52 461.899C1071.31 461.214 1072.51 462.063 1070.77 460.818C1069.03 459.58 1064.56 456.585 1062.45 454.587C1061.38 453.575 1060.24 453.939 1059.07 452.832C1056.96 450.829 1058.24 449.469 1059 446.738C1059.92 445.52 1065.8 443.591 1062.45 441.767C1062.02 441.535 1057.4 441.387 1055.67 440.881C1051.56 439.663 1048.02 439.215 1043.52 440.08C1042.21 440.327 1042.55 441.34 1040.95 442.125C1039.35 442.926 1037.37 444.45 1036.4 446.126Z" fill="white"/>
</svg>
